{
.appVersion = "1356";
classes = (
{
code = "iMatra-khoj iiMatra-khoj uMatra-khoj";
name = VOWELS;
},
{
code = "ka_iMatra-khoj ka_iMatra-khoj.alt k_ssa_iMatra-khoj k_ssa_ra_iMatra-khoj kha_iMatra-khoj kh_ra_iMatra-khoj ga_iMatra-khoj g_ra_iMatra-khoj g_na_iMatra-khoj g_na_ra_iMatra-khoj gga_iMatra-khoj gg_ra_iMatra-khoj gha_iMatra-khoj nga_iMatra-khoj ca_iMatra-khoj c_ra_iMatra-khoj cha_iMatra-khoj ja_iMatra-khoj j_ra_iMatra-khoj jja_iMatra-khoj jj_ra_iMatra-khoj nya_iMatra-khoj tta_iMatra-khoj ttha_iMatra-khoj dda_iMatra-khoj dd_ra_iMatra-khoj ddha_iMatra-khoj nna_iMatra-khoj nn_ra_iMatra-khoj ta_iMatra-khoj t_ra_iMatra-khoj tha_iMatra-khoj da_iMatra-khoj d_ra_iMatra-khoj ddda_iMatra-khoj dha_iMatra-khoj dh_ra_iMatra-khoj na_iMatra-khoj n_ra_iMatra-khoj pa_iMatra-khoj pha_iMatra-khoj ba_iMatra-khoj b_ra_iMatra-khoj bba_iMatra-khoj bb_ra_iMatra-khoj bha_iMatra-khoj bh_ra_iMatra-khoj ma_iMatra-khoj m_ra_iMatra-khoj ya_iMatra-khoj y_ra_iMatra-khoj ra_iMatra-khoj la_iMatra-khoj l_ra_iMatra-khoj va_iMatra-khoj v_ra_iMatra-khoj sa_iMatra-khoj s_ra_iMatra-khoj sha_iMatra-khoj sh_ra_iMatra-khoj ha_iMatra-khoj h_ra_iMatra-khoj lla_iMatra-khoj yakar_iMatra-khoj ";
name = IMATRA;
},
{
code = "a-khoj aa-khoj aaMatra-khoj ai-khoj au-khoj b_ra-khoj ba-khoj bba-khoj bha-khoj c_ra-khoj ca-khoj cha-khoj d_ra-khoj da-khoj dda-khoj ddda-khoj ddha-khoj dha-khoj e-khoj g_na-khoj g_na_ra-khoj g_ra-khoj ga-khoj gga-khoj gha-khoj h_ra-khoj ha-khoj i-khoj j_ra-khoj ja-khoj jja-khoj k_ssa-khoj k_ssa_ra-khoj ka-khoj ka-khoj.alt kha-khoj l_ra-khoj la-khoj lla-khoj m_ra-khoj ma-khoj n_ra-khoj na-khoj nga-khoj nna-khoj nya-khoj o-khoj pa-khoj pha-khoj ra-khoj s_ra-khoj sa-khoj t_ra-khoj ta-khoj tha-khoj tta-khoj ttha-khoj u-khoj uni25CC v_ra-khoj va-khoj y_ra-khoj ya-khoj yakar-khoj";
name = BASES;
}
);
copyright = "Copyright 2020-2022 Google LLC. All Rights Reserved.";
customParameters = (
{
name = glyphOrder;
value = (
.notdef,
NULL,
CR,
space,
punctuationspace,
uni00A0,
uni200D,
uni25CC,

glyphs = (
{
glyphname = .notdef;
lastChange = "2020-12-02 21:56:54 +0000";
layers = (
{
layerId = "0717401B-DDB5-4983-85F2-A81AFE530D5E";
paths = (
{
closed = 1;
nodes = (
"505 0 LINE",
"505 714 LINE",
"94 714 LINE",
"94 0 LINE"
);
},
{
closed = 1;
nodes = (
"145 663 LINE",
"454 663 LINE",
"454 51 LINE",
"145 51 LINE"
);
}
);
width = 600;
},
{
layerId = "A430B39A-257A-41FC-BEA9-652C696FFEF7";
paths = (
{
closed = 1;
nodes = (
"505 0 LINE",
"505 714 LINE",
"94 714 LINE",
"94 0 LINE"
);
},
{
closed = 1;
nodes = (
"145 663 LINE",
"454 663 LINE",
"454 51 LINE",
"145 51 LINE"
);
}
);
width = 600;
}
);
note = .notdef;
},
{
glyphname = uni25CC;
lastChange = "2020-12-02 21:56:54 +0000";
layers = (
{
anchors = (
{
name = bottom;
position = "{298, 0}";
},
{
name = top;
position = "{544, 610}";
}
);
layerId = "0717401B-DDB5-4983-85F2-A81AFE530D5E";
paths = (
{
closed = 1;
nodes = (
"469 423 OFFCURVE",
"481 435 OFFCURVE",
"481 449 CURVE SMOOTH",
"481 463 OFFCURVE",
"469 475 OFFCURVE",
"455 475 CURVE SMOOTH",
"441 475 OFFCURVE",
"429 463 OFFCURVE",
"429 449 CURVE SMOOTH",
"429 435 OFFCURVE",
"441 423 OFFCURVE",
"455 423 CURVE SMOOTH"
);
},
{
closed = 1;
nodes = (
"153 107 OFFCURVE",
"165 119 OFFCURVE",
"165 133 CURVE SMOOTH",
"165 147 OFFCURVE",
"153 159 OFFCURVE",
"139 159 CURVE SMOOTH",
"125 159 OFFCURVE",
"113 147 OFFCURVE",
"113 133 CURVE SMOOTH",
"113 119 OFFCURVE",
"125 107 OFFCURVE",
"139 107 CURVE SMOOTH"
);
},
{
closed = 1;
nodes = (
"106 181 OFFCURVE",
"118 193 OFFCURVE",
"118 207 CURVE SMOOTH",
"118 221 OFFCURVE",
"106 233 OFFCURVE",
"92 233 CURVE SMOOTH",
"78 233 OFFCURVE",
"66 221 OFFCURVE",
"66 207 CURVE SMOOTH",
"66 193 OFFCURVE",
"78 181 OFFCURVE",
"92 181 CURVE SMOOTH"
);
},
{
closed = 1;
nodes = (
"227 60 OFFCURVE",
"239 72 OFFCURVE",
"239 86 CURVE SMOOTH",
"239 100 OFFCURVE",
"227 112 OFFCURVE",
"213 112 CURVE SMOOTH",
"199 112 OFFCURVE",
"187 100 OFFCURVE",
"187 86 CURVE SMOOTH",
"187 72 OFFCURVE",
"199 60 OFFCURVE",
"213 60 CURVE SMOOTH"
);
},
{
closed = 1;
nodes = (
"88 265 OFFCURVE",
"100 277 OFFCURVE",
"100 291 CURVE SMOOTH",
"100 305 OFFCURVE",
"88 317 OFFCURVE",
"74 317 CURVE SMOOTH",
"60 317 OFFCURVE",
"48 305 OFFCURVE",
"48 291 CURVE SMOOTH",
"48 277 OFFCURVE",
"60 265 OFFCURVE",
"74 265 CURVE SMOOTH"
);
},
{
closed = 1;
nodes = (
"311 42 OFFCURVE",
"323 54 OFFCURVE",
"323 68 CURVE SMOOTH",
"323 82 OFFCURVE",
"311 94 OFFCURVE",
"297 94 CURVE SMOOTH",
"283 94 OFFCURVE",
"271 82 OFFCURVE",
"271 68 CURVE SMOOTH",
"271 54 OFFCURVE",
"283 42 OFFCURVE",
"297 42 CURVE SMOOTH"
);
},
{
closed = 1;
nodes = (
"106 349 OFFCURVE",
"118 361 OFFCURVE",
"118 375 CURVE SMOOTH",
"118 389 OFFCURVE",
"106 401 OFFCURVE",
"92 401 CURVE SMOOTH",
"78 401 OFFCURVE",
"66 389 OFFCURVE",
"66 375 CURVE SMOOTH",
"66 361 OFFCURVE",
"78 349 OFFCURVE",
"92 349 CURVE SMOOTH"
);
},
{
closed = 1;
nodes = (
"395 60 OFFCURVE",
"407 72 OFFCURVE",
"407 86 CURVE SMOOTH",
"407 100 OFFCURVE",
"395 112 OFFCURVE",
"381 112 CURVE SMOOTH",
"367 112 OFFCURVE",
"355 100 OFFCURVE",
"355 86 CURVE SMOOTH",
"355 72 OFFCURVE",
"367 60 OFFCURVE",
"381 60 CURVE SMOOTH"
);
},
{
closed = 1;
nodes = (
"153 423 OFFCURVE",
"165 435 OFFCURVE",
"165 449 CURVE SMOOTH",
"165 463 OFFCURVE",
"153 475 OFFCURVE",
"139 475 CURVE SMOOTH",
"125 475 OFFCURVE",
"113 463 OFFCURVE",
"113 449 CURVE SMOOTH",
"113 435 OFFCURVE",
"125 423 OFFCURVE",
"139 423 CURVE SMOOTH"
);
},
{
closed = 1;
nodes = (
"469 107 OFFCURVE",
"481 119 OFFCURVE",
"481 133 CURVE SMOOTH",
"481 147 OFFCURVE",
"469 159 OFFCURVE",
"455 159 CURVE SMOOTH",
"441 159 OFFCURVE",
"429 147 OFFCURVE",
"429 133 CURVE SMOOTH",
"429 119 OFFCURVE",
"441 107 OFFCURVE",
"455 107 CURVE SMOOTH"
);
},
{
closed = 1;
nodes = (
"227 470 OFFCURVE",
"239 482 OFFCURVE",
"239 496 CURVE SMOOTH",
"239 510 OFFCURVE",
"227 522 OFFCURVE",
"213 522 CURVE SMOOTH",
"199 522 OFFCURVE",
"187 510 OFFCURVE",
"187 496 CURVE SMOOTH",
"187 482 OFFCURVE",
"199 470 OFFCURVE",
"213 470 CURVE SMOOTH"
);
},
{
closed = 1;
nodes = (
"516 181 OFFCURVE",
"528 193 OFFCURVE",
"528 207 CURVE SMOOTH",
"528 221 OFFCURVE",
"516 233 OFFCURVE",
"502 233 CURVE SMOOTH",
"488 233 OFFCURVE",
"476 221 OFFCURVE",
"476 207 CURVE SMOOTH",
"476 193 OFFCURVE",
"488 181 OFFCURVE",
"502 181 CURVE SMOOTH"
);
},
{
closed = 1;
nodes = (
"311 488 OFFCURVE",
"323 500 OFFCURVE",
"323 514 CURVE SMOOTH",
"323 528 OFFCURVE",
"311 540 OFFCURVE",
"297 540 CURVE SMOOTH",
"283 540 OFFCURVE",
"271 528 OFFCURVE",
"271 514 CURVE SMOOTH",
"271 500 OFFCURVE",
"283 488 OFFCURVE",
"297 488 CURVE SMOOTH"
);
},
{
closed = 1;
nodes = (
"534 265 OFFCURVE",
"546 277 OFFCURVE",
"546 291 CURVE SMOOTH",
"546 305 OFFCURVE",
"534 317 OFFCURVE",
"520 317 CURVE SMOOTH",
"506 317 OFFCURVE",
"494 305 OFFCURVE",
"494 291 CURVE SMOOTH",
"494 277 OFFCURVE",
"506 265 OFFCURVE",
"520 265 CURVE SMOOTH"
);
},
{
closed = 1;
nodes = (
"395 470 OFFCURVE",
"407 482 OFFCURVE",
"407 496 CURVE SMOOTH",
"407 510 OFFCURVE",
"395 522 OFFCURVE",
"381 522 CURVE SMOOTH",
"367 522 OFFCURVE",
"355 510 OFFCURVE",
"355 496 CURVE SMOOTH",
"355 482 OFFCURVE",
"367 470 OFFCURVE",
"381 470 CURVE SMOOTH"
);
},
{
closed = 1;
nodes = (
"516 349 OFFCURVE",
"528 361 OFFCURVE",
"528 375 CURVE SMOOTH",
"528 389 OFFCURVE",
"516 401 OFFCURVE",
"502 401 CURVE SMOOTH",
"488 401 OFFCURVE",
"476 389 OFFCURVE",
"476 375 CURVE SMOOTH",
"476 361 OFFCURVE",
"488 349 OFFCURVE",
"502 349 CURVE SMOOTH"
);
}
);
width = 594;
},
{
anchors = (
{
name = bottom;
position = "{298, 0}";
},
{
name = top;
position = "{544, 610}";
}
);
layerId = "A430B39A-257A-41FC-BEA9-652C696FFEF7";
paths = (
{
closed = 1;
nodes = (
"469 423 OFFCURVE",
"481 435 OFFCURVE",
"481 449 CURVE SMOOTH",
"481 463 OFFCURVE",
"469 475 OFFCURVE",
"455 475 CURVE SMOOTH",
"441 475 OFFCURVE",
"429 463 OFFCURVE",
"429 449 CURVE SMOOTH",
"429 435 OFFCURVE",
"441 423 OFFCURVE",
"455 423 CURVE SMOOTH"
);
},
{
closed = 1;
nodes = (
"153 107 OFFCURVE",
"165 119 OFFCURVE",
"165 133 CURVE SMOOTH",
"165 147 OFFCURVE",
"153 159 OFFCURVE",
"139 159 CURVE SMOOTH",
"125 159 OFFCURVE",
"113 147 OFFCURVE",
"113 133 CURVE SMOOTH",
"113 119 OFFCURVE",
"125 107 OFFCURVE",
"139 107 CURVE SMOOTH"
);
},
{
closed = 1;
nodes = (
"106 181 OFFCURVE",
"118 193 OFFCURVE",
"118 207 CURVE SMOOTH",
"118 221 OFFCURVE",
"106 233 OFFCURVE",
"92 233 CURVE SMOOTH",
"78 233 OFFCURVE",
"66 221 OFFCURVE",
"66 207 CURVE SMOOTH",
"66 193 OFFCURVE",
"78 181 OFFCURVE",
"92 181 CURVE SMOOTH"
);
},
{
closed = 1;
nodes = (
"227 60 OFFCURVE",
"239 72 OFFCURVE",
"239 86 CURVE SMOOTH",
"239 100 OFFCURVE",
"227 112 OFFCURVE",
"213 112 CURVE SMOOTH",
"199 112 OFFCURVE",
"187 100 OFFCURVE",
"187 86 CURVE SMOOTH",
"187 72 OFFCURVE",
"199 60 OFFCURVE",
"213 60 CURVE SMOOTH"
);
},
{
closed = 1;
nodes = (
"88 265 OFFCURVE",
"100 277 OFFCURVE",
"100 291 CURVE SMOOTH",
"100 305 OFFCURVE",
"88 317 OFFCURVE",
"74 317 CURVE SMOOTH",
"60 317 OFFCURVE",
"48 305 OFFCURVE",
"48 291 CURVE SMOOTH",
"48 277 OFFCURVE",
"60 265 OFFCURVE",
"74 265 CURVE SMOOTH"
);
},
{
closed = 1;
nodes = (
"311 42 OFFCURVE",
"323 54 OFFCURVE",
"323 68 CURVE SMOOTH",
"323 82 OFFCURVE",
"311 94 OFFCURVE",
"297 94 CURVE SMOOTH",
"283 94 OFFCURVE",
"271 82 OFFCURVE",
"271 68 CURVE SMOOTH",
"271 54 OFFCURVE",
"283 42 OFFCURVE",
"297 42 CURVE SMOOTH"
);
},
{
closed = 1;
nodes = (
"106 349 OFFCURVE",
"118 361 OFFCURVE",
"118 375 CURVE SMOOTH",
"118 389 OFFCURVE",
"106 401 OFFCURVE",
"92 401 CURVE SMOOTH",
"78 401 OFFCURVE",
"66 389 OFFCURVE",
"66 375 CURVE SMOOTH",
"66 361 OFFCURVE",
"78 349 OFFCURVE",
"92 349 CURVE SMOOTH"
);
},
{
closed = 1;
nodes = (
"395 60 OFFCURVE",
"407 72 OFFCURVE",
"407 86 CURVE SMOOTH",
"407 100 OFFCURVE",
"395 112 OFFCURVE",
"381 112 CURVE SMOOTH",
"367 112 OFFCURVE",
"355 100 OFFCURVE",
"355 86 CURVE SMOOTH",
"355 72 OFFCURVE",
"367 60 OFFCURVE",
"381 60 CURVE SMOOTH"
);
},
{
closed = 1;
nodes = (
"153 423 OFFCURVE",
"165 435 OFFCURVE",
"165 449 CURVE SMOOTH",
"165 463 OFFCURVE",
"153 475 OFFCURVE",
"139 475 CURVE SMOOTH",
"125 475 OFFCURVE",
"113 463 OFFCURVE",
"113 449 CURVE SMOOTH",
"113 435 OFFCURVE",
"125 423 OFFCURVE",
"139 423 CURVE SMOOTH"
);
},
{
closed = 1;
nodes = (
"469 107 OFFCURVE",
"481 119 OFFCURVE",
"481 133 CURVE SMOOTH",
"481 147 OFFCURVE",
"469 159 OFFCURVE",
"455 159 CURVE SMOOTH",
"441 159 OFFCURVE",
"429 147 OFFCURVE",
"429 133 CURVE SMOOTH",
"429 119 OFFCURVE",
"441 107 OFFCURVE",
"455 107 CURVE SMOOTH"
);
},
{
closed = 1;
nodes = (
"227 470 OFFCURVE",
"239 482 OFFCURVE",
"239 496 CURVE SMOOTH",
"239 510 OFFCURVE",
"227 522 OFFCURVE",
"213 522 CURVE SMOOTH",
"199 522 OFFCURVE",
"187 510 OFFCURVE",
"187 496 CURVE SMOOTH",
"187 482 OFFCURVE",
"199 470 OFFCURVE",
"213 470 CURVE SMOOTH"
);
},
{
closed = 1;
nodes = (
"516 181 OFFCURVE",
"528 193 OFFCURVE",
"528 207 CURVE SMOOTH",
"528 221 OFFCURVE",
"516 233 OFFCURVE",
"502 233 CURVE SMOOTH",
"488 233 OFFCURVE",
"476 221 OFFCURVE",
"476 207 CURVE SMOOTH",
"476 193 OFFCURVE",
"488 181 OFFCURVE",
"502 181 CURVE SMOOTH"
);
},
{
closed = 1;
nodes = (
"311 488 OFFCURVE",
"323 500 OFFCURVE",
"323 514 CURVE SMOOTH",
"323 528 OFFCURVE",
"311 540 OFFCURVE",
"297 540 CURVE SMOOTH",
"283 540 OFFCURVE",
"271 528 OFFCURVE",
"271 514 CURVE SMOOTH",
"271 500 OFFCURVE",
"283 488 OFFCURVE",
"297 488 CURVE SMOOTH"
);
},
{
closed = 1;
nodes = (
"534 265 OFFCURVE",
"546 277 OFFCURVE",
"546 291 CURVE SMOOTH",
"546 305 OFFCURVE",
"534 317 OFFCURVE",
"520 317 CURVE SMOOTH",
"506 317 OFFCURVE",
"494 305 OFFCURVE",
"494 291 CURVE SMOOTH",
"494 277 OFFCURVE",
"506 265 OFFCURVE",
"520 265 CURVE SMOOTH"
);
},
{
closed = 1;
nodes = (
"395 470 OFFCURVE",
"407 482 OFFCURVE",
"407 496 CURVE SMOOTH",
"407 510 OFFCURVE",
"395 522 OFFCURVE",
"381 522 CURVE SMOOTH",
"367 522 OFFCURVE",
"355 510 OFFCURVE",
"355 496 CURVE SMOOTH",
"355 482 OFFCURVE",
"367 470 OFFCURVE",
"381 470 CURVE SMOOTH"
);
},
{
closed = 1;
nodes = (
"516 349 OFFCURVE",
"528 361 OFFCURVE",
"528 375 CURVE SMOOTH",
"528 389 OFFCURVE",
"516 401 OFFCURVE",
"502 401 CURVE SMOOTH",
"488 401 OFFCURVE",
"476 389 OFFCURVE",
"476 375 CURVE SMOOTH",
"476 361 OFFCURVE",
"488 349 OFFCURVE",
"502 349 CURVE SMOOTH"
);
}
);
width = 594;
}
);
note = uni25CC;
unicode = 25CC;
category = Letter;
},
{
color = 6;
glyphname = "zero-khoj";
lastChange = "2020-12-02 21:56:54 +0000";
layers = (
{
layerId = "0717401B-DDB5-4983-85F2-A81AFE530D5E";
paths = (
{
closed = 1;
nodes = (
"402 89 OFFCURVE",
"493 177 OFFCURVE",
"493 300 CURVE SMOOTH",
"493 420 OFFCURVE",
"384 527 OFFCURVE",
"268 527 CURVE SMOOTH",
"145 527 OFFCURVE",
"55 433 OFFCURVE",
"55 309 CURVE SMOOTH",
"55 184 OFFCURVE",
"176 89 OFFCURVE",
"280 89 CURVE SMOOTH"
);
},
{
closed = 1;
nodes = (
"183 164 OFFCURVE",
"136 206 OFFCURVE",
"136 277 CURVE SMOOTH",
"136 371 OFFCURVE",
"218 449 OFFCURVE",
"305 449 CURVE SMOOTH",
"365 449 OFFCURVE",
"414 407 OFFCURVE",
"414 332 CURVE SMOOTH",
"414 244 OFFCURVE",
"336 164 OFFCURVE",
"247 164 CURVE SMOOTH"
);
}
);
width = 548;
},
{
layerId = "A430B39A-257A-41FC-BEA9-652C696FFEF7";
paths = (
{
closed = 1;
nodes = (
"435 58 OFFCURVE",
"540 161 OFFCURVE",
"540 298 CURVE SMOOTH",
"540 432 OFFCURVE",
"423 554 OFFCURVE",
"287 554 CURVE SMOOTH",
"145 554 OFFCURVE",
"40 447 OFFCURVE",
"40 307 CURVE SMOOTH",
"40 175 OFFCURVE",
"162 58 OFFCURVE",
"294 58 CURVE SMOOTH"
);
},
{
closed = 1;
nodes = (
"197 167 OFFCURVE",
"158 201 OFFCURVE",
"158 260 CURVE SMOOTH",
"158 347 OFFCURVE",
"243 440 OFFCURVE",
"335 440 CURVE SMOOTH",
"388 440 OFFCURVE",
"423 404 OFFCURVE",
"423 346 CURVE SMOOTH",
"423 259 OFFCURVE",
"342 167 OFFCURVE",
"249 167 CURVE SMOOTH"
);
}
);
width = 580;
}
);
leftKerningGroup = ZERO;
note = uni0AE6;
rightKerningGroup = ZERO;
unicode = 0AE6;
script = gujarati;
category = Number;
},
{
color = 6;
glyphname = "one-khoj";
lastChange = "2020-12-02 21:56:54 +0000";
layers = (
{
layerId = "0717401B-DDB5-4983-85F2-A81AFE530D5E";
paths = (
{
closed = 1;
nodes = (
"424 0 OFFCURVE",
"467 29 OFFCURVE",
"467 71 CURVE SMOOTH",
"467 96 OFFCURVE",
"439 117 OFFCURVE",
"404 128 CURVE",
"395 68 OFFCURVE",
"379 49 OFFCURVE",
"362 49 CURVE SMOOTH",
"351 49 OFFCURVE",
"341 56 OFFCURVE",
"341 89 CURVE SMOOTH",
"341 194 OFFCURVE",
"354 338 OFFCURVE",
"354 423 CURVE SMOOTH",
"354 533 OFFCURVE",
"262 603 OFFCURVE",
"182 603 CURVE SMOOTH",
"102 603 OFFCURVE",
"30 534 OFFCURVE",
"30 452 CURVE SMOOTH",
"30 362 OFFCURVE",
"115 287 OFFCURVE",
"195 287 CURVE SMOOTH",
"227 287 OFFCURVE",
"254 299 OFFCURVE",
"280 317 CURVE",
"268 330 LINE",
"263 244 OFFCURVE",
"258 173 OFFCURVE",
"258 116 CURVE SMOOTH",
"258 52 OFFCURVE",
"317 0 OFFCURVE",
"378 0 CURVE SMOOTH"
);
},
{
closed = 1;
nodes = (
"134 344 OFFCURVE",
"104 368 OFFCURVE",
"104 414 CURVE SMOOTH",
"104 477 OFFCURVE",
"159 535 OFFCURVE",
"218 535 CURVE SMOOTH",
"257 535 OFFCURVE",
"285 509 OFFCURVE",
"285 466 CURVE SMOOTH",
"285 412 OFFCURVE",
"241 344 OFFCURVE",
"174 344 CURVE SMOOTH"
);
}
);
width = 477;
},
{
layerId = "A430B39A-257A-41FC-BEA9-652C696FFEF7";
paths = (
{
closed = 1;
nodes = (
"479 -14 OFFCURVE",
"526 21 OFFCURVE",
"526 69 CURVE SMOOTH",
"526 102 OFFCURVE",
"494 130 OFFCURVE",
"442 144 CURVE",
"437 93 OFFCURVE",
"421 60 OFFCURVE",
"402 60 CURVE SMOOTH",
"388 60 OFFCURVE",
"382 72 OFFCURVE",
"382 107 CURVE SMOOTH",
"382 218 OFFCURVE",
"396 332 OFFCURVE",
"396 418 CURVE SMOOTH",
"396 530 OFFCURVE",
"306 625 OFFCURVE",
"194 625 CURVE SMOOTH",
"92 625 OFFCURVE",
"14 547 OFFCURVE",
"14 450 CURVE SMOOTH",
"14 348 OFFCURVE",
"103 257 OFFCURVE",
"207 257 CURVE SMOOTH",
"240 257 OFFCURVE",
"267 266 OFFCURVE",
"285 276 CURVE",
"262 294 LINE",
"259 248 OFFCURVE",
"256 173 OFFCURVE",
"256 127 CURVE SMOOTH",
"256 53 OFFCURVE",
"330 -14 OFFCURVE",
"414 -14 CURVE SMOOTH"
);
},
{
closed = 1;
nodes = (
"148 354 OFFCURVE",
"122 376 OFFCURVE",
"122 412 CURVE SMOOTH",
"122 467 OFFCURVE",
"175 516 OFFCURVE",
"231 516 CURVE SMOOTH",
"268 516 OFFCURVE",
"290 492 OFFCURVE",
"290 456 CURVE SMOOTH",
"290 406 OFFCURVE",
"243 354 OFFCURVE",
"183 354 CURVE SMOOTH"
);
}
);
width = 521;
}
);
leftKerningGroup = ONE;
note = uni0AE7;
rightKerningGroup = PA;
rightMetricsKey = "five-khoj";
unicode = 0AE7;
script = gujarati;
category = Number;
},
{
color = 6;
glyphname = "two-khoj";
lastChange = "2020-12-02 21:56:54 +0000";
layers = (
{
anchors = (
{
name = colon;
position = "{484, 315}";
}
);
layerId = "0717401B-DDB5-4983-85F2-A81AFE530D5E";
paths = (
{
closed = 1;
nodes = (
"227 209 OFFCURVE",
"288 231 OFFCURVE",
"335 270 CURVE SMOOTH",
"381 308 OFFCURVE",
"411 357 OFFCURVE",
"411 416 CURVE SMOOTH",
"411 506 OFFCURVE",
"327 602 OFFCURVE",
"196 602 CURVE SMOOTH",
"112 602 OFFCURVE",
"40 563 OFFCURVE",
"40 518 CURVE SMOOTH",
"40 497 OFFCURVE",
"60 476 OFFCURVE",
"79 457 CURVE",
"128 505 OFFCURVE",
"197 532 OFFCURVE",
"249 532 CURVE SMOOTH",
"313 532 OFFCURVE",
"342 495 OFFCURVE",
"342 448 CURVE SMOOTH",
"342 373 OFFCURVE",
"268 307 OFFCURVE",
"189 297 CURVE",
"223 266 LINE",
"212 300 OFFCURVE",
"192 365 OFFCURVE",
"154 365 CURVE SMOOTH",
"112 365 OFFCURVE",
"73 310 OFFCURVE",
"73 279 CURVE SMOOTH",
"73 243 OFFCURVE",
"119 209 OFFCURVE",
"177 209 CURVE SMOOTH"
);
},
{
closed = 1;
nodes = (
"399 0 OFFCURVE",
"456 19 OFFCURVE",
"456 55 CURVE SMOOTH",
"456 72 OFFCURVE",
"448 101 OFFCURVE",
"433 119 CURVE",
"406 100 OFFCURVE",
"373 88 OFFCURVE",
"328 88 CURVE SMOOTH",
"263 88 OFFCURVE",
"230 138 OFFCURVE",
"221 242 CURVE",
"173 225 LINE",
"204 71 OFFCURVE",
"256 0 OFFCURVE",
"353 0 CURVE SMOOTH"
);
}
);
width = 501;
},
{
anchors = (
{
name = colon;
position = "{508, 315}";
}
);
layerId = "A430B39A-257A-41FC-BEA9-652C696FFEF7";
paths = (
{
closed = 1;
nodes = (
"243 186 OFFCURVE",
"314 210 OFFCURVE",
"366 250 CURVE SMOOTH",
"424 294 OFFCURVE",
"452 352 OFFCURVE",
"452 413 CURVE SMOOTH",
"452 527 OFFCURVE",
"343 621 OFFCURVE",
"203 621 CURVE SMOOTH",
"105 621 OFFCURVE",
"25 584 OFFCURVE",
"25 524 CURVE SMOOTH",
"25 489 OFFCURVE",
"47 460 OFFCURVE",
"87 429 CURVE",
"138 476 OFFCURVE",
"210 513 OFFCURVE",
"273 513 CURVE SMOOTH",
"323 513 OFFCURVE",
"347 487 OFFCURVE",
"347 451 CURVE SMOOTH",
"347 389 OFFCURVE",
"282 336 OFFCURVE",
"208 323 CURVE",
"244 304 LINE",
"225 356 OFFCURVE",
"204 387 OFFCURVE",
"166 387 CURVE SMOOTH",
"117 387 OFFCURVE",
"62 325 OFFCURVE",
"62 276 CURVE SMOOTH",
"62 227 OFFCURVE",
"118 186 OFFCURVE",
"189 186 CURVE SMOOTH"
);
},
{
closed = 1;
nodes = (
"440 -18 OFFCURVE",
"501 5 OFFCURVE",
"501 59 CURVE SMOOTH",
"501 90 OFFCURVE",
"482 125 OFFCURVE",
"460 145 CURVE",
"428 122 OFFCURVE",
"395 111 OFFCURVE",
"351 111 CURVE SMOOTH",
"286 111 OFFCURVE",
"261 147 OFFCURVE",
"251 255 CURVE",
"174 225 LINE",
"209 61 OFFCURVE",
"268 -18 OFFCURVE",
"378 -18 CURVE SMOOTH"
);
}
);
width = 531;
}
);
leftKerningGroup = TWO;
note = uni0AE8;
rightKerningGroup = TWO;
unicode = 0AE8;
script = gujarati;
category = Number;
},
{
color = 6;
glyphname = "three-khoj";
lastChange = "2020-12-02 21:56:54 +0000";
layers = (
{
anchors = (
{
name = colon;
position = "{516, 315}";
}
);
layerId = "0717401B-DDB5-4983-85F2-A81AFE530D5E";
paths = (
{
closed = 1;
nodes = (
"392 -2 OFFCURVE",
"468 66 OFFCURVE",
"468 159 CURVE SMOOTH",
"468 221 OFFCURVE",
"420 280 OFFCURVE",
"361 318 CURVE",
"323 296 LINE",
"367 271 OFFCURVE",
"388 239 OFFCURVE",
"388 196 CURVE SMOOTH",
"388 126 OFFCURVE",
"332 83 OFFCURVE",
"257 83 CURVE SMOOTH",
"168 83 OFFCURVE",
"108 161 OFFCURVE",
"77 264 CURVE",
"69 265 LINE",
"45 216 LINE",
"79 99 OFFCURVE",
"169 -2 OFFCURVE",
"294 -2 CURVE SMOOTH"
);
},
{
closed = 1;
nodes = (
"337 272 OFFCURVE",
"430 332 OFFCURVE",
"430 423 CURVE SMOOTH",
"430 504 OFFCURVE",
"347 602 OFFCURVE",
"216 602 CURVE SMOOTH",
"132 602 OFFCURVE",
"60 563 OFFCURVE",
"60 518 CURVE SMOOTH",
"60 497 OFFCURVE",
"80 476 OFFCURVE",
"99 457 CURVE",
"148 505 OFFCURVE",
"217 532 OFFCURVE",
"269 532 CURVE SMOOTH",
"334 532 OFFCURVE",
"360 495 OFFCURVE",
"360 455 CURVE SMOOTH",
"360 385 OFFCURVE",
"267 351 OFFCURVE",
"171 341 CURVE",
"167 334 LINE",
"177 311 OFFCURVE",
"197 281 OFFCURVE",
"215 261 CURVE"
);
}
);
width = 513;
},
{
anchors = (
{
name = colon;
position = "{542, 315}";
}
);
layerId = "A430B39A-257A-41FC-BEA9-652C696FFEF7";
paths = (
{
closed = 1;
nodes = (
"435 -16 OFFCURVE",
"510 58 OFFCURVE",
"510 159 CURVE SMOOTH",
"510 234 OFFCURVE",
"458 290 OFFCURVE",
"373 333 CURVE",
"308 302 LINE",
"373 279 OFFCURVE",
"393 252 OFFCURVE",
"393 208 CURVE SMOOTH",
"393 149 OFFCURVE",
"346 112 OFFCURVE",
"273 112 CURVE SMOOTH",
"193 112 OFFCURVE",
"127 161 OFFCURVE",
"80 284 CURVE",
"69 285 LINE",
"34 218 LINE",
"84 75 OFFCURVE",
"181 -16 OFFCURVE",
"316 -16 CURVE SMOOTH"
);
},
{
closed = 1;
nodes = (
"371 250 OFFCURVE",
"476 314 OFFCURVE",
"476 417 CURVE SMOOTH",
"476 529 OFFCURVE",
"366 621 OFFCURVE",
"226 621 CURVE SMOOTH",
"128 621 OFFCURVE",
"48 584 OFFCURVE",
"48 524 CURVE SMOOTH",
"48 489 OFFCURVE",
"70 460 OFFCURVE",
"110 429 CURVE",
"161 476 OFFCURVE",
"233 513 OFFCURVE",
"296 513 CURVE SMOOTH",
"345 513 OFFCURVE",
"363 490 OFFCURVE",
"363 463 CURVE SMOOTH",
"363 401 OFFCURVE",
"266 369 OFFCURVE",
"166 353 CURVE",
"161 341 LINE",
"173 313 OFFCURVE",
"207 262 OFFCURVE",
"235 235 CURVE"
);
}
);
width = 541;
}
);
leftKerningGroup = THREE;
note = uni0AE9;
rightKerningGroup = THREE;
unicode = 0AE9;
script = gujarati;
category = Number;
},
{
color = 6;
glyphname = "four-khoj";
lastChange = "2020-12-02 21:56:54 +0000";
layers = (
{
layerId = "0717401B-DDB5-4983-85F2-A81AFE530D5E";
paths = (
{
closed = 1;
nodes = (
"401 -2 OFFCURVE",
"463 82 OFFCURVE",
"463 151 CURVE SMOOTH",
"463 214 OFFCURVE",
"430 250 OFFCURVE",
"359 334 CURVE SMOOTH",
"241 475 LINE SMOOTH",
"180 547 OFFCURVE",
"128 602 OFFCURVE",
"78 602 CURVE SMOOTH",
"47 602 OFFCURVE",
"20 585 OFFCURVE",
"20 556 CURVE SMOOTH",
"20 533 OFFCURVE",
"31 509 OFFCURVE",
"43 490 CURVE",
"69 507 OFFCURVE",
"93 514 OFFCURVE",
"111 514 CURVE SMOOTH",
"144 514 OFFCURVE",
"166 493 OFFCURVE",
"222 426 CURVE SMOOTH",
"318 311 LINE SMOOTH",
"355 266 OFFCURVE",
"377 229 OFFCURVE",
"377 186 CURVE SMOOTH",
"377 120 OFFCURVE",
"321 71 OFFCURVE",
"262 71 CURVE SMOOTH",
"214 71 OFFCURVE",
"183 103 OFFCURVE",
"183 147 CURVE SMOOTH",
"183 189 OFFCURVE",
"217 229 OFFCURVE",
"255 268 CURVE SMOOTH",
"489 509 LINE",
"468 609 LINE",
"460 611 LINE",
"185 327 LINE SMOOTH",
"137 277 OFFCURVE",
"101 233 OFFCURVE",
"101 179 CURVE SMOOTH",
"101 107 OFFCURVE",
"185 -2 OFFCURVE",
"300 -2 CURVE SMOOTH"
);
}
);
width = 544;
},
{
layerId = "A430B39A-257A-41FC-BEA9-652C696FFEF7";
paths = (
{
closed = 1;
nodes = (
"423 -13 OFFCURVE",
"502 65 OFFCURVE",
"502 156 CURVE SMOOTH",
"502 230 OFFCURVE",
"456 272 OFFCURVE",
"379 360 CURVE SMOOTH",
"266 489 LINE SMOOTH",
"181 587 OFFCURVE",
"142 624 OFFCURVE",
"86 624 CURVE SMOOTH",
"37 624 OFFCURVE",
"5 594 OFFCURVE",
"5 552 CURVE SMOOTH",
"5 523 OFFCURVE",
"20 488 OFFCURVE",
"45 459 CURVE",
"80 479 OFFCURVE",
"107 489 OFFCURVE",
"131 489 CURVE SMOOTH",
"169 489 OFFCURVE",
"199 462 OFFCURVE",
"243 412 CURVE SMOOTH",
"339 301 LINE SMOOTH",
"364 272 OFFCURVE",
"377 248 OFFCURVE",
"377 213 CURVE SMOOTH",
"377 155 OFFCURVE",
"324 90 OFFCURVE",
"266 90 CURVE SMOOTH",
"232 90 OFFCURVE",
"209 118 OFFCURVE",
"209 151 CURVE SMOOTH",
"209 187 OFFCURVE",
"232 225 OFFCURVE",
"284 270 CURVE SMOOTH",
"532 485 LINE",
"500 630 LINE",
"485 632 LINE",
"178 358 LINE SMOOTH",
"127 313 OFFCURVE",
"87 273 OFFCURVE",
"87 198 CURVE SMOOTH",
"87 91 OFFCURVE",
"203 -13 OFFCURVE",
"316 -13 CURVE SMOOTH"
);
}
);
width = 568;
}
);
leftKerningGroup = FOUR;
note = uni0AEA;
rightKerningGroup = FOUR;
unicode = 0AEA;
script = gujarati;
category = Number;
},
{
color = 6;
glyphname = "five-khoj";
lastChange = "2020-12-02 21:56:54 +0000";
layers = (
{
layerId = "0717401B-DDB5-4983-85F2-A81AFE530D5E";
paths = (
{
closed = 1;
nodes = (
"545 0 OFFCURVE",
"588 29 OFFCURVE",
"588 71 CURVE SMOOTH",
"588 96 OFFCURVE",
"560 117 OFFCURVE",
"525 128 CURVE",
"516 68 OFFCURVE",
"500 49 OFFCURVE",
"483 49 CURVE SMOOTH",
"472 49 OFFCURVE",
"462 56 OFFCURVE",
"462 89 CURVE SMOOTH",
"462 228 OFFCURVE",
"471 383 OFFCURVE",
"483 547 CURVE",
"459 568 OFFCURVE",
"428 585 OFFCURVE",
"391 600 CURVE",
"391 414 LINE SMOOTH",
"391 303 OFFCURVE",
"334 268 OFFCURVE",
"279 268 CURVE SMOOTH",
"234 268 OFFCURVE",
"218 291 OFFCURVE",
"218 327 CURVE SMOOTH",
"218 362 OFFCURVE",
"221 404 OFFCURVE",
"221 471 CURVE SMOOTH",
"221 536 OFFCURVE",
"142 602 OFFCURVE",
"61 602 CURVE SMOOTH",
"21 602 OFFCURVE",
"-15 587 OFFCURVE",
"-15 550 CURVE SMOOTH",
"-15 530 OFFCURVE",
"-2 507 OFFCURVE",
"20 488 CURVE",
"39 512 OFFCURVE",
"72 543 OFFCURVE",
"96 543 CURVE SMOOTH",
"113 543 OFFCURVE",
"121 530 OFFCURVE",
"125 499 CURVE SMOOTH",
"129 471 OFFCURVE",
"129 428 OFFCURVE",
"130 369 CURVE SMOOTH",
"132 278 OFFCURVE",
"222 213 OFFCURVE",
"293 213 CURVE SMOOTH",
"329 213 OFFCURVE",
"372 222 OFFCURVE",
"392 237 CURVE",
"383 246 LINE",
"380 190 OFFCURVE",
"377 141 OFFCURVE",
"377 109 CURVE SMOOTH",
"377 62 OFFCURVE",
"433 0 OFFCURVE",
"499 0 CURVE SMOOTH"
);
}
);
width = 598;
},
{
layerId = "A430B39A-257A-41FC-BEA9-652C696FFEF7";
paths = (
{
closed = 1;
nodes = (
"627 -14 OFFCURVE",
"674 21 OFFCURVE",
"674 69 CURVE SMOOTH",
"674 102 OFFCURVE",
"642 130 OFFCURVE",
"590 144 CURVE",
"585 93 OFFCURVE",
"569 60 OFFCURVE",
"550 60 CURVE SMOOTH",
"536 60 OFFCURVE",
"530 72 OFFCURVE",
"530 107 CURVE SMOOTH",
"530 226 OFFCURVE",
"540 403 OFFCURVE",
"555 556 CURVE",
"523 584 OFFCURVE",
"483 604 OFFCURVE",
"418 621 CURVE",
"418 431 LINE SMOOTH",
"418 326 OFFCURVE",
"378 278 OFFCURVE",
"319 278 CURVE SMOOTH",
"288 278 OFFCURVE",
"272 293 OFFCURVE",
"272 330 CURVE SMOOTH",
"272 362 OFFCURVE",
"276 404 OFFCURVE",
"276 459 CURVE SMOOTH",
"276 553 OFFCURVE",
"163 622 OFFCURVE",
"75 622 CURVE SMOOTH",
"11 622 OFFCURVE",
"-25 593 OFFCURVE",
"-25 547 CURVE SMOOTH",
"-25 514 OFFCURVE",
"-5 482 OFFCURVE",
"40 464 CURVE",
"62 501 OFFCURVE",
"91 532 OFFCURVE",
"111 532 CURVE SMOOTH",
"125 532 OFFCURVE",
"131 518 OFFCURVE",
"133 497 CURVE SMOOTH",
"136 466 OFFCURVE",
"133 428 OFFCURVE",
"135 380 CURVE SMOOTH",
"139 282 OFFCURVE",
"241 195 OFFCURVE",
"352 195 CURVE SMOOTH",
"377 195 OFFCURVE",
"401 199 OFFCURVE",
"427 213 CURVE",
"411 222 LINE",
"408 182 OFFCURVE",
"406 149 OFFCURVE",
"406 119 CURVE SMOOTH",
"406 53 OFFCURVE",
"478 -14 OFFCURVE",
"562 -14 CURVE SMOOTH"
);
}
);
width = 669;
}
);
leftKerningGroup = PA;
leftMetricsKey = "pa-khoj";
note = uni0AEB;
rightKerningGroup = PA;
rightMetricsKey = "pa-khoj";
unicode = 0AEB;
script = gujarati;
category = Number;
},
{
color = 6;
glyphname = "six-khoj";
lastChange = "2020-12-02 21:56:54 +0000";
layers = (
{
layerId = "0717401B-DDB5-4983-85F2-A81AFE530D5E";
paths = (
{
closed = 1;
nodes = (
"383 -99 OFFCURVE",
"435 -33 OFFCURVE",
"435 18 CURVE SMOOTH",
"435 58 OFFCURVE",
"401 85 OFFCURVE",
"369 110 CURVE SMOOTH",
"342 131 OFFCURVE",
"316 152 OFFCURVE",
"316 177 CURVE SMOOTH",
"316 215 OFFCURVE",
"378 247 OFFCURVE",
"429 262 CURVE",
"433 270 LINE",
"426 291 OFFCURVE",
"394 330 OFFCURVE",
"367 345 CURVE",
"302 325 OFFCURVE",
"233 275 OFFCURVE",
"233 209 CURVE SMOOTH",
"233 176 OFFCURVE",
"265 147 OFFCURVE",
"295 117 CURVE SMOOTH",
"321 91 OFFCURVE",
"348 67 OFFCURVE",
"348 42 CURVE SMOOTH",
"348 6 OFFCURVE",
"313 -22 OFFCURVE",
"260 -22 CURVE SMOOTH",
"203 -22 OFFCURVE",
"156 17 OFFCURVE",
"117 84 CURVE",
"108 82 LINE",
"105 20 LINE",
"150 -50 OFFCURVE",
"216 -99 OFFCURVE",
"292 -99 CURVE SMOOTH"
);
},
{
closed = 1;
nodes = (
"265 179 OFFCURVE",
"276 180 OFFCURVE",
"286 183 CURVE",
"268 276 LINE",
"245 268 OFFCURVE",
"224 265 OFFCURVE",
"206 265 CURVE SMOOTH",
"142 265 OFFCURVE",
"111 300 OFFCURVE",
"111 339 CURVE SMOOTH",
"111 398 OFFCURVE",
"178 440 OFFCURVE",
"236 470 CURVE SMOOTH",
"275 490 OFFCURVE",
"310 509 OFFCURVE",
"310 537 CURVE SMOOTH",
"310 569 OFFCURVE",
"279 602 OFFCURVE",
"253 618 CURVE",
"230 591 OFFCURVE",
"204 569 OFFCURVE",
"178 548 CURVE SMOOTH",
"102 487 OFFCURVE",
"50 445 OFFCURVE",
"50 360 CURVE SMOOTH",
"50 261 OFFCURVE",
"152 179 OFFCURVE",
"255 179 CURVE SMOOTH"
);
}
);
width = 475;
},
{
layerId = "A430B39A-257A-41FC-BEA9-652C696FFEF7";
paths = (
{
closed = 1;
nodes = (
"416 -121 OFFCURVE",
"481 -62 OFFCURVE",
"481 7 CURVE SMOOTH",
"481 56 OFFCURVE",
"448 83 OFFCURVE",
"406 112 CURVE SMOOTH",
"368 138 OFFCURVE",
"353 151 OFFCURVE",
"353 171 CURVE SMOOTH",
"353 199 OFFCURVE",
"389 231 OFFCURVE",
"467 252 CURVE",
"473 264 LINE",
"458 304 OFFCURVE",
"414 357 OFFCURVE",
"384 372 CURVE",
"277 339 OFFCURVE",
"224 265 OFFCURVE",
"224 214 CURVE SMOOTH",
"224 174 OFFCURVE",
"251 153 OFFCURVE",
"293 123 CURVE SMOOTH",
"322 102 OFFCURVE",
"350 82 OFFCURVE",
"350 58 CURVE SMOOTH",
"350 27 OFFCURVE",
"312 2 OFFCURVE",
"262 2 CURVE SMOOTH",
"216 2 OFFCURVE",
"161 25 OFFCURVE",
"115 103 CURVE",
"101 100 LINE",
"97 14 LINE",
"153 -72 OFFCURVE",
"228 -121 OFFCURVE",
"319 -121 CURVE SMOOTH"
);
},
{
closed = 1;
nodes = (
"283 156 OFFCURVE",
"305 159 OFFCURVE",
"322 165 CURVE",
"296 306 LINE",
"269 289 OFFCURVE",
"230 278 OFFCURVE",
"200 278 CURVE SMOOTH",
"159 278 OFFCURVE",
"128 297 OFFCURVE",
"128 336 CURVE SMOOTH",
"128 386 OFFCURVE",
"201 419 OFFCURVE",
"259 450 CURVE SMOOTH",
"317 481 OFFCURVE",
"347 498 OFFCURVE",
"347 535 CURVE SMOOTH",
"347 577 OFFCURVE",
"310 624 OFFCURVE",
"260 649 CURVE",
"241 618 OFFCURVE",
"218 599 OFFCURVE",
"175 565 CURVE SMOOTH",
"92 499 OFFCURVE",
"35 456 OFFCURVE",
"35 371 CURVE SMOOTH",
"35 253 OFFCURVE",
"142 156 OFFCURVE",
"262 156 CURVE SMOOTH"
);
}
);
width = 506;
}
);
leftKerningGroup = SIX;
note = uni0AEC;
rightKerningGroup = SIX;
unicode = 0AEC;
script = gujarati;
category = Number;
},
{
color = 10;
glyphname = "six-khoj.alt";
lastChange = "2020-12-02 21:56:54 +0000";
layers = (
{
layerId = "0717401B-DDB5-4983-85F2-A81AFE530D5E";
paths = (
{
closed = 1;
nodes = (
"456 -104 OFFCURVE",
"481 -61 OFFCURVE",
"481 -20 CURVE SMOOTH",
"481 44 OFFCURVE",
"434 71 OFFCURVE",
"366 79 CURVE SMOOTH",
"286 88 LINE SMOOTH",
"237 94 OFFCURVE",
"211 111 OFFCURVE",
"211 144 CURVE SMOOTH",
"211 214 OFFCURVE",
"299 245 OFFCURVE",
"418 272 CURVE",
"420 280 LINE",
"408 303 OFFCURVE",
"385 337 OFFCURVE",
"361 355 CURVE",
"296 334 OFFCURVE",
"242 299 OFFCURVE",
"194 299 CURVE SMOOTH",
"148 299 OFFCURVE",
"128 325 OFFCURVE",
"128 363 CURVE SMOOTH",
"128 428 OFFCURVE",
"187 455 OFFCURVE",
"256 478 CURVE SMOOTH",
"304 494 OFFCURVE",
"341 509 OFFCURVE",
"341 542 CURVE SMOOTH",
"341 567 OFFCURVE",
"317 603 OFFCURVE",
"297 620 CURVE",
"267 595 OFFCURVE",
"245 581 OFFCURVE",
"212 563 CURVE SMOOTH",
"126 516 OFFCURVE",
"55 482 OFFCURVE",
"55 394 CURVE SMOOTH",
"55 323 OFFCURVE",
"109 275 OFFCURVE",
"197 234 CURVE",
"176 272 LINE",
"143 245 OFFCURVE",
"123 200 OFFCURVE",
"123 161 CURVE SMOOTH",
"123 98 OFFCURVE",
"166 58 OFFCURVE",
"247 45 CURVE SMOOTH",
"296 37 LINE SMOOTH",
"344 29 OFFCURVE",
"387 21 OFFCURVE",
"387 -11 CURVE SMOOTH",
"387 -38 OFFCURVE",
"363 -70 OFFCURVE",
"331 -92 CURVE",
"331 -101 LINE",
"351 -115 OFFCURVE",
"382 -129 OFFCURVE",
"417 -139 CURVE"
);
}
);
width = 481;
},
{
layerId = "A430B39A-257A-41FC-BEA9-652C696FFEF7";
paths = (
{
closed = 1;
nodes = (
"495 -140 OFFCURVE",
"528 -89 OFFCURVE",
"528 -38 CURVE SMOOTH",
"528 32 OFFCURVE",
"471 62 OFFCURVE",
"383 73 CURVE SMOOTH",
"333 79 LINE SMOOTH",
"275 86 OFFCURVE",
"244 100 OFFCURVE",
"244 133 CURVE SMOOTH",
"244 179 OFFCURVE",
"296 218 OFFCURVE",
"451 253 CURVE",
"456 266 LINE",
"441 302 OFFCURVE",
"396 356 OFFCURVE",
"372 372 CURVE",
"297 351 OFFCURVE",
"234 308 OFFCURVE",
"184 308 CURVE SMOOTH",
"156 308 OFFCURVE",
"137 325 OFFCURVE",
"137 353 CURVE SMOOTH",
"137 401 OFFCURVE",
"186 424 OFFCURVE",
"257 449 CURVE SMOOTH",
"326 473 OFFCURVE",
"375 491 OFFCURVE",
"375 544 CURVE SMOOTH",
"375 574 OFFCURVE",
"341 628 OFFCURVE",
"306 648 CURVE",
"281 619 OFFCURVE",
"259 606 OFFCURVE",
"210 582 CURVE SMOOTH",
"122 539 OFFCURVE",
"35 493 OFFCURVE",
"35 398 CURVE SMOOTH",
"35 337 OFFCURVE",
"71 284 OFFCURVE",
"164 229 CURVE",
"161 263 LINE",
"128 236 OFFCURVE",
"107 194 OFFCURVE",
"107 155 CURVE SMOOTH",
"107 90 OFFCURVE",
"146 44 OFFCURVE",
"241 27 CURVE SMOOTH",
"295 17 LINE SMOOTH",
"362 5 OFFCURVE",
"378 -8 OFFCURVE",
"378 -33 CURVE SMOOTH",
"378 -59 OFFCURVE",
"357 -87 OFFCURVE",
"314 -114 CURVE",
"315 -125 LINE",
"341 -140 OFFCURVE",
"406 -170 OFFCURVE",
"458 -180 CURVE"
);
}
);
width = 513;
}
);
leftKerningGroup = SIX;
note = uni0AEC;
rightKerningGroup = SIX;
script = khoj;
category = Letter;
},
{
color = 6;
glyphname = "seven-khoj";
lastChange = "2020-12-02 21:56:54 +0000";
layers = (
{
layerId = "0717401B-DDB5-4983-85F2-A81AFE530D5E";
paths = (
{
closed = 1;
nodes = (
"482 16 OFFCURVE",
"558 143 OFFCURVE",
"558 301 CURVE SMOOTH",
"558 483 OFFCURVE",
"456 600 OFFCURVE",
"360 600 CURVE SMOOTH",
"276 600 OFFCURVE",
"214 514 OFFCURVE",
"214 431 CURVE SMOOTH",
"214 344 OFFCURVE",
"282 279 OFFCURVE",
"362 279 CURVE SMOOTH",
"414 279 OFFCURVE",
"475 310 OFFCURVE",
"498 362 CURVE",
"487 405 LINE",
"463 365 OFFCURVE",
"410 341 OFFCURVE",
"368 341 CURVE SMOOTH",
"327 341 OFFCURVE",
"301 362 OFFCURVE",
"301 407 CURVE SMOOTH",
"301 463 OFFCURVE",
"342 524 OFFCURVE",
"392 524 CURVE SMOOTH",
"454 524 OFFCURVE",
"486 433 OFFCURVE",
"486 337 CURVE SMOOTH",
"486 190 OFFCURVE",
"412 106 OFFCURVE",
"313 106 CURVE SMOOTH",
"175 106 OFFCURVE",
"115 269 OFFCURVE",
"115 450 CURVE SMOOTH",
"115 483 OFFCURVE",
"117 518 OFFCURVE",
"120 550 CURVE",
"115 555 LINE",
"61 527 LINE",
"57 502 OFFCURVE",
"55 467 OFFCURVE",
"55 434 CURVE SMOOTH",
"55 212 OFFCURVE",
"147 16 OFFCURVE",
"332 16 CURVE SMOOTH"
);
}
);
width = 613;
},
{
layerId = "A430B39A-257A-41FC-BEA9-652C696FFEF7";
paths = (
{
closed = 1;
nodes = (
"500 -6 OFFCURVE",
"591 115 OFFCURVE",
"591 293 CURVE SMOOTH",
"591 470 OFFCURVE",
"497 622 OFFCURVE",
"372 622 CURVE SMOOTH",
"278 622 OFFCURVE",
"198 533 OFFCURVE",
"198 424 CURVE SMOOTH",
"198 327 OFFCURVE",
"273 263 OFFCURVE",
"363 263 CURVE SMOOTH",
"427 263 OFFCURVE",
"479 295 OFFCURVE",
"506 345 CURVE",
"492 417 LINE",
"476 378 OFFCURVE",
"422 345 OFFCURVE",
"378 345 CURVE SMOOTH",
"347 345 OFFCURVE",
"326 361 OFFCURVE",
"326 395 CURVE SMOOTH",
"326 447 OFFCURVE",
"372 506 OFFCURVE",
"412 506 CURVE SMOOTH",
"460 506 OFFCURVE",
"486 435 OFFCURVE",
"486 346 CURVE SMOOTH",
"486 211 OFFCURVE",
"415 128 OFFCURVE",
"320 128 CURVE SMOOTH",
"204 128 OFFCURVE",
"122 229 OFFCURVE",
"122 452 CURVE SMOOTH",
"122 487 OFFCURVE",
"124 522 OFFCURVE",
"128 567 CURVE",
"122 572 LINE",
"48 532 LINE",
"43 506 OFFCURVE",
"40 465 OFFCURVE",
"40 424 CURVE SMOOTH",
"40 167 OFFCURVE",
"161 -6 OFFCURVE",
"351 -6 CURVE SMOOTH"
);
}
);
width = 625;
}
);
leftKerningGroup = SEVEN;
note = uni0AED;
rightKerningGroup = SEVEN;
unicode = 0AED;
script = gujarati;
category = Number;
},
{
color = 6;
glyphname = "eight-khoj";
lastChange = "2020-12-02 21:56:54 +0000";
layers = (
{
layerId = "0717401B-DDB5-4983-85F2-A81AFE530D5E";
paths = (
{
closed = 1;
nodes = (
"385 12 OFFCURVE",
"501 74 OFFCURVE",
"501 132 CURVE SMOOTH",
"501 157 OFFCURVE",
"475 195 OFFCURVE",
"449 214 CURVE",
"402 138 OFFCURVE",
"328 86 OFFCURVE",
"237 86 CURVE SMOOTH",
"171 86 OFFCURVE",
"126 121 OFFCURVE",
"126 168 CURVE SMOOTH",
"126 196 OFFCURVE",
"150 225 OFFCURVE",
"187 264 CURVE SMOOTH",
"413 503 LINE",
"380 603 LINE",
"369 605 LINE",
"118 328 LINE SMOOTH",
"71 276 OFFCURVE",
"35 242 OFFCURVE",
"35 188 CURVE SMOOTH",
"35 99 OFFCURVE",
"154 12 OFFCURVE",
"289 12 CURVE SMOOTH"
);
}
);
width = 521;
},
{
layerId = "A430B39A-257A-41FC-BEA9-652C696FFEF7";
paths = (
{
closed = 1;
nodes = (
"424 -4 OFFCURVE",
"542 67 OFFCURVE",
"542 135 CURVE SMOOTH",
"542 172 OFFCURVE",
"501 225 OFFCURVE",
"466 247 CURVE",
"408 159 OFFCURVE",
"318 98 OFFCURVE",
"233 98 CURVE SMOOTH",
"179 98 OFFCURVE",
"152 124 OFFCURVE",
"152 156 CURVE SMOOTH",
"152 181 OFFCURVE",
"168 206 OFFCURVE",
"202 242 CURVE SMOOTH",
"442 495 LINE",
"391 641 LINE",
"376 643 LINE",
"103 352 LINE SMOOTH",
"54 300 OFFCURVE",
"20 258 OFFCURVE",
"20 201 CURVE SMOOTH",
"20 95 OFFCURVE",
"146 -4 OFFCURVE",
"303 -4 CURVE SMOOTH"
);
}
);
width = 547;
}
);
leftKerningGroup = EIGHT;
note = uni0AEE;
rightKerningGroup = EIGHT;
unicode = 0AEE;
script = gujarati;
category = Number;
},
{
color = 6;
glyphname = "nine-khoj";
lastChange = "2020-12-02 21:56:54 +0000";
layers = (
{
layerId = "0717401B-DDB5-4983-85F2-A81AFE530D5E";
paths = (
{
closed = 1;
nodes = (
"381 14 OFFCURVE",
"427 25 OFFCURVE",
"467 46 CURVE SMOOTH",
"512 70 OFFCURVE",
"544 101 OFFCURVE",
"544 132 CURVE SMOOTH",
"544 157 OFFCURVE",
"518 195 OFFCURVE",
"492 214 CURVE",
"450 138 OFFCURVE",
"370 94 OFFCURVE",
"293 94 CURVE SMOOTH",
"195 94 OFFCURVE",
"119 205 OFFCURVE",
"119 291 CURVE SMOOTH",
"119 358 OFFCURVE",
"169 410 OFFCURVE",
"212 450 CURVE SMOOTH",
"243 479 OFFCURVE",
"269 504 OFFCURVE",
"269 531 CURVE SMOOTH",
"269 562 OFFCURVE",
"235 594 OFFCURVE",
"205 609 CURVE",
"184 570 OFFCURVE",
"160 537 OFFCURVE",
"137 507 CURVE SMOOTH",
"92 448 OFFCURVE",
"50 401 OFFCURVE",
"50 326 CURVE SMOOTH",
"50 193 OFFCURVE",
"190 14 OFFCURVE",
"336 14 CURVE SMOOTH"
);
},
{
closed = 1;
nodes = (
"332 251 OFFCURVE",
"409 351 OFFCURVE",
"470 437 CURVE",
"450 552 LINE",
"439 554 LINE",
"385 466 OFFCURVE",
"299 356 OFFCURVE",
"206 244 CURVE",
"241 158 LINE",
"253 157 LINE"
);
}
);
visible = 1;
width = 569;
},
{
layerId = "A430B39A-257A-41FC-BEA9-652C696FFEF7";
paths = (
{
closed = 1;
nodes = (
"401 -8 OFFCURVE",
"450 2 OFFCURVE",
"493 24 CURVE SMOOTH",
"553 55 OFFCURVE",
"587 91 OFFCURVE",
"587 131 CURVE SMOOTH",
"587 166 OFFCURVE",
"557 206 OFFCURVE",
"512 240 CURVE",
"470 169 OFFCURVE",
"388 103 OFFCURVE",
"307 103 CURVE SMOOTH",
"207 103 OFFCURVE",
"141 196 OFFCURVE",
"141 279 CURVE SMOOTH",
"141 333 OFFCURVE",
"170 381 OFFCURVE",
"227 430 CURVE SMOOTH",
"276 472 OFFCURVE",
"303 495 OFFCURVE",
"303 535 CURVE SMOOTH",
"303 574 OFFCURVE",
"260 625 OFFCURVE",
"205 644 CURVE",
"183 598 OFFCURVE",
"161 567 OFFCURVE",
"128 527 CURVE SMOOTH",
"76 464 OFFCURVE",
"35 411 OFFCURVE",
"35 329 CURVE SMOOTH",
"35 171 OFFCURVE",
"184 -8 OFFCURVE",
"351 -8 CURVE SMOOTH"
);
},
{
closed = 1;
nodes = (
"361 239 OFFCURVE",
"437 332 OFFCURVE",
"505 425 CURVE",
"472 586 LINE",
"456 587 LINE",
"408 507 OFFCURVE",
"302 364 OFFCURVE",
"215 264 CURVE",
"260 147 LINE",
"279 146 LINE"
);
}
);
width = 597;
}
);
leftKerningGroup = NINE;
note = uni0AEF;
rightKerningGroup = TWO;
unicode = 0AEF;
script = gujarati;
category = Number;
},
{
color = 8;
glyphname = "a-khoj";
lastChange = "2020-12-02 21:56:54 +0000";
layers = (
{
anchors = (
{
name = nukta;
position = "{551, 516}";
},
{
name = right;
position = "{986, 356}";
},
{
name = top;
position = "{840, 551}";
}
);
layerId = "0717401B-DDB5-4983-85F2-A81AFE530D5E";
paths = (
{
closed = 1;
nodes = (
"783 71 LINE",
"841 166 OFFCURVE",
"890 269 OFFCURVE",
"890 383 CURVE SMOOTH",
"890 468 OFFCURVE",
"814 550 OFFCURVE",
"769 550 CURVE SMOOTH",
"724 550 OFFCURVE",
"607 442 OFFCURVE",
"534 372 CURVE",
"555 350 LINE",
"532 449 LINE SMOOTH",
"523 488 OFFCURVE",
"504 511 OFFCURVE",
"461 511 CURVE SMOOTH",
"372 511 OFFCURVE",
"184 489 OFFCURVE",
"131 489 CURVE SMOOTH",
"96 489 OFFCURVE",
"84 497 OFFCURVE",
"84 519 CURVE SMOOTH",
"84 536 OFFCURVE",
"91 556 OFFCURVE",
"96 568 CURVE",
"81 577 OFFCURVE",
"64 582 OFFCURVE",
"41 582 CURVE SMOOTH",
"10 582 OFFCURVE",
"-16 567 OFFCURVE",
"-16 539 CURVE SMOOTH",
"-16 502 OFFCURVE",
"21 482 OFFCURVE",
"56 461 CURVE SMOOTH",
"106 431 OFFCURVE",
"160 410 OFFCURVE",
"182 410 CURVE SMOOTH",
"466 410 LINE SMOOTH",
"500 410 OFFCURVE",
"503 399 OFFCURVE",
"511 365 CURVE SMOOTH",
"533 261 LINE",
"558 257 LINE",
"608 310 OFFCURVE",
"759 458 OFFCURVE",
"795 458 CURVE SMOOTH",
"818 458 OFFCURVE",
"835 434 OFFCURVE",
"835 398 CURVE SMOOTH",
"835 314 OFFCURVE",
"748 202 OFFCURVE",
"691 149 CURVE",
"700 121 OFFCURVE",
"732 78 OFFCURVE",
"749 64 CURVE"
);
}
);
width = 940;
},
{
anchors = (
{
name = nukta;
position = "{596, 528}";
},
{
name = right;
position = "{1080, 356}";
},
{
name = top;
position = "{936, 566}";
}
);
layerId = "A430B39A-257A-41FC-BEA9-652C696FFEF7";
paths = (
{
closed = 1;
nodes = (
"868 51 LINE",
"928 132 OFFCURVE",
"982 259 OFFCURVE",
"982 373 CURVE SMOOTH",
"982 489 OFFCURVE",
"884 579 OFFCURVE",
"823 579 CURVE SMOOTH",
"766 579 OFFCURVE",
"657 491 OFFCURVE",
"571 408 CURVE",
"597 371 LINE",
"575 457 LINE SMOOTH",
"562 509 OFFCURVE",
"547 537 OFFCURVE",
"487 537 CURVE SMOOTH",
"414 537 OFFCURVE",
"217 502 OFFCURVE",
"151 502 CURVE SMOOTH",
"125 502 OFFCURVE",
"114 511 OFFCURVE",
"114 533 CURVE SMOOTH",
"114 550 OFFCURVE",
"120 571 OFFCURVE",
"128 586 CURVE",
"108 601 OFFCURVE",
"83 608 OFFCURVE",
"56 608 CURVE SMOOTH",
"10 608 OFFCURVE",
"-20 587 OFFCURVE",
"-20 552 CURVE SMOOTH",
"-20 512 OFFCURVE",
"21 483 OFFCURVE",
"64 457 CURVE SMOOTH",
"117 425 OFFCURVE",
"191 395 OFFCURVE",
"236 395 CURVE SMOOTH",
"513 395 LINE SMOOTH",
"539 395 OFFCURVE",
"546 389 OFFCURVE",
"553 360 CURVE SMOOTH",
"579 247 LINE",
"606 242 LINE",
"668 308 OFFCURVE",
"824 456 OFFCURVE",
"867 456 CURVE SMOOTH",
"883 456 OFFCURVE",
"897 438 OFFCURVE",
"897 411 CURVE SMOOTH",
"897 348 OFFCURVE",
"827 242 OFFCURVE",
"736 155 CURVE",
"749 118 OFFCURVE",
"797 60 OFFCURVE",
"824 41 CURVE"
);
}
);
width = 1022;
}
);
leftKerningGroup = A;
note = kj_A;
rightKerningGroup = NNA;
unicode = 11200;
script = khoj;
category = Letter;
},
{
color = 8;
glyphname = "i-khoj";
lastChange = "2020-12-02 21:56:54 +0000";
layers = (
{
anchors = (
{
name = nukta;
position = "{351, 896}";
},
{
name = top;
position = "{119, 642}";
}
);
layerId = "0717401B-DDB5-4983-85F2-A81AFE530D5E";
paths = (
{
closed = 1;
nodes = (
"821 -240 OFFCURVE",
"859 -222 OFFCURVE",
"860 -186 CURVE SMOOTH",
"861 -157 OFFCURVE",
"837 -133 OFFCURVE",
"806 -114 CURVE",
"794 -139 OFFCURVE",
"764 -158 OFFCURVE",
"730 -158 CURVE SMOOTH",
"697 -158 OFFCURVE",
"676 -141 OFFCURVE",
"676 -56 CURVE SMOOTH",
"676 85 OFFCURVE",
"724 417 OFFCURVE",
"724 548 CURVE SMOOTH",
"724 749 OFFCURVE",
"588 895 OFFCURVE",
"435 895 CURVE SMOOTH",
"312 895 OFFCURVE",
"228 800 OFFCURVE",
"228 686 CURVE SMOOTH",
"228 563 OFFCURVE",
"325 445 OFFCURVE",
"423 445 CURVE SMOOTH",
"483 445 OFFCURVE",
"507 490 OFFCURVE",
"507 528 CURVE SMOOTH",
"507 575 OFFCURVE",
"470 599 OFFCURVE",
"398 605 CURVE",
"364 521 LINE",
"319 543 OFFCURVE",
"297 590 OFFCURVE",
"297 641 CURVE SMOOTH",
"297 738 OFFCURVE",
"375 809 OFFCURVE",
"476 809 CURVE SMOOTH",
"586 809 OFFCURVE",
"640 725 OFFCURVE",
"640 582 CURVE SMOOTH",
"640 437 OFFCURVE",
"594 124 OFFCURVE",
"594 5 CURVE SMOOTH",
"594 -138 OFFCURVE",
"675 -240 OFFCURVE",
"778 -240 CURVE SMOOTH"
);
},
{
closed = 1;
nodes = (
"443 -4 OFFCURVE",
"516 65 OFFCURVE",
"516 163 CURVE SMOOTH",
"516 264 OFFCURVE",
"431 365 OFFCURVE",
"369 365 CURVE SMOOTH",
"334 365 OFFCURVE",
"277 337 OFFCURVE",
"252 337 CURVE SMOOTH",
"241 337 OFFCURVE",
"236 340 OFFCURVE",
"231 349 CURVE SMOOTH",
"221 369 LINE",
"190 359 LINE",
"240 256 LINE SMOOTH",
"245 246 OFFCURVE",
"251 237 OFFCURVE",
"266 237 CURVE SMOOTH",
"291 237 OFFCURVE",
"363 272 OFFCURVE",
"406 272 CURVE SMOOTH",
"437 272 OFFCURVE",
"451 245 OFFCURVE",
"451 215 CURVE SMOOTH",
"451 140 OFFCURVE",
"379 92 OFFCURVE",
"302 92 CURVE SMOOTH",
"203 92 OFFCURVE",
"139 178 OFFCURVE",
"84 298 CURVE",
"79 299 LINE",
"51 261 LINE",
"110 111 OFFCURVE",
"208 -4 OFFCURVE",
"338 -4 CURVE SMOOTH"
);
},
{
closed = 1;
nodes = (
"155 415 OFFCURVE",
"185 444 OFFCURVE",
"185 490 CURVE SMOOTH",
"185 539 OFFCURVE",
"155 570 OFFCURVE",
"107 570 CURVE SMOOTH",
"60 570 OFFCURVE",
"30 539 OFFCURVE",
"30 490 CURVE SMOOTH",
"30 444 OFFCURVE",
"60 415 OFFCURVE",
"107 415 CURVE SMOOTH"
);
}
);
width = 795;
},
{
anchors = (
{
name = nukta;
position = "{387, 896}";
},
{
name = top;
position = "{155, 642}";
}
);
layerId = "A430B39A-257A-41FC-BEA9-652C696FFEF7";
paths = (
{
closed = 1;
nodes = (
"892 -262 OFFCURVE",
"936 -234 OFFCURVE",
"937 -189 CURVE SMOOTH",
"938 -152 OFFCURVE",
"911 -122 OFFCURVE",
"874 -101 CURVE",
"852 -135 OFFCURVE",
"824 -157 OFFCURVE",
"790 -157 CURVE SMOOTH",
"752 -157 OFFCURVE",
"739 -136 OFFCURVE",
"739 -70 CURVE SMOOTH",
"739 81 OFFCURVE",
"788 380 OFFCURVE",
"788 523 CURVE SMOOTH",
"788 719 OFFCURVE",
"651 917 OFFCURVE",
"459 917 CURVE SMOOTH",
"333 917 OFFCURVE",
"227 829 OFFCURVE",
"227 691 CURVE SMOOTH",
"227 565 OFFCURVE",
"341 443 OFFCURVE",
"456 443 CURVE SMOOTH",
"520 443 OFFCURVE",
"561 487 OFFCURVE",
"561 543 CURVE SMOOTH",
"561 604 OFFCURVE",
"510 639 OFFCURVE",
"426 647 CURVE",
"383 552 LINE",
"352 571 OFFCURVE",
"339 599 OFFCURVE",
"339 637 CURVE SMOOTH",
"339 727 OFFCURVE",
"418 799 OFFCURVE",
"518 799 CURVE SMOOTH",
"613 799 OFFCURVE",
"658 730 OFFCURVE",
"658 593 CURVE SMOOTH",
"658 422 OFFCURVE",
"612 116 OFFCURVE",
"612 16 CURVE SMOOTH",
"612 -128 OFFCURVE",
"711 -262 OFFCURVE",
"835 -262 CURVE SMOOTH"
);
},
{
closed = 1;
nodes = (
"495 -28 OFFCURVE",
"568 53 OFFCURVE",
"568 160 CURVE SMOOTH",
"568 279 OFFCURVE",
"475 390 OFFCURVE",
"403 390 CURVE SMOOTH",
"367 390 OFFCURVE",
"293 361 OFFCURVE",
"276 361 CURVE SMOOTH",
"272 361 OFFCURVE",
"265 363 OFFCURVE",
"261 371 CURVE SMOOTH",
"247 398 LINE",
"195 378 LINE",
"257 243 LINE SMOOTH",
"262 232 OFFCURVE",
"272 215 OFFCURVE",
"296 215 CURVE SMOOTH",
"330 215 OFFCURVE",
"416 251 OFFCURVE",
"445 251 CURVE SMOOTH",
"466 251 OFFCURVE",
"476 233 OFFCURVE",
"476 210 CURVE SMOOTH",
"476 156 OFFCURVE",
"414 114 OFFCURVE",
"338 114 CURVE SMOOTH",
"247 114 OFFCURVE",
"181 167 OFFCURVE",
"116 319 CURVE",
"105 320 LINE",
"61 263 LINE",
"131 78 OFFCURVE",
"243 -28 OFFCURVE",
"376 -28 CURVE SMOOTH"
);
},
{
closed = 1;
nodes = (
"181 407 OFFCURVE",
"220 445 OFFCURVE",
"220 503 CURVE SMOOTH",
"220 561 OFFCURVE",
"182 602 OFFCURVE",
"122 602 CURVE SMOOTH",
"64 602 OFFCURVE",
"25 562 OFFCURVE",
"25 502 CURVE SMOOTH",
"25 445 OFFCURVE",
"64 407 OFFCURVE",
"122 407 CURVE SMOOTH"
);
}
);
width = 857;
}
);
leftKerningGroup = GA;
leftMetricsKey = "ga-khoj";
note = kj_I;
rightKerningGroup = II;
unicode = 11202;
script = khoj;
category = Letter;
},
{
color = 8;
glyphname = "u-khoj";
lastChange = "2020-12-02 21:56:54 +0000";
layers = (
{
anchors = (
{
name = nukta;
position = "{372, 866}";
},
{
name = top;
position = "{213, 764}";
}
);
layerId = "0717401B-DDB5-4983-85F2-A81AFE530D5E";
paths = (
{
closed = 1;
nodes = (
"375 239 OFFCURVE",
"447 323 OFFCURVE",
"447 415 CURVE SMOOTH",
"447 506 OFFCURVE",
"370 591 OFFCURVE",
"272 591 CURVE SMOOTH",
"238 591 OFFCURVE",
"204 581 OFFCURVE",
"174 566 CURVE",
"154 474 LINE",
"183 503 OFFCURVE",
"245 527 OFFCURVE",
"289 527 CURVE SMOOTH",
"341 527 OFFCURVE",
"367 492 OFFCURVE",
"367 445 CURVE SMOOTH",
"367 378 OFFCURVE",
"312 319 OFFCURVE",
"253 319 CURVE SMOOTH",
"194 319 OFFCURVE",
"164 378 OFFCURVE",
"164 445 CURVE SMOOTH",
"164 544 OFFCURVE",
"228 653 OFFCURVE",
"328 728 CURVE SMOOTH",
"413 792 OFFCURVE",
"509 821 OFFCURVE",
"602 821 CURVE SMOOTH",
"667 821 OFFCURVE",
"723 807 OFFCURVE",
"771 781 CURVE",
"778 787 LINE",
"738 863 LINE",
"687 886 OFFCURVE",
"632 895 OFFCURVE",
"575 895 CURVE SMOOTH",
"458 895 OFFCURVE",
"354 857 OFFCURVE",
"265 788 CURVE SMOOTH",
"152 700 OFFCURVE",
"93 582 OFFCURVE",
"93 471 CURVE SMOOTH",
"93 340 OFFCURVE",
"176 239 OFFCURVE",
"280 239 CURVE SMOOTH"
);
},
{
closed = 1;
nodes = (
"548 17 OFFCURVE",
"653 167 OFFCURVE",
"653 340 CURVE SMOOTH",
"653 441 OFFCURVE",
"617 527 OFFCURVE",
"546 595 CURVE",
"536 593 LINE",
"500 473 LINE",
"556 446 OFFCURVE",
"597 423 OFFCURVE",
"597 358 CURVE SMOOTH",
"597 300 OFFCURVE",
"570 239 OFFCURVE",
"525 191 CURVE SMOOTH",
"471 133 OFFCURVE",
"402 108 OFFCURVE",
"323 108 CURVE SMOOTH",
"223 108 OFFCURVE",
"121 153 OFFCURVE",
"56 236 CURVE",
"48 232 LINE",
"55 159 LINE",
"131 71 OFFCURVE",
"248 17 OFFCURVE",
"361 17 CURVE SMOOTH"
);
}
);
width = 718;
},
{
anchors = (
{
name = nukta;
position = "{381, 866}";
},
{
name = top;
position = "{222, 764}";
}
);
layerId = "A430B39A-257A-41FC-BEA9-652C696FFEF7";
paths = (
{
closed = 1;
nodes = (
"391 217 OFFCURVE",
"474 307 OFFCURVE",
"474 417 CURVE SMOOTH",
"474 525 OFFCURVE",
"381 612 OFFCURVE",
"273 612 CURVE SMOOTH",
"245 612 OFFCURVE",
"209 605 OFFCURVE",
"181 593 CURVE",
"158 459 LINE",
"207 502 OFFCURVE",
"259 518 OFFCURVE",
"294 518 CURVE SMOOTH",
"334 518 OFFCURVE",
"353 493 OFFCURVE",
"353 454 CURVE SMOOTH",
"353 392 OFFCURVE",
"308 333 OFFCURVE",
"250 333 CURVE SMOOTH",
"206 333 OFFCURVE",
"175 371 OFFCURVE",
"175 447 CURVE SMOOTH",
"175 558 OFFCURVE",
"246 656 OFFCURVE",
"342 724 CURVE SMOOTH",
"426 783 OFFCURVE",
"529 810 OFFCURVE",
"630 810 CURVE SMOOTH",
"685 810 OFFCURVE",
"739 803 OFFCURVE",
"791 787 CURVE",
"803 803 LINE",
"730 900 LINE",
"683 912 OFFCURVE",
"633 918 OFFCURVE",
"584 918 CURVE SMOOTH",
"463 918 OFFCURVE",
"342 881 OFFCURVE",
"244 807 CURVE SMOOTH",
"131 722 OFFCURVE",
"66 606 OFFCURVE",
"66 476 CURVE SMOOTH",
"66 321 OFFCURVE",
"172 217 OFFCURVE",
"289 217 CURVE SMOOTH"
);
},
{
closed = 1;
nodes = (
"572 -16 OFFCURVE",
"700 142 OFFCURVE",
"700 330 CURVE SMOOTH",
"700 441 OFFCURVE",
"659 539 OFFCURVE",
"568 628 CURVE",
"549 626 LINE",
"510 455 LINE",
"587 434 OFFCURVE",
"609 409 OFFCURVE",
"609 360 CURVE SMOOTH",
"609 302 OFFCURVE",
"574 232 OFFCURVE",
"523 186 CURVE SMOOTH",
"469 138 OFFCURVE",
"398 110 OFFCURVE",
"310 110 CURVE SMOOTH",
"204 110 OFFCURVE",
"104 168 OFFCURVE",
"38 256 CURVE",
"24 250 LINE",
"34 155 LINE",
"114 55 OFFCURVE",
"240 -16 OFFCURVE",
"374 -16 CURVE SMOOTH"
);
}
);
width = 738;
}
);
leftKerningGroup = KU;
note = kj_U;
rightKerningGroup = U;
unicode = 11203;
script = khoj;
category = Letter;
},
{
color = 8;
glyphname = "e-khoj";
lastChange = "2020-12-02 21:56:54 +0000";
layers = (
{
anchors = (
{
name = nukta;
position = "{203, 556}";
},
{
name = top;
position = "{355, 621}";
}
);
layerId = "0717401B-DDB5-4983-85F2-A81AFE530D5E";
paths = (
{
closed = 1;
nodes = (
"562 -2 OFFCURVE",
"600 29 OFFCURVE",
"600 62 CURVE SMOOTH",
"600 89 OFFCURVE",
"575 112 OFFCURVE",
"543 126 CURVE",
"531 90 OFFCURVE",
"510 52 OFFCURVE",
"475 52 CURVE SMOOTH",
"456 52 OFFCURVE",
"438 63 OFFCURVE",
"438 129 CURVE SMOOTH",
"438 176 OFFCURVE",
"449 263 OFFCURVE",
"466 364 CURVE SMOOTH",
"514 650 LINE SMOOTH",
"531 754 OFFCURVE",
"582 812 OFFCURVE",
"661 812 CURVE SMOOTH",
"723 812 OFFCURVE",
"779 776 OFFCURVE",
"821 718 CURVE",
"830 719 LINE",
"832 790 LINE",
"783 855 OFFCURVE",
"713 895 OFFCURVE",
"634 895 CURVE SMOOTH",
"541 895 OFFCURVE",
"456 830 OFFCURVE",
"433 684 CURVE SMOOTH",
"396 452 LINE SMOOTH",
"375 320 OFFCURVE",
"324 280 OFFCURVE",
"268 280 CURVE SMOOTH",
"231 280 OFFCURVE",
"214 299 OFFCURVE",
"214 340 CURVE SMOOTH",
"214 379 OFFCURVE",
"221 429 OFFCURVE",
"221 462 CURVE SMOOTH",
"221 540 OFFCURVE",
"142 602 OFFCURVE",
"61 602 CURVE SMOOTH",
"15 602 OFFCURVE",
"-15 583 OFFCURVE",
"-15 551 CURVE SMOOTH",
"-15 530 OFFCURVE",
"-2 507 OFFCURVE",
"20 488 CURVE",
"39 512 OFFCURVE",
"72 543 OFFCURVE",
"97 543 CURVE SMOOTH",
"123 543 OFFCURVE",
"126 511 OFFCURVE",
"126 487 CURVE SMOOTH",
"126 452 OFFCURVE",
"120 408 OFFCURVE",
"120 385 CURVE SMOOTH",
"120 296 OFFCURVE",
"211 223 OFFCURVE",
"297 223 CURVE SMOOTH",
"327 223 OFFCURVE",
"354 232 OFFCURVE",
"374 247 CURVE",
"365 256 LINE",
"359 217 OFFCURVE",
"354 174 OFFCURVE",
"354 146 CURVE SMOOTH",
"354 58 OFFCURVE",
"433 -2 OFFCURVE",
"507 -2 CURVE SMOOTH"
);
}
);
width = 622;
},
{
anchors = (
{
name = nukta;
position = "{203, 556}";
},
{
name = top;
position = "{355, 621}";
}
);
layerId = "A430B39A-257A-41FC-BEA9-652C696FFEF7";
paths = (
{
closed = 1;
nodes = (
"637 -14 OFFCURVE",
"683 18 OFFCURVE",
"683 63 CURVE SMOOTH",
"683 97 OFFCURVE",
"658 125 OFFCURVE",
"608 143 CURVE",
"588 95 OFFCURVE",
"566 65 OFFCURVE",
"542 65 CURVE SMOOTH",
"522 65 OFFCURVE",
"513 81 OFFCURVE",
"513 126 CURVE SMOOTH",
"513 176 OFFCURVE",
"523 250 OFFCURVE",
"537 338 CURVE SMOOTH",
"584 636 LINE SMOOTH",
"601 747 OFFCURVE",
"653 799 OFFCURVE",
"729 799 CURVE SMOOTH",
"788 799 OFFCURVE",
"837 766 OFFCURVE",
"885 707 CURVE",
"898 711 LINE",
"897 803 LINE",
"843 870 OFFCURVE",
"769 917 OFFCURVE",
"681 917 CURVE SMOOTH",
"573 917 OFFCURVE",
"486 841 OFFCURVE",
"462 679 CURVE SMOOTH",
"430 467 LINE SMOOTH",
"411 342 OFFCURVE",
"371 286 OFFCURVE",
"310 286 CURVE SMOOTH",
"282 286 OFFCURVE",
"269 300 OFFCURVE",
"269 330 CURVE SMOOTH",
"269 363 OFFCURVE",
"276 437 OFFCURVE",
"276 461 CURVE SMOOTH",
"276 546 OFFCURVE",
"163 622 OFFCURVE",
"75 622 CURVE SMOOTH",
"11 622 OFFCURVE",
"-25 593 OFFCURVE",
"-25 547 CURVE SMOOTH",
"-25 514 OFFCURVE",
"-5 482 OFFCURVE",
"40 464 CURVE",
"62 501 OFFCURVE",
"91 532 OFFCURVE",
"112 532 CURVE SMOOTH",
"126 532 OFFCURVE",
"133 519 OFFCURVE",
"133 493 CURVE SMOOTH",
"133 465 OFFCURVE",
"126 416 OFFCURVE",
"126 389 CURVE SMOOTH",
"126 291 OFFCURVE",
"232 202 OFFCURVE",
"343 202 CURVE SMOOTH",
"368 202 OFFCURVE",
"392 206 OFFCURVE",
"418 220 CURVE",
"397 250 LINE",
"390 206 OFFCURVE",
"386 167 OFFCURVE",
"386 145 CURVE SMOOTH",
"386 54 OFFCURVE",
"478 -14 OFFCURVE",
"573 -14 CURVE SMOOTH"
);
}
);
width = 678;
}
);
leftKerningGroup = PA;
leftMetricsKey = "pa-khoj";
note = kj_E;
rightKerningGroup = E;
unicode = 11204;
script = khoj;
category = Letter;
},
{
color = 8;
glyphname = "o-khoj";
lastChange = "2020-12-02 21:56:54 +0000";
layers = (
{
anchors = (
{
name = nukta;
position = "{336, 866}";
},
{
name = top;
position = "{217, 804}";
}
);
layerId = "0717401B-DDB5-4983-85F2-A81AFE530D5E";
paths = (
{
closed = 1;
nodes = (
"358 167 OFFCURVE",
"433 251 OFFCURVE",
"433 348 CURVE SMOOTH",
"433 448 OFFCURVE",
"350 544 OFFCURVE",
"251 544 CURVE SMOOTH",
"204 544 OFFCURVE",
"156 526 OFFCURVE",
"127 507 CURVE",
"113 403 LINE",
"138 437 OFFCURVE",
"209 469 OFFCURVE",
"267 469 CURVE SMOOTH",
"321 469 OFFCURVE",
"352 435 OFFCURVE",
"352 379 CURVE SMOOTH",
"352 303 OFFCURVE",
"291 248 OFFCURVE",
"228 248 CURVE SMOOTH",
"166 248 OFFCURVE",
"124 300 OFFCURVE",
"124 399 CURVE SMOOTH",
"124 616 OFFCURVE",
"327 820 OFFCURVE",
"577 820 CURVE SMOOTH",
"634 820 OFFCURVE",
"683 810 OFFCURVE",
"725 793 CURVE",
"732 800 LINE",
"680 875 LINE",
"646 887 OFFCURVE",
"594 895 OFFCURVE",
"543 895 CURVE SMOOTH",
"275 895 OFFCURVE",
"45 670 OFFCURVE",
"45 430 CURVE SMOOTH",
"45 273 OFFCURVE",
"144 167 OFFCURVE",
"257 167 CURVE SMOOTH"
);
}
);
width = 482;
},
{
anchors = (
{
name = nukta;
position = "{346, 866}";
},
{
name = top;
position = "{227, 804}";
}
);
layerId = "A430B39A-257A-41FC-BEA9-652C696FFEF7";
paths = (
{
closed = 1;
nodes = (
"398 143 OFFCURVE",
"484 233 OFFCURVE",
"484 353 CURVE SMOOTH",
"484 464 OFFCURVE",
"390 569 OFFCURVE",
"274 569 CURVE SMOOTH",
"214 569 OFFCURVE",
"162 551 OFFCURVE",
"126 525 CURVE",
"120 387 LINE",
"158 432 OFFCURVE",
"232 462 OFFCURVE",
"284 462 CURVE SMOOTH",
"334 462 OFFCURVE",
"356 432 OFFCURVE",
"356 386 CURVE SMOOTH",
"356 316 OFFCURVE",
"306 258 OFFCURVE",
"241 258 CURVE SMOOTH",
"186 258 OFFCURVE",
"143 299 OFFCURVE",
"143 393 CURVE SMOOTH",
"143 627 OFFCURVE",
"346 808 OFFCURVE",
"594 808 CURVE SMOOTH",
"651 808 OFFCURVE",
"708 800 OFFCURVE",
"758 784 CURVE",
"770 800 LINE",
"697 897 LINE",
"658 910 OFFCURVE",
"605 917 OFFCURVE",
"551 917 CURVE SMOOTH",
"269 917 OFFCURVE",
"31 700 OFFCURVE",
"31 438 CURVE SMOOTH",
"31 261 OFFCURVE",
"139 143 OFFCURVE",
"279 143 CURVE SMOOTH"
);
}
);
width = 510;
}
);
leftKerningGroup = GGA;
note = kj_O;
rightKerningGroup = O;
unicode = 11206;
script = khoj;
category = Letter;
},
{
color = 10;
export = 0;
glyphname = "rVocalic-gujarati";
lastChange = "2022-04-15 21:56:04 +0000";
layers = (
{
layerId = "0717401B-DDB5-4983-85F2-A81AFE530D5E";
paths = (
{
closed = 1;
nodes = (
"610 0 OFFCURVE",
"653 29 OFFCURVE",
"653 71 CURVE SMOOTH",
"653 96 OFFCURVE",
"625 117 OFFCURVE",
"590 128 CURVE",
"581 68 OFFCURVE",
"565 49 OFFCURVE",
"548 49 CURVE SMOOTH",
"537 49 OFFCURVE",
"527 56 OFFCURVE",
"527 89 CURVE SMOOTH",
"527 228 OFFCURVE",
"527 413 OFFCURVE",
"528 562 CURVE",
"504 583 OFFCURVE",
"475 600 OFFCURVE",
"438 615 CURVE",
"449 346 LINE",
"449 116 LINE SMOOTH",
"449 54 OFFCURVE",
"503 0 OFFCURVE",
"564 0 CURVE SMOOTH"
);
},
{
closed = 1;
nodes = (
"513 295 LINE",
"494 381 LINE",
"76 184 LINE",
"76 175 LINE",
"159 117 LINE"
);
},
{
closed = 1;
nodes = (
"463 343 LINE",
"392 429 OFFCURVE",
"285 502 OFFCURVE",
"194 528 CURVE SMOOTH",
"162 537 OFFCURVE",
"115 540 OFFCURVE",
"80 540 CURVE SMOOTH",
"52 540 OFFCURVE",
"25 538 OFFCURVE",
"4 535 CURVE",
"-5 508 LINE",
"106 432 LINE",
"248 446 LINE",
"308 421 OFFCURVE",
"380 371 OFFCURVE",
"431 306 CURVE"
);
},
{
closed = 1;
nodes = (
"841 104 OFFCURVE",
"883 142 OFFCURVE",
"883 211 CURVE SMOOTH",
"883 271 OFFCURVE",
"835 333 OFFCURVE",
"787 371 CURVE",
"746 338 LINE",
"792 321 OFFCURVE",
"824 278 OFFCURVE",
"824 240 CURVE SMOOTH",
"824 202 OFFCURVE",
"794 188 OFFCURVE",
"748 188 CURVE SMOOTH",
"739 188 OFFCURVE",
"729 189 OFFCURVE",
"719 190 CURVE",
"717 178 OFFCURVE",
"716 167 OFFCURVE",
"716 158 CURVE SMOOTH",
"716 121 OFFCURVE",
"735 104 OFFCURVE",
"775 104 CURVE SMOOTH"
);
},
{
closed = 1;
nodes = (
"679 286 OFFCURVE",
"718 299 OFFCURVE",
"749 321 CURVE SMOOTH",
"786 349 OFFCURVE",
"822 398 OFFCURVE",
"822 436 CURVE SMOOTH",
"822 481 OFFCURVE",
"772 516 OFFCURVE",
"733 516 CURVE SMOOTH",
"707 516 OFFCURVE",
"686 495 OFFCURVE",
"686 458 CURVE SMOOTH",
"686 434 OFFCURVE",
"694 404 OFFCURVE",
"709 384 CURVE",
"722 412 LINE",
"688 370 OFFCURVE",
"631 344 OFFCURVE",
"578 344 CURVE SMOOTH",
"558 344 OFFCURVE",
"539 347 OFFCURVE",
"521 352 CURVE",
"495 321 LINE",
"526 304 OFFCURVE",
"575 286 OFFCURVE",
"632 286 CURVE SMOOTH"
);
}
);
width = 923;
},
{
layerId = "A430B39A-257A-41FC-BEA9-652C696FFEF7";
paths = (
{
closed = 1;
nodes = (
"685 -14 OFFCURVE",
"732 21 OFFCURVE",
"732 69 CURVE SMOOTH",
"732 102 OFFCURVE",
"700 130 OFFCURVE",
"648 144 CURVE",
"643 93 OFFCURVE",
"627 60 OFFCURVE",
"608 60 CURVE SMOOTH",
"594 60 OFFCURVE",
"586 73 OFFCURVE",
"586 107 CURVE SMOOTH",
"586 269 OFFCURVE",
"584 413 OFFCURVE",
"588 573 CURVE",
"552 606 OFFCURVE",
"504 632 OFFCURVE",
"452 647 CURVE",
"466 346 LINE",
"466 119 LINE SMOOTH",
"466 53 OFFCURVE",
"536 -14 OFFCURVE",
"620 -14 CURVE SMOOTH"
);
},
{
closed = 1;
nodes = (
"512 262 LINE",
"512 406 LINE",
"80 195 LINE",
"80 171 LINE",
"194 94 LINE"
);
},
{
closed = 1;
nodes = (
"476 372 LINE",
"400 463 OFFCURVE",
"303 531 OFFCURVE",
"218 556 CURVE SMOOTH",
"184 566 OFFCURVE",
"145 568 OFFCURVE",
"104 568 CURVE SMOOTH",
"67 568 OFFCURVE",
"26 563 OFFCURVE",
"-4 557 CURVE",
"-10 518 LINE",
"112 419 LINE",
"283 440 LINE",
"339 414 OFFCURVE",
"385 377 OFFCURVE",
"429 331 CURVE"
);
},
{
closed = 1;
nodes = (
"913 82 OFFCURVE",
"962 127 OFFCURVE",
"962 204 CURVE SMOOTH",
"962 268 OFFCURVE",
"915 333 OFFCURVE",
"834 384 CURVE",
"767 336 LINE",
"823 329 OFFCURVE",
"869 281 OFFCURVE",
"869 246 CURVE SMOOTH",
"869 215 OFFCURVE",
"835 209 OFFCURVE",
"795 209 CURVE SMOOTH",
"780 209 OFFCURVE",
"766 211 OFFCURVE",
"756 213 CURVE",
"751 192 OFFCURVE",
"749 169 OFFCURVE",
"749 154 CURVE SMOOTH",
"749 108 OFFCURVE",
"781 82 OFFCURVE",
"835 82 CURVE SMOOTH"
);
},
{
closed = 1;
nodes = (
"740 271 OFFCURVE",
"784 286 OFFCURVE",
"820 311 CURVE SMOOTH",
"869 345 OFFCURVE",
"901 398 OFFCURVE",
"901 442 CURVE SMOOTH",
"901 497 OFFCURVE",
"839 548 OFFCURVE",
"784 548 CURVE SMOOTH",
"736 548 OFFCURVE",
"715 512 OFFCURVE",
"715 466 CURVE SMOOTH",
"715 442 OFFCURVE",
"723 416 OFFCURVE",
"736 395 CURVE",
"761 444 LINE",
"726 389 OFFCURVE",
"683 368 OFFCURVE",
"628 368 CURVE SMOOTH",
"607 368 OFFCURVE",
"586 372 OFFCURVE",
"571 379 CURVE",
"529 324 LINE",
"568 293 OFFCURVE",
"634 271 OFFCURVE",
"690 271 CURVE SMOOTH"
);
}
);
width = 987;
}
);
leftKerningGroup = GGA;
leftMetricsKey = "t_ra-khoj";
unicode = 0A8B;
},
{
color = 0;
glyphname = "ka-khoj";
lastChange = "2020-12-02 21:56:54 +0000";
layers = (
{
anchors = (
{
name = bottom;
position = "{751, -99}";
},
{
name = nukta;
position = "{455, 536}";
},
{
name = rakar;
position = "{661, 30}";
},
{
name = top;
position = "{660, 516}";
}
);
layerId = "0717401B-DDB5-4983-85F2-A81AFE530D5E";
paths = (
{
closed = 1;
nodes = (
"473 15 OFFCURVE",
"646 213 OFFCURVE",
"646 335 CURVE SMOOTH",
"646 410 OFFCURVE",
"581 509 OFFCURVE",
"490 509 CURVE SMOOTH",
"439 509 OFFCURVE",
"382 477 OFFCURVE",
"314 433 CURVE SMOOTH",
"242 386 OFFCURVE",
"135 310 OFFCURVE",
"135 258 CURVE SMOOTH",
"135 226 OFFCURVE",
"175 184 OFFCURVE",
"214 184 CURVE SMOOTH",
"265 184 OFFCURVE",
"313 259 OFFCURVE",
"342 333 CURVE",
"407 394 OFFCURVE",
"484 433 OFFCURVE",
"528 433 CURVE SMOOTH",
"565 433 OFFCURVE",
"586 403 OFFCURVE",
"586 367 CURVE SMOOTH",
"586 306 OFFCURVE",
"518 234 OFFCURVE",
"460 193 CURVE",
"388 170 OFFCURVE",
"326 136 OFFCURVE",
"326 95 CURVE SMOOTH",
"326 60 OFFCURVE",
"364 15 OFFCURVE",
"399 15 CURVE SMOOTH"
);
},
{
closed = 1;
nodes = (
"340 409 LINE",
"305 479 OFFCURVE",
"267 536 OFFCURVE",
"222 536 CURVE SMOOTH",
"65 536 LINE SMOOTH",
"57 536 OFFCURVE",
"51 538 OFFCURVE",
"47 549 CURVE SMOOTH",
"39 573 LINE",
"5 573 LINE",
"36 468 LINE SMOOTH",
"40 455 OFFCURVE",
"46 453 OFFCURVE",
"60 453 CURVE SMOOTH",
"234 453 LINE SMOOTH",
"270 453 OFFCURVE",
"287 435 OFFCURVE",
"309 378 CURVE"
);
},
{
closed = 1;
nodes = (
"788 -145 OFFCURVE",
"812 -127 OFFCURVE",
"812 -95 CURVE SMOOTH",
"812 -79 OFFCURVE",
"806 -60 OFFCURVE",
"793 -41 CURVE",
"768 -56 OFFCURVE",
"731 -72 OFFCURVE",
"706 -72 CURVE SMOOTH",
"688 -72 OFFCURVE",
"680 -62 OFFCURVE",
"680 -47 CURVE SMOOTH",
"680 -22 OFFCURVE",
"703 22 OFFCURVE",
"703 58 CURVE SMOOTH",
"703 124 OFFCURVE",
"623 183 OFFCURVE",
"537 183 CURVE",
"528 116 LINE",
"543 124 OFFCURVE",
"558 129 OFFCURVE",
"573 129 CURVE SMOOTH",
"594 129 OFFCURVE",
"610 119 OFFCURVE",
"610 90 CURVE SMOOTH",
"610 70 OFFCURVE",
"603 22 OFFCURVE",
"603 2 CURVE SMOOTH",
"603 -70 OFFCURVE",
"688 -145 OFFCURVE",
"755 -145 CURVE SMOOTH"
);
}
);
width = 772;
},
{
anchors = (
{
name = bottom;
position = "{784, -126}";
},
{
name = nukta;
position = "{472, 540}";
},
{
name = rakar;
position = "{701, 26}";
},
{
name = top;
position = "{713, 516}";
}
);
layerId = "A430B39A-257A-41FC-BEA9-652C696FFEF7";
paths = (
{
closed = 1;
nodes = (
"509 -16 OFFCURVE",
"686 182 OFFCURVE",
"686 318 CURVE SMOOTH",
"686 422 OFFCURVE",
"604 528 OFFCURVE",
"504 528 CURVE SMOOTH",
"450 528 OFFCURVE",
"384 499 OFFCURVE",
"315 455 CURVE SMOOTH",
"187 373 OFFCURVE",
"131 322 OFFCURVE",
"131 272 CURVE SMOOTH",
"131 224 OFFCURVE",
"181 172 OFFCURVE",
"230 172 CURVE SMOOTH",
"277 172 OFFCURVE",
"327 218 OFFCURVE",
"375 327 CURVE",
"423 375 OFFCURVE",
"500 415 OFFCURVE",
"552 415 CURVE SMOOTH",
"581 415 OFFCURVE",
"595 394 OFFCURVE",
"594 364 CURVE SMOOTH",
"592 314 OFFCURVE",
"534 240 OFFCURVE",
"480 202 CURVE",
"408 179 OFFCURVE",
"325 140 OFFCURVE",
"325 84 CURVE SMOOTH",
"325 37 OFFCURVE",
"370 -16 OFFCURVE",
"417 -16 CURVE SMOOTH"
);
},
{
closed = 1;
nodes = (
"354 425 LINE",
"308 513 OFFCURVE",
"272 560 OFFCURVE",
"220 560 CURVE SMOOTH",
"63 560 LINE SMOOTH",
"57 560 OFFCURVE",
"53 562 OFFCURVE",
"51 567 CURVE SMOOTH",
"43 590 LINE",
"-10 590 LINE",
"24 467 LINE SMOOTH",
"28 451 OFFCURVE",
"36 444 OFFCURVE",
"52 444 CURVE SMOOTH",
"275 444 LINE SMOOTH",
"299 444 OFFCURVE",
"302 432 OFFCURVE",
"318 390 CURVE"
);
},
{
closed = 1;
nodes = (
"833 -160 OFFCURVE",
"859 -137 OFFCURVE",
"859 -99 CURVE SMOOTH",
"859 -75 OFFCURVE",
"848 -52 OFFCURVE",
"823 -30 CURVE",
"804 -46 OFFCURVE",
"770 -65 OFFCURVE",
"742 -65 CURVE SMOOTH",
"731 -65 OFFCURVE",
"726 -61 OFFCURVE",
"726 -52 CURVE SMOOTH",
"726 -33 OFFCURVE",
"755 3 OFFCURVE",
"755 50 CURVE SMOOTH",
"755 110 OFFCURVE",
"680 170 OFFCURVE",
"593 182 CURVE",
"575 102 LINE",
"587 111 OFFCURVE",
"597 114 OFFCURVE",
"607 114 CURVE SMOOTH",
"619 114 OFFCURVE",
"627 107 OFFCURVE",
"627 91 CURVE SMOOTH",
"627 66 OFFCURVE",
"616 30 OFFCURVE",
"616 -1 CURVE SMOOTH",
"616 -74 OFFCURVE",
"710 -160 OFFCURVE",
"788 -160 CURVE SMOOTH"
);
}
);
width = 809;
}
);
leftKerningGroup = KA;
note = kj_KA;
rightKerningGroup = KA;
unicode = 11208;
script = khoj;
category = Letter;
},
{
color = 1;
glyphname = "ka_iMatra-khoj";
lastChange = "2020-12-02 21:56:54 +0000";
layers = (
{
anchors = (
{
name = bottom;
position = "{691, -99}";
},
{
name = nukta;
position = "{455, 536}";
},
{
name = rakar;
position = "{717, 106}";
},
{
name = top;
position = "{1140, 892}";
}
);
layerId = "0717401B-DDB5-4983-85F2-A81AFE530D5E";
paths = (
{
closed = 1;
nodes = (
"727 -144 LINE",
"752 -17 OFFCURVE",
"798 192 OFFCURVE",
"841 378 CURVE SMOOTH",
"881 551 OFFCURVE",
"906 678 OFFCURVE",
"955 749 CURVE SMOOTH",
"985 792 OFFCURVE",
"1022 814 OFFCURVE",
"1077 814 CURVE SMOOTH",
"1141 814 OFFCURVE",
"1196 782 OFFCURVE",
"1237 736 CURVE",
"1246 738 LINE",
"1241 809 LINE",
"1194 860 OFFCURVE",
"1130 895 OFFCURVE",
"1055 895 CURVE SMOOTH",
"981 895 OFFCURVE",
"928 865 OFFCURVE",
"889 814 CURVE SMOOTH",
"830 737 OFFCURVE",
"811 634 OFFCURVE",
"775 462 CURVE SMOOTH",
"695 85 LINE",
"728 85 LINE",
"711 135 OFFCURVE",
"664 182 OFFCURVE",
"582 182 CURVE SMOOTH",
"575 182 OFFCURVE",
"568 182 OFFCURVE",
"560 181 CURVE",
"541 122 LINE",
"557 128 OFFCURVE",
"572 130 OFFCURVE",
"587 130 CURVE SMOOTH",
"642 130 OFFCURVE",
"672 104 OFFCURVE",
"672 43 CURVE SMOOTH",
"672 10 OFFCURVE",
"663 -37 OFFCURVE",
"651 -99 CURVE",
"713 -146 LINE"
);
},
{
closed = 1;
nodes = (
"340 409 LINE",
"305 479 OFFCURVE",
"267 536 OFFCURVE",
"222 536 CURVE SMOOTH",
"65 536 LINE SMOOTH",
"57 536 OFFCURVE",
"51 538 OFFCURVE",
"47 549 CURVE SMOOTH",
"39 573 LINE",
"5 573 LINE",
"36 468 LINE SMOOTH",
"40 455 OFFCURVE",
"46 453 OFFCURVE",
"60 453 CURVE SMOOTH",
"234 453 LINE SMOOTH",
"270 453 OFFCURVE",
"287 435 OFFCURVE",
"309 378 CURVE"
);
},
{
closed = 1;
nodes = (
"473 15 OFFCURVE",
"646 213 OFFCURVE",
"646 335 CURVE SMOOTH",
"646 410 OFFCURVE",
"581 509 OFFCURVE",
"490 509 CURVE SMOOTH",
"439 509 OFFCURVE",
"382 477 OFFCURVE",
"314 433 CURVE SMOOTH",
"242 386 OFFCURVE",
"135 310 OFFCURVE",
"135 258 CURVE SMOOTH",
"135 226 OFFCURVE",
"175 184 OFFCURVE",
"214 184 CURVE SMOOTH",
"265 184 OFFCURVE",
"313 259 OFFCURVE",
"342 333 CURVE",
"407 394 OFFCURVE",
"484 433 OFFCURVE",
"528 433 CURVE SMOOTH",
"565 433 OFFCURVE",
"586 404 OFFCURVE",
"586 367 CURVE SMOOTH",
"586 306 OFFCURVE",
"518 234 OFFCURVE",
"460 193 CURVE",
"388 170 OFFCURVE",
"326 136 OFFCURVE",
"326 95 CURVE SMOOTH",
"326 60 OFFCURVE",
"364 15 OFFCURVE",
"399 15 CURVE SMOOTH"
);
}
);
width = 956;
},
{
anchors = (
{
name = bottom;
position = "{733, -128}";
},
{
name = nukta;
position = "{472, 540}";
},
{
name = rakar;
position = "{763, 106}";
},
{
name = top;
position = "{1220, 918}";
}
);
layerId = "A430B39A-257A-41FC-BEA9-652C696FFEF7";
paths = (
{
closed = 1;
nodes = (
"786 -164 LINE",
"819 1 OFFCURVE",
"863 205 OFFCURVE",
"900 376 CURVE SMOOTH",
"933 529 OFFCURVE",
"957 623 OFFCURVE",
"983 683 CURVE SMOOTH",
"1014 753 OFFCURVE",
"1063 801 OFFCURVE",
"1147 801 CURVE SMOOTH",
"1208 801 OFFCURVE",
"1272 771 OFFCURVE",
"1314 727 CURVE",
"1327 732 LINE",
"1311 829 LINE",
"1246 888 OFFCURVE",
"1178 918 OFFCURVE",
"1103 918 CURVE SMOOTH",
"1004 918 OFFCURVE",
"932 871 OFFCURVE",
"885 782 CURVE SMOOTH",
"847 710 OFFCURVE",
"823 608 OFFCURVE",
"796 477 CURVE SMOOTH",
"721 119 LINE",
"759 125 LINE",
"724 169 OFFCURVE",
"680 187 OFFCURVE",
"627 187 CURVE SMOOTH",
"613 187 OFFCURVE",
"598 185 OFFCURVE",
"583 181 CURVE",
"570 98 LINE",
"584 107 OFFCURVE",
"604 113 OFFCURVE",
"624 113 CURVE SMOOTH",
"657 113 OFFCURVE",
"692 95 OFFCURVE",
"692 43 CURVE SMOOTH",
"692 10 OFFCURVE",
"684 -39 OFFCURVE",
"671 -108 CURVE",
"753 -169 LINE"
);
},
{
closed = 1;
nodes = (
"354 425 LINE",
"308 513 OFFCURVE",
"272 560 OFFCURVE",
"220 560 CURVE SMOOTH",
"63 560 LINE SMOOTH",
"57 560 OFFCURVE",
"53 562 OFFCURVE",
"51 567 CURVE SMOOTH",
"43 590 LINE",
"-10 590 LINE",
"24 467 LINE SMOOTH",
"28 451 OFFCURVE",
"36 444 OFFCURVE",
"52 444 CURVE SMOOTH",
"275 444 LINE SMOOTH",
"299 444 OFFCURVE",
"302 432 OFFCURVE",
"318 390 CURVE"
);
},
{
closed = 1;
nodes = (
"509 -16 OFFCURVE",
"686 182 OFFCURVE",
"686 318 CURVE SMOOTH",
"686 422 OFFCURVE",
"604 528 OFFCURVE",
"504 528 CURVE SMOOTH",
"450 528 OFFCURVE",
"384 499 OFFCURVE",
"315 455 CURVE SMOOTH",
"187 373 OFFCURVE",
"131 322 OFFCURVE",
"131 272 CURVE SMOOTH",
"131 224 OFFCURVE",
"181 172 OFFCURVE",
"230 172 CURVE SMOOTH",
"277 172 OFFCURVE",
"327 218 OFFCURVE",
"375 327 CURVE",
"423 375 OFFCURVE",
"500 415 OFFCURVE",
"552 415 CURVE SMOOTH",
"581 415 OFFCURVE",
"595 394 OFFCURVE",
"594 364 CURVE SMOOTH",
"592 314 OFFCURVE",
"534 240 OFFCURVE",
"480 202 CURVE",
"408 179 OFFCURVE",
"325 140 OFFCURVE",
"325 84 CURVE SMOOTH",
"325 37 OFFCURVE",
"370 -16 OFFCURVE",
"417 -16 CURVE SMOOTH"
);
}
);
visible = 1;
width = 1020;
}
);
leftKerningGroup = KA;
leftMetricsKey = "ka-khoj";
rightKerningGroup = HI;
rightMetricsKey = "ha_iMatra-khoj";
script = khoj;
},
{
color = 1;
glyphname = "ka_iiMatra-khoj";
lastChange = "2020-12-02 21:56:54 +0000";
layers = (
{
anchors = (
{
name = bottom;
position = "{838, -99}";
},
{
name = nukta;
position = "{455, 536}";
},
{
name = rakar;
position = "{717, 116}";
},
{
name = top;
position = "{1029, 539}";
}
);
layerId = "0717401B-DDB5-4983-85F2-A81AFE530D5E";
paths = (
{
closed = 1;
nodes = (
"1155 -240 OFFCURVE",
"1195 -223 OFFCURVE",
"1196 -186 CURVE SMOOTH",
"1197 -157 OFFCURVE",
"1173 -133 OFFCURVE",
"1142 -114 CURVE",
"1131 -139 OFFCURVE",
"1098 -158 OFFCURVE",
"1066 -158 CURVE SMOOTH",
"1029 -158 OFFCURVE",
"1014 -132 OFFCURVE",
"1014 -66 CURVE SMOOTH",
"1014 40 OFFCURVE",
"1052 188 OFFCURVE",
"1052 285 CURVE SMOOTH",
"1052 411 OFFCURVE",
"993 544 OFFCURVE",
"915 544 CURVE SMOOTH",
"875 544 OFFCURVE",
"837 509 OFFCURVE",
"801 432 CURVE SMOOTH",
"766 357 OFFCURVE",
"731 246 OFFCURVE",
"693 116 CURVE",
"728 96 LINE",
"711 146 OFFCURVE",
"664 193 OFFCURVE",
"582 193 CURVE SMOOTH",
"575 193 OFFCURVE",
"568 193 OFFCURVE",
"560 192 CURVE",
"541 133 LINE",
"557 139 OFFCURVE",
"572 141 OFFCURVE",
"586 141 CURVE SMOOTH",
"640 141 OFFCURVE",
"673 117 OFFCURVE",
"673 67 CURVE SMOOTH",
"673 39 OFFCURVE",
"665 -4 OFFCURVE",
"650 -58 CURVE",
"707 -126 LINE",
"724 -122 LINE",
"742 -31 OFFCURVE",
"779 133 OFFCURVE",
"825 263 CURVE SMOOTH",
"868 386 OFFCURVE",
"906 463 OFFCURVE",
"940 463 CURVE SMOOTH",
"965 463 OFFCURVE",
"974 410 OFFCURVE",
"974 365 CURVE SMOOTH",
"974 266 OFFCURVE",
"932 87 OFFCURVE",
"932 -4 CURVE SMOOTH",
"932 -132 OFFCURVE",
"1014 -240 OFFCURVE",
"1115 -240 CURVE SMOOTH"
);
},
{
closed = 1;
nodes = (
"340 409 LINE",
"305 479 OFFCURVE",
"267 536 OFFCURVE",
"222 536 CURVE SMOOTH",
"65 536 LINE SMOOTH",
"57 536 OFFCURVE",
"51 538 OFFCURVE",
"47 549 CURVE SMOOTH",
"39 573 LINE",
"5 573 LINE",
"36 468 LINE SMOOTH",
"40 455 OFFCURVE",
"46 453 OFFCURVE",
"60 453 CURVE SMOOTH",
"234 453 LINE SMOOTH",
"270 453 OFFCURVE",
"287 435 OFFCURVE",
"309 378 CURVE"
);
},
{
closed = 1;
nodes = (
"473 15 OFFCURVE",
"646 213 OFFCURVE",
"646 335 CURVE SMOOTH",
"646 410 OFFCURVE",
"581 509 OFFCURVE",
"490 509 CURVE SMOOTH",
"439 509 OFFCURVE",
"382 477 OFFCURVE",
"314 433 CURVE SMOOTH",
"242 386 OFFCURVE",
"135 310 OFFCURVE",
"135 258 CURVE SMOOTH",
"135 226 OFFCURVE",
"175 184 OFFCURVE",
"214 184 CURVE SMOOTH",
"265 184 OFFCURVE",
"313 259 OFFCURVE",
"342 333 CURVE",
"407 394 OFFCURVE",
"484 433 OFFCURVE",
"528 433 CURVE SMOOTH",
"565 433 OFFCURVE",
"586 405 OFFCURVE",
"586 367 CURVE SMOOTH",
"586 306 OFFCURVE",
"518 234 OFFCURVE",
"460 193 CURVE",
"388 170 OFFCURVE",
"326 136 OFFCURVE",
"326 95 CURVE SMOOTH",
"326 60 OFFCURVE",
"364 15 OFFCURVE",
"399 15 CURVE SMOOTH"
);
}
);
width = 1126;
},
{
anchors = (
{
name = bottom;
position = "{876, -142}";
},
{
name = nukta;
position = "{472, 540}";
},
{
name = rakar;
position = "{771, 50}";
},
{
name = top;
position = "{1084, 568}";
}
);
layerId = "A430B39A-257A-41FC-BEA9-652C696FFEF7";
paths = (
{
closed = 1;
nodes = (
"1240 -262 OFFCURVE",
"1284 -234 OFFCURVE",
"1285 -189 CURVE SMOOTH",
"1286 -152 OFFCURVE",
"1259 -122 OFFCURVE",
"1222 -101 CURVE",
"1200 -135 OFFCURVE",
"1172 -157 OFFCURVE",
"1138 -157 CURVE SMOOTH",
"1106 -157 OFFCURVE",
"1087 -136 OFFCURVE",
"1087 -81 CURVE SMOOTH",
"1087 31 OFFCURVE",
"1124 180 OFFCURVE",
"1124 279 CURVE SMOOTH",
"1124 421 OFFCURVE",
"1041 567 OFFCURVE",
"957 567 CURVE SMOOTH",
"907 567 OFFCURVE",
"866 527 OFFCURVE",
"828 441 CURVE SMOOTH",
"794 365 OFFCURVE",
"764 269 OFFCURVE",
"728 145 CURVE",
"754 146 LINE",
"731 183 OFFCURVE",
"700 200 OFFCURVE",
"648 200 CURVE SMOOTH",
"635 200 OFFCURVE",
"621 199 OFFCURVE",
"606 196 CURVE",
"584 110 LINE",
"600 117 OFFCURVE",
"616 120 OFFCURVE",
"632 120 CURVE SMOOTH",
"675 120 OFFCURVE",
"701 102 OFFCURVE",
"701 60 CURVE SMOOTH",
"701 31 OFFCURVE",
"692 -12 OFFCURVE",
"678 -65 CURVE",
"758 -155 LINE",
"790 -150 LINE",
"807 -62 OFFCURVE",
"855 132 OFFCURVE",
"895 256 CURVE SMOOTH",
"938 388 OFFCURVE",
"963 440 OFFCURVE",
"985 440 CURVE SMOOTH",
"996 440 OFFCURVE",
"1005 421 OFFCURVE",
"1005 380 CURVE SMOOTH",
"1005 287 OFFCURVE",
"968 110 OFFCURVE",
"968 16 CURVE SMOOTH",
"968 -128 OFFCURVE",
"1059 -262 OFFCURVE",
"1183 -262 CURVE SMOOTH"
);
},
{
closed = 1;
nodes = (
"354 425 LINE",
"308 513 OFFCURVE",
"272 560 OFFCURVE",
"220 560 CURVE SMOOTH",
"63 560 LINE SMOOTH",
"57 560 OFFCURVE",
"53 562 OFFCURVE",
"51 567 CURVE SMOOTH",
"43 590 LINE",
"-10 590 LINE",
"24 467 LINE SMOOTH",
"28 451 OFFCURVE",
"36 444 OFFCURVE",
"52 444 CURVE SMOOTH",
"275 444 LINE SMOOTH",
"299 444 OFFCURVE",
"302 432 OFFCURVE",
"318 390 CURVE"
);
},
{
closed = 1;
nodes = (
"509 -16 OFFCURVE",
"686 182 OFFCURVE",
"686 318 CURVE SMOOTH",
"686 422 OFFCURVE",
"604 528 OFFCURVE",
"504 528 CURVE SMOOTH",
"450 528 OFFCURVE",
"384 499 OFFCURVE",
"315 455 CURVE SMOOTH",
"187 373 OFFCURVE",
"131 322 OFFCURVE",
"131 272 CURVE SMOOTH",
"131 224 OFFCURVE",
"181 172 OFFCURVE",
"230 172 CURVE SMOOTH",
"277 172 OFFCURVE",
"327 218 OFFCURVE",
"375 327 CURVE",
"423 375 OFFCURVE",
"500 415 OFFCURVE",
"552 415 CURVE SMOOTH",
"581 415 OFFCURVE",
"595 394 OFFCURVE",
"594 364 CURVE SMOOTH",
"592 314 OFFCURVE",
"534 240 OFFCURVE",
"480 202 CURVE",
"408 179 OFFCURVE",
"325 140 OFFCURVE",
"325 84 CURVE SMOOTH",
"325 37 OFFCURVE",
"370 -16 OFFCURVE",
"417 -16 CURVE SMOOTH"
);
}
);
width = 1199;
}
);
leftKerningGroup = KA;
leftMetricsKey = "ka-khoj";
rightKerningGroup = HII;
rightMetricsKey = "ha_iiMatra-khoj";
script = khoj;
},
{
color = 1;
glyphname = "ka_uMatra-khoj";
lastChange = "2020-12-02 21:56:54 +0000";
layers = (
{
anchors = (
{
name = bottom;
position = "{504, -179}";
},
{
name = nukta;
position = "{438, 536}";
},
{
name = top;
position = "{643, 516}";
}
);
layerId = "0717401B-DDB5-4983-85F2-A81AFE530D5E";
paths = (
{
closed = 1;
nodes = (
"666 -191 OFFCURVE",
"776 -103 OFFCURVE",
"776 17 CURVE SMOOTH",
"776 139 OFFCURVE",
"664 201 OFFCURVE",
"576 201 CURVE",
"563 129 LINE",
"579 136 OFFCURVE",
"595 140 OFFCURVE",
"611 140 CURVE SMOOTH",
"661 140 OFFCURVE",
"703 110 OFFCURVE",
"703 50 CURVE SMOOTH",
"703 -35 OFFCURVE",
"617 -108 OFFCURVE",
"481 -108 CURVE SMOOTH",
"306 -108 OFFCURVE",
"161 12 OFFCURVE",
"67 168 CURVE",
"58 165 LINE",
"46 110 LINE",
"143 -61 OFFCURVE",
"317 -191 OFFCURVE",
"508 -191 CURVE SMOOTH"
);
},
{
closed = 1;
nodes = (
"370 409 LINE",
"335 479 OFFCURVE",
"297 536 OFFCURVE",
"252 536 CURVE SMOOTH",
"95 536 LINE SMOOTH",
"87 536 OFFCURVE",
"81 538 OFFCURVE",
"77 549 CURVE SMOOTH",
"69 573 LINE",
"35 573 LINE",
"66 468 LINE SMOOTH",
"70 455 OFFCURVE",
"76 453 OFFCURVE",
"90 453 CURVE SMOOTH",
"264 453 LINE SMOOTH",
"300 453 OFFCURVE",
"317 435 OFFCURVE",
"339 378 CURVE"
);
},
{
closed = 1;
nodes = (
"503 15 OFFCURVE",
"676 213 OFFCURVE",
"676 335 CURVE SMOOTH",
"676 410 OFFCURVE",
"611 509 OFFCURVE",
"520 509 CURVE SMOOTH",
"469 509 OFFCURVE",
"412 477 OFFCURVE",
"344 433 CURVE SMOOTH",
"272 386 OFFCURVE",
"165 310 OFFCURVE",
"165 258 CURVE SMOOTH",
"165 226 OFFCURVE",
"205 184 OFFCURVE",
"244 184 CURVE SMOOTH",
"295 184 OFFCURVE",
"343 259 OFFCURVE",
"372 333 CURVE",
"437 394 OFFCURVE",
"514 433 OFFCURVE",
"558 433 CURVE SMOOTH",
"594 433 OFFCURVE",
"616 403 OFFCURVE",
"616 367 CURVE SMOOTH",
"616 306 OFFCURVE",
"548 234 OFFCURVE",
"490 193 CURVE",
"418 170 OFFCURVE",
"356 136 OFFCURVE",
"356 95 CURVE SMOOTH",
"356 60 OFFCURVE",
"394 15 OFFCURVE",
"429 15 CURVE SMOOTH"
);
}
);
width = 806;
},
{
anchors = (
{
name = bottom;
position = "{529, -210}";
},
{
name = nukta;
position = "{502, 540}";
},
{
name = top;
position = "{693, 516}";
}
);
layerId = "A430B39A-257A-41FC-BEA9-652C696FFEF7";
paths = (
{
closed = 1;
nodes = (
"718 -223 OFFCURVE",
"823 -126 OFFCURVE",
"823 3 CURVE SMOOTH",
"823 122 OFFCURVE",
"716 207 OFFCURVE",
"585 209 CURVE",
"574 71 LINE",
"599 93 OFFCURVE",
"626 105 OFFCURVE",
"660 105 CURVE SMOOTH",
"693 105 OFFCURVE",
"716 86 OFFCURVE",
"716 47 CURVE SMOOTH",
"716 -33 OFFCURVE",
"623 -98 OFFCURVE",
"487 -98 CURVE SMOOTH",
"319 -98 OFFCURVE",
"174 -7 OFFCURVE",
"63 177 CURVE",
"49 176 LINE",
"26 97 LINE",
"131 -97 OFFCURVE",
"320 -223 OFFCURVE",
"529 -223 CURVE SMOOTH"
);
},
{
closed = 1;
nodes = (
"384 425 LINE",
"338 513 OFFCURVE",
"302 560 OFFCURVE",
"250 560 CURVE SMOOTH",
"93 560 LINE SMOOTH",
"87 560 OFFCURVE",
"83 562 OFFCURVE",
"81 567 CURVE SMOOTH",
"73 590 LINE",
"20 590 LINE",
"54 467 LINE SMOOTH",
"58 451 OFFCURVE",
"66 444 OFFCURVE",
"82 444 CURVE SMOOTH",
"305 444 LINE SMOOTH",
"329 444 OFFCURVE",
"332 432 OFFCURVE",
"348 390 CURVE"
);
},
{
closed = 1;
nodes = (
"539 -16 OFFCURVE",
"716 182 OFFCURVE",
"716 318 CURVE SMOOTH",
"716 422 OFFCURVE",
"634 528 OFFCURVE",
"534 528 CURVE SMOOTH",
"480 528 OFFCURVE",
"414 499 OFFCURVE",
"345 455 CURVE SMOOTH",
"217 373 OFFCURVE",
"161 322 OFFCURVE",
"161 272 CURVE SMOOTH",
"161 224 OFFCURVE",
"211 172 OFFCURVE",
"260 172 CURVE SMOOTH",
"307 172 OFFCURVE",
"357 218 OFFCURVE",
"405 327 CURVE",
"453 375 OFFCURVE",
"530 415 OFFCURVE",
"582 415 CURVE SMOOTH",
"611 415 OFFCURVE",
"625 394 OFFCURVE",
"624 364 CURVE SMOOTH",
"622 314 OFFCURVE",
"564 240 OFFCURVE",
"510 202 CURVE",
"438 179 OFFCURVE",
"355 140 OFFCURVE",
"355 84 CURVE SMOOTH",
"355 37 OFFCURVE",
"400 -16 OFFCURVE",
"447 -16 CURVE SMOOTH"
);
}
);
width = 838;
}
);
leftKerningGroup = KU;
note = KU;
rightKerningGroup = KA;
script = khoj;
category = Letter;
},
{
color = 3;
glyphname = "k_ra_uMatra-khoj";
lastChange = "2020-12-02 21:56:54 +0000";
layers = (
{
anchors = (
{
name = bottom;
position = "{557, -217}";
},
{
name = nukta;
position = "{438, 536}";
},
{
name = top;
position = "{643, 516}";
}
);
layerId = "0717401B-DDB5-4983-85F2-A81AFE530D5E";
paths = (
{
closed = 1;
nodes = (
"707 -228 OFFCURVE",
"827 -145 OFFCURVE",
"827 -11 CURVE SMOOTH",
"827 121 OFFCURVE",
"712 202 OFFCURVE",
"577 202 CURVE",
"564 130 LINE",
"585 135 OFFCURVE",
"606 138 OFFCURVE",
"626 138 CURVE SMOOTH",
"697 138 OFFCURVE",
"757 101 OFFCURVE",
"757 23 CURVE SMOOTH",
"757 -70 OFFCURVE",
"670 -143 OFFCURVE",
"532 -143 CURVE SMOOTH",
"347 -143 OFFCURVE",
"180 -13 OFFCURVE",
"68 148 CURVE",
"59 145 LINE",
"49 90 LINE",
"163 -86 OFFCURVE",
"357 -228 OFFCURVE",
"556 -228 CURVE SMOOTH"
);
},
{
closed = 1;
nodes = (
"767 65 LINE",
"718 124 LINE",
"531 -13 LINE",
"531 -20 LINE",
"592 -73 LINE"
);
},
{
closed = 1;
nodes = (
"370 409 LINE",
"335 479 OFFCURVE",
"297 536 OFFCURVE",
"252 536 CURVE SMOOTH",
"95 536 LINE SMOOTH",
"87 536 OFFCURVE",
"81 538 OFFCURVE",
"77 549 CURVE SMOOTH",
"69 573 LINE",
"35 573 LINE",
"66 468 LINE SMOOTH",
"70 455 OFFCURVE",
"76 453 OFFCURVE",
"90 453 CURVE SMOOTH",
"264 453 LINE SMOOTH",
"300 453 OFFCURVE",
"317 435 OFFCURVE",
"339 378 CURVE"
);
},
{
closed = 1;
nodes = (
"503 15 OFFCURVE",
"676 213 OFFCURVE",
"676 335 CURVE SMOOTH",
"676 410 OFFCURVE",
"611 509 OFFCURVE",
"520 509 CURVE SMOOTH",
"469 509 OFFCURVE",
"412 477 OFFCURVE",
"344 433 CURVE SMOOTH",
"272 386 OFFCURVE",
"165 310 OFFCURVE",
"165 258 CURVE SMOOTH",
"165 226 OFFCURVE",
"205 184 OFFCURVE",
"244 184 CURVE SMOOTH",
"295 184 OFFCURVE",
"343 259 OFFCURVE",
"372 333 CURVE",
"437 394 OFFCURVE",
"514 433 OFFCURVE",
"558 433 CURVE SMOOTH",
"595 433 OFFCURVE",
"616 403 OFFCURVE",
"616 367 CURVE SMOOTH",
"616 306 OFFCURVE",
"548 234 OFFCURVE",
"490 193 CURVE",
"418 170 OFFCURVE",
"356 136 OFFCURVE",
"356 95 CURVE SMOOTH",
"356 60 OFFCURVE",
"394 15 OFFCURVE",
"429 15 CURVE SMOOTH"
);
}
);
width = 857;
},
{
anchors = (
{
name = bottom;
position = "{577, -264}";
},
{
name = nukta;
position = "{502, 540}";
},
{
name = top;
position = "{693, 516}";
}
);
layerId = "A430B39A-257A-41FC-BEA9-652C696FFEF7";
paths = (
{
closed = 1;
nodes = (
"751 -277 OFFCURVE",
"875 -187 OFFCURVE",
"875 -38 CURVE SMOOTH",
"875 92 OFFCURVE",
"737 207 OFFCURVE",
"594 209 CURVE",
"583 71 LINE",
"608 93 OFFCURVE",
"635 105 OFFCURVE",
"669 105 CURVE SMOOTH",
"722 105 OFFCURVE",
"774 55 OFFCURVE",
"774 14 CURVE SMOOTH",
"774 -94 OFFCURVE",
"676 -152 OFFCURVE",
"546 -152 CURVE SMOOTH",
"349 -152 OFFCURVE",
"175 -22 OFFCURVE",
"67 157 CURVE",
"53 156 LINE",
"30 77 LINE",
"140 -126 OFFCURVE",
"358 -277 OFFCURVE",
"582 -277 CURVE SMOOTH"
);
},
{
closed = 1;
nodes = (
"807 43 LINE",
"743 118 LINE",
"537 -33 LINE",
"537 -50 LINE",
"622 -107 LINE"
);
},
{
closed = 1;
nodes = (
"384 425 LINE",
"338 513 OFFCURVE",
"302 560 OFFCURVE",
"250 560 CURVE SMOOTH",
"93 560 LINE SMOOTH",
"87 560 OFFCURVE",
"83 562 OFFCURVE",
"81 567 CURVE SMOOTH",
"73 590 LINE",
"20 590 LINE",
"54 467 LINE SMOOTH",
"58 451 OFFCURVE",
"66 444 OFFCURVE",
"82 444 CURVE SMOOTH",
"305 444 LINE SMOOTH",
"329 444 OFFCURVE",
"332 432 OFFCURVE",
"348 390 CURVE"
);
},
{
closed = 1;
nodes = (
"539 -16 OFFCURVE",
"716 182 OFFCURVE",
"716 318 CURVE SMOOTH",
"716 422 OFFCURVE",
"634 528 OFFCURVE",
"534 528 CURVE SMOOTH",
"480 528 OFFCURVE",
"414 499 OFFCURVE",
"345 455 CURVE SMOOTH",
"217 373 OFFCURVE",
"161 322 OFFCURVE",
"161 272 CURVE SMOOTH",
"161 224 OFFCURVE",
"211 172 OFFCURVE",
"260 172 CURVE SMOOTH",
"307 172 OFFCURVE",
"357 218 OFFCURVE",
"405 327 CURVE",
"453 375 OFFCURVE",
"530 415 OFFCURVE",
"582 415 CURVE SMOOTH",
"611 415 OFFCURVE",
"625 394 OFFCURVE",
"624 364 CURVE SMOOTH",
"622 314 OFFCURVE",
"564 240 OFFCURVE",
"510 202 CURVE",
"438 179 OFFCURVE",
"355 140 OFFCURVE",
"355 84 CURVE SMOOTH",
"355 37 OFFCURVE",
"400 -16 OFFCURVE",
"447 -16 CURVE SMOOTH"
);
}
);
width = 890;
}
);
leftKerningGroup = KU;
leftMetricsKey = "ka_uMatra-khoj";
rightKerningGroup = KA;
rightMetricsKey = "ka_uMatra-khoj";
script = khoj;
category = Letter;
},
{
color = 0;
glyphname = "ka-khoj.alt";
lastChange = "2020-12-02 21:56:54 +0000";
layers = (
{
anchors = (
{
name = bottom;
position = "{775, -99}";
},
{
name = nukta;
position = "{479, 536}";
},
{
name = rakar;
position = "{685, 30}";
},
{
name = top;
position = "{684, 516}";
}
);
layerId = "0717401B-DDB5-4983-85F2-A81AFE530D5E";
paths = (
{
closed = 1;
nodes = (
"497 15 OFFCURVE",
"670 214 OFFCURVE",
"670 333 CURVE SMOOTH",
"670 409 OFFCURVE",
"606 509 OFFCURVE",
"512 509 CURVE SMOOTH",
"447 509 OFFCURVE",
"400 453 OFFCURVE",
"340 372 CURVE SMOOTH",
"281 292 OFFCURVE",
"244 237 OFFCURVE",
"185 237 CURVE SMOOTH",
"150 237 OFFCURVE",
"125 256 OFFCURVE",
"125 297 CURVE SMOOTH",
"125 352 OFFCURVE",
"169 405 OFFCURVE",
"227 405 CURVE SMOOTH",
"275 405 OFFCURVE",
"291 347 OFFCURVE",
"294 284 CURVE",
"333 316 LINE",
"328 410 OFFCURVE",
"283 486 OFFCURVE",
"194 486 CURVE SMOOTH",
"110 486 OFFCURVE",
"45 415 OFFCURVE",
"45 338 CURVE SMOOTH",
"45 252 OFFCURVE",
"128 166 OFFCURVE",
"221 166 CURVE SMOOTH",
"299 166 OFFCURVE",
"344 226 OFFCURVE",
"411 313 CURVE SMOOTH",
"465 383 OFFCURVE",
"503 433 OFFCURVE",
"550 433 CURVE SMOOTH",
"585 433 OFFCURVE",
"610 405 OFFCURVE",
"610 368 CURVE SMOOTH",
"610 306 OFFCURVE",
"542 234 OFFCURVE",
"484 193 CURVE",
"412 170 OFFCURVE",
"350 136 OFFCURVE",
"350 95 CURVE SMOOTH",
"350 60 OFFCURVE",
"388 15 OFFCURVE",
"423 15 CURVE SMOOTH"
);
},
{
closed = 1;
nodes = (
"812 -145 OFFCURVE",
"836 -127 OFFCURVE",
"836 -95 CURVE SMOOTH",
"836 -79 OFFCURVE",
"830 -60 OFFCURVE",
"817 -41 CURVE",
"792 -56 OFFCURVE",
"755 -72 OFFCURVE",
"730 -72 CURVE SMOOTH",
"712 -72 OFFCURVE",
"704 -62 OFFCURVE",
"704 -47 CURVE SMOOTH",
"704 -22 OFFCURVE",
"727 22 OFFCURVE",
"727 58 CURVE SMOOTH",
"727 124 OFFCURVE",
"647 183 OFFCURVE",
"561 183 CURVE",
"552 116 LINE",
"567 124 OFFCURVE",
"582 129 OFFCURVE",
"597 129 CURVE SMOOTH",
"618 129 OFFCURVE",
"634 119 OFFCURVE",
"634 90 CURVE SMOOTH",
"634 70 OFFCURVE",
"627 21 OFFCURVE",
"627 1 CURVE SMOOTH",
"627 -70 OFFCURVE",
"712 -145 OFFCURVE",
"779 -145 CURVE SMOOTH"
);
}
);
width = 796;
},
{
anchors = (
{
name = bottom;
position = "{820, -126}";
},
{
name = nukta;
position = "{508, 540}";
},
{
name = rakar;
position = "{737, 26}";
},
{
name = top;
position = "{749, 516}";
}
);
layerId = "A430B39A-257A-41FC-BEA9-652C696FFEF7";
paths = (
{
closed = 1;
nodes = (
"545 -16 OFFCURVE",
"722 182 OFFCURVE",
"722 318 CURVE SMOOTH",
"722 422 OFFCURVE",
"637 528 OFFCURVE",
"536 528 CURVE SMOOTH",
"464 528 OFFCURVE",
"415 490 OFFCURVE",
"342 386 CURVE SMOOTH",
"270 283 OFFCURVE",
"236 244 OFFCURVE",
"186 244 CURVE SMOOTH",
"158 244 OFFCURVE",
"142 262 OFFCURVE",
"142 291 CURVE SMOOTH",
"142 344 OFFCURVE",
"191 392 OFFCURVE",
"238 392 CURVE SMOOTH",
"279 392 OFFCURVE",
"296 355 OFFCURVE",
"304 293 CURVE",
"360 338 LINE",
"346 439 OFFCURVE",
"300 511 OFFCURVE",
"202 511 CURVE SMOOTH",
"108 511 OFFCURVE",
"30 435 OFFCURVE",
"30 341 CURVE SMOOTH",
"30 240 OFFCURVE",
"127 145 OFFCURVE",
"234 145 CURVE SMOOTH",
"324 145 OFFCURVE",
"383 214 OFFCURVE",
"449 300 CURVE SMOOTH",
"519 391 OFFCURVE",
"555 418 OFFCURVE",
"585 418 CURVE SMOOTH",
"615 418 OFFCURVE",
"631 394 OFFCURVE",
"630 363 CURVE SMOOTH",
"628 314 OFFCURVE",
"570 240 OFFCURVE",
"516 202 CURVE",
"444 179 OFFCURVE",
"361 140 OFFCURVE",
"361 84 CURVE SMOOTH",
"361 37 OFFCURVE",
"406 -16 OFFCURVE",
"453 -16 CURVE SMOOTH"
);
},
{
closed = 1;
nodes = (
"869 -160 OFFCURVE",
"895 -137 OFFCURVE",
"895 -99 CURVE SMOOTH",
"895 -75 OFFCURVE",
"884 -52 OFFCURVE",
"859 -30 CURVE",
"840 -46 OFFCURVE",
"806 -65 OFFCURVE",
"778 -65 CURVE SMOOTH",
"767 -65 OFFCURVE",
"762 -61 OFFCURVE",
"762 -52 CURVE SMOOTH",
"762 -33 OFFCURVE",
"791 3 OFFCURVE",
"791 50 CURVE SMOOTH",
"791 110 OFFCURVE",
"716 170 OFFCURVE",
"629 182 CURVE",
"611 102 LINE",
"623 111 OFFCURVE",
"633 114 OFFCURVE",
"643 114 CURVE SMOOTH",
"655 114 OFFCURVE",
"663 107 OFFCURVE",
"663 91 CURVE SMOOTH",
"663 66 OFFCURVE",
"652 30 OFFCURVE",
"652 -1 CURVE SMOOTH",
"652 -74 OFFCURVE",
"746 -160 OFFCURVE",
"824 -160 CURVE SMOOTH"
);
}
);
width = 845;
}
);
leftKerningGroup = DA;
leftMetricsKey = "ya-khoj";
note = kj_KA;
rightKerningGroup = KA;
rightMetricsKey = "ka-khoj";
script = khoj;
category = Letter;
},
{
color = 1;
glyphname = "ka_iMatra-khoj.alt";
lastChange = "2020-12-02 21:56:54 +0000";
layers = (
{
anchors = (
{
name = bottom;
position = "{715, -99}";
},
{
name = nukta;
position = "{479, 536}";
},
{
name = rakar;
position = "{741, 106}";
},
{
name = top;
position = "{1164, 892}";
}
);
layerId = "0717401B-DDB5-4983-85F2-A81AFE530D5E";
paths = (
{
closed = 1;
nodes = (
"751 -144 LINE",
"776 -17 OFFCURVE",
"822 192 OFFCURVE",
"865 378 CURVE SMOOTH",
"905 551 OFFCURVE",
"930 678 OFFCURVE",
"979 749 CURVE SMOOTH",
"1009 792 OFFCURVE",
"1046 814 OFFCURVE",
"1101 814 CURVE SMOOTH",
"1165 814 OFFCURVE",
"1220 782 OFFCURVE",
"1261 736 CURVE",
"1270 738 LINE",
"1265 809 LINE",
"1218 860 OFFCURVE",
"1154 895 OFFCURVE",
"1079 895 CURVE SMOOTH",
"1005 895 OFFCURVE",
"952 865 OFFCURVE",
"913 814 CURVE SMOOTH",
"854 737 OFFCURVE",
"835 634 OFFCURVE",
"799 462 CURVE SMOOTH",
"723 104 LINE",
"752 85 LINE",
"732 139 OFFCURVE",
"691 182 OFFCURVE",
"598 182 CURVE SMOOTH",
"594 182 OFFCURVE",
"587 181 OFFCURVE",
"584 181 CURVE",
"565 122 LINE",
"581 128 OFFCURVE",
"596 130 OFFCURVE",
"611 130 CURVE SMOOTH",
"666 130 OFFCURVE",
"696 104 OFFCURVE",
"696 43 CURVE SMOOTH",
"696 10 OFFCURVE",
"687 -37 OFFCURVE",
"675 -99 CURVE",
"737 -146 LINE"
);
},
{
closed = 1;
nodes = (
"497 15 OFFCURVE",
"670 214 OFFCURVE",
"670 333 CURVE SMOOTH",
"670 409 OFFCURVE",
"606 509 OFFCURVE",
"512 509 CURVE SMOOTH",
"447 509 OFFCURVE",
"400 453 OFFCURVE",
"340 372 CURVE SMOOTH",
"281 292 OFFCURVE",
"244 237 OFFCURVE",
"185 237 CURVE SMOOTH",
"150 237 OFFCURVE",
"125 256 OFFCURVE",
"125 297 CURVE SMOOTH",
"125 352 OFFCURVE",
"169 405 OFFCURVE",
"227 405 CURVE SMOOTH",
"275 405 OFFCURVE",
"289 347 OFFCURVE",
"291 284 CURVE",
"333 316 LINE",
"328 410 OFFCURVE",
"283 486 OFFCURVE",
"194 486 CURVE SMOOTH",
"110 486 OFFCURVE",
"45 415 OFFCURVE",
"45 338 CURVE SMOOTH",
"45 252 OFFCURVE",
"128 166 OFFCURVE",
"221 166 CURVE SMOOTH",
"299 166 OFFCURVE",
"344 226 OFFCURVE",
"411 313 CURVE SMOOTH",
"465 383 OFFCURVE",
"503 433 OFFCURVE",
"550 433 CURVE SMOOTH",
"585 433 OFFCURVE",
"610 405 OFFCURVE",
"610 368 CURVE SMOOTH",
"610 306 OFFCURVE",
"542 234 OFFCURVE",
"484 193 CURVE",
"412 170 OFFCURVE",
"350 136 OFFCURVE",
"350 95 CURVE SMOOTH",
"350 60 OFFCURVE",
"388 15 OFFCURVE",
"423 15 CURVE SMOOTH"
);
}
);
width = 980;
},
{
anchors = (
{
name = bottom;
position = "{769, -128}";
},
{
name = nukta;
position = "{508, 540}";
},
{
name = rakar;
position = "{799, 106}";
},
{
name = top;
position = "{1256, 918}";
}
);
layerId = "A430B39A-257A-41FC-BEA9-652C696FFEF7";
paths = (
{
closed = 1;
nodes = (
"823 -164 LINE",
"856 1 OFFCURVE",
"900 205 OFFCURVE",
"937 376 CURVE SMOOTH",
"970 529 OFFCURVE",
"994 623 OFFCURVE",
"1020 683 CURVE SMOOTH",
"1050 753 OFFCURVE",
"1100 801 OFFCURVE",
"1184 801 CURVE SMOOTH",
"1245 801 OFFCURVE",
"1309 771 OFFCURVE",
"1351 727 CURVE",
"1364 732 LINE",
"1348 829 LINE",
"1283 888 OFFCURVE",
"1215 918 OFFCURVE",
"1140 918 CURVE SMOOTH",
"1041 918 OFFCURVE",
"969 871 OFFCURVE",
"922 782 CURVE SMOOTH",
"884 710 OFFCURVE",
"860 608 OFFCURVE",
"833 477 CURVE SMOOTH",
"758 119 LINE",
"796 125 LINE",
"761 169 OFFCURVE",
"717 187 OFFCURVE",
"664 187 CURVE SMOOTH",
"650 187 OFFCURVE",
"635 185 OFFCURVE",
"620 181 CURVE",
"607 98 LINE",
"621 107 OFFCURVE",
"641 113 OFFCURVE",
"661 113 CURVE SMOOTH",
"694 113 OFFCURVE",
"729 95 OFFCURVE",
"729 43 CURVE SMOOTH",
"729 10 OFFCURVE",
"721 -39 OFFCURVE",
"708 -108 CURVE",
"790 -169 LINE"
);
},
{
closed = 1;
nodes = (
"545 -16 OFFCURVE",
"722 182 OFFCURVE",
"722 318 CURVE SMOOTH",
"722 422 OFFCURVE",
"637 528 OFFCURVE",
"536 528 CURVE SMOOTH",
"464 528 OFFCURVE",
"415 490 OFFCURVE",
"342 386 CURVE SMOOTH",
"270 283 OFFCURVE",
"236 244 OFFCURVE",
"186 244 CURVE SMOOTH",
"158 244 OFFCURVE",
"142 262 OFFCURVE",
"142 291 CURVE SMOOTH",
"142 344 OFFCURVE",
"191 392 OFFCURVE",
"238 392 CURVE SMOOTH",
"279 392 OFFCURVE",
"296 355 OFFCURVE",
"304 293 CURVE",
"360 338 LINE",
"346 439 OFFCURVE",
"300 511 OFFCURVE",
"202 511 CURVE SMOOTH",
"108 511 OFFCURVE",
"30 435 OFFCURVE",
"30 341 CURVE SMOOTH",
"30 240 OFFCURVE",
"127 145 OFFCURVE",
"234 145 CURVE SMOOTH",
"324 145 OFFCURVE",
"383 214 OFFCURVE",
"449 300 CURVE SMOOTH",
"519 391 OFFCURVE",
"555 418 OFFCURVE",
"585 418 CURVE SMOOTH",
"615 418 OFFCURVE",
"631 394 OFFCURVE",
"630 363 CURVE SMOOTH",
"628 314 OFFCURVE",
"570 240 OFFCURVE",
"516 202 CURVE",
"444 179 OFFCURVE",
"361 140 OFFCURVE",
"361 84 CURVE SMOOTH",
"361 37 OFFCURVE",
"406 -16 OFFCURVE",
"453 -16 CURVE SMOOTH"
);
}
);
width = 1057;
}
);
leftKerningGroup = DA;
leftMetricsKey = "ka-khoj.alt";
rightKerningGroup = HI;
rightMetricsKey = "ka_iMatra-khoj";
script = khoj;
},
{
color = 1;
glyphname = "ka_iiMatra-khoj.alt";
lastChange = "2020-12-02 21:56:54 +0000";
layers = (
{
anchors = (
{
name = bottom;
position = "{863, -99}";
},
{
name = nukta;
position = "{480, 536}";
},
{
name = rakar;
position = "{742, 116}";
},
{
name = top;
position = "{1054, 539}";
}
);
layerId = "0717401B-DDB5-4983-85F2-A81AFE530D5E";
paths = (
{
closed = 1;
nodes = (
"1180 -240 OFFCURVE",
"1220 -223 OFFCURVE",
"1221 -186 CURVE SMOOTH",
"1222 -157 OFFCURVE",
"1198 -133 OFFCURVE",
"1167 -114 CURVE",
"1156 -139 OFFCURVE",
"1123 -158 OFFCURVE",
"1091 -158 CURVE SMOOTH",
"1054 -158 OFFCURVE",
"1039 -132 OFFCURVE",
"1039 -66 CURVE SMOOTH",
"1039 40 OFFCURVE",
"1077 188 OFFCURVE",
"1077 285 CURVE SMOOTH",
"1077 411 OFFCURVE",
"1018 544 OFFCURVE",
"940 544 CURVE SMOOTH",
"900 544 OFFCURVE",
"862 509 OFFCURVE",
"826 432 CURVE SMOOTH",
"791 357 OFFCURVE",
"756 246 OFFCURVE",
"718 116 CURVE",
"753 96 LINE",
"736 146 OFFCURVE",
"689 193 OFFCURVE",
"607 193 CURVE SMOOTH",
"600 193 OFFCURVE",
"593 193 OFFCURVE",
"585 192 CURVE",
"566 133 LINE",
"582 139 OFFCURVE",
"597 141 OFFCURVE",
"611 141 CURVE SMOOTH",
"665 141 OFFCURVE",
"698 117 OFFCURVE",
"698 67 CURVE SMOOTH",
"698 39 OFFCURVE",
"690 -4 OFFCURVE",
"675 -58 CURVE",
"732 -126 LINE",
"749 -122 LINE",
"767 -31 OFFCURVE",
"804 133 OFFCURVE",
"850 263 CURVE SMOOTH",
"893 386 OFFCURVE",
"931 463 OFFCURVE",
"965 463 CURVE SMOOTH",
"990 463 OFFCURVE",
"999 410 OFFCURVE",
"999 365 CURVE SMOOTH",
"999 266 OFFCURVE",
"957 87 OFFCURVE",
"957 -4 CURVE SMOOTH",
"957 -132 OFFCURVE",
"1039 -240 OFFCURVE",
"1140 -240 CURVE SMOOTH"
);
},
{
closed = 1;
nodes = (
"497 15 OFFCURVE",
"670 214 OFFCURVE",
"670 333 CURVE SMOOTH",
"670 409 OFFCURVE",
"606 509 OFFCURVE",
"512 509 CURVE SMOOTH",
"447 509 OFFCURVE",
"400 453 OFFCURVE",
"340 372 CURVE SMOOTH",
"281 292 OFFCURVE",
"244 237 OFFCURVE",
"185 237 CURVE SMOOTH",
"150 237 OFFCURVE",
"125 256 OFFCURVE",
"125 297 CURVE SMOOTH",
"125 352 OFFCURVE",
"169 405 OFFCURVE",
"227 405 CURVE SMOOTH",
"275 405 OFFCURVE",
"291 347 OFFCURVE",
"294 284 CURVE",
"333 316 LINE",
"328 410 OFFCURVE",
"283 486 OFFCURVE",
"194 486 CURVE SMOOTH",
"110 486 OFFCURVE",
"45 415 OFFCURVE",
"45 338 CURVE SMOOTH",
"45 252 OFFCURVE",
"128 166 OFFCURVE",
"221 166 CURVE SMOOTH",
"299 166 OFFCURVE",
"344 226 OFFCURVE",
"411 313 CURVE SMOOTH",
"465 383 OFFCURVE",
"503 433 OFFCURVE",
"550 433 CURVE SMOOTH",
"585 433 OFFCURVE",
"610 405 OFFCURVE",
"610 368 CURVE SMOOTH",
"610 306 OFFCURVE",
"542 234 OFFCURVE",
"484 193 CURVE",
"412 170 OFFCURVE",
"350 136 OFFCURVE",
"350 95 CURVE SMOOTH",
"350 60 OFFCURVE",
"388 15 OFFCURVE",
"423 15 CURVE SMOOTH"
);
}
);
width = 1151;
},
{
anchors = (
{
name = bottom;
position = "{891, -142}";
},
{
name = nukta;
position = "{487, 540}";
},
{
name = rakar;
position = "{786, 50}";
},
{
name = top;
position = "{1099, 568}";
}
);
layerId = "A430B39A-257A-41FC-BEA9-652C696FFEF7";
paths = (
{
closed = 1;
nodes = (
"1255 -262 OFFCURVE",
"1299 -234 OFFCURVE",
"1300 -189 CURVE SMOOTH",
"1301 -152 OFFCURVE",
"1274 -122 OFFCURVE",
"1237 -101 CURVE",
"1215 -135 OFFCURVE",
"1187 -157 OFFCURVE",
"1153 -157 CURVE SMOOTH",
"1121 -157 OFFCURVE",
"1102 -136 OFFCURVE",
"1102 -81 CURVE SMOOTH",
"1102 31 OFFCURVE",
"1139 180 OFFCURVE",
"1139 279 CURVE SMOOTH",
"1139 421 OFFCURVE",
"1056 567 OFFCURVE",
"972 567 CURVE SMOOTH",
"922 567 OFFCURVE",
"881 527 OFFCURVE",
"843 441 CURVE SMOOTH",
"809 365 OFFCURVE",
"779 269 OFFCURVE",
"743 145 CURVE",
"774 146 LINE",
"751 183 OFFCURVE",
"720 200 OFFCURVE",
"673 200 CURVE SMOOTH",
"660 200 OFFCURVE",
"646 199 OFFCURVE",
"631 196 CURVE",
"609 110 LINE",
"625 117 OFFCURVE",
"641 120 OFFCURVE",
"657 120 CURVE SMOOTH",
"699 120 OFFCURVE",
"716 102 OFFCURVE",
"716 60 CURVE SMOOTH",
"716 31 OFFCURVE",
"707 -12 OFFCURVE",
"693 -65 CURVE",
"773 -155 LINE",
"805 -150 LINE",
"822 -62 OFFCURVE",
"870 132 OFFCURVE",
"910 256 CURVE SMOOTH",
"953 388 OFFCURVE",
"978 440 OFFCURVE",
"1000 440 CURVE SMOOTH",
"1011 440 OFFCURVE",
"1020 421 OFFCURVE",
"1020 380 CURVE SMOOTH",
"1020 287 OFFCURVE",
"983 110 OFFCURVE",
"983 16 CURVE SMOOTH",
"983 -128 OFFCURVE",
"1074 -262 OFFCURVE",
"1198 -262 CURVE SMOOTH"
);
},
{
closed = 1;
nodes = (
"545 -16 OFFCURVE",
"722 182 OFFCURVE",
"722 318 CURVE SMOOTH",
"722 422 OFFCURVE",
"637 528 OFFCURVE",
"536 528 CURVE SMOOTH",
"464 528 OFFCURVE",
"415 490 OFFCURVE",
"342 386 CURVE SMOOTH",
"270 283 OFFCURVE",
"236 244 OFFCURVE",
"186 244 CURVE SMOOTH",
"158 244 OFFCURVE",
"142 262 OFFCURVE",
"142 291 CURVE SMOOTH",
"142 344 OFFCURVE",
"191 392 OFFCURVE",
"238 392 CURVE SMOOTH",
"279 392 OFFCURVE",
"296 355 OFFCURVE",
"304 293 CURVE",
"360 338 LINE",
"346 439 OFFCURVE",
"300 511 OFFCURVE",
"202 511 CURVE SMOOTH",
"108 511 OFFCURVE",
"30 435 OFFCURVE",
"30 341 CURVE SMOOTH",
"30 240 OFFCURVE",
"127 145 OFFCURVE",
"234 145 CURVE SMOOTH",
"324 145 OFFCURVE",
"383 214 OFFCURVE",
"449 300 CURVE SMOOTH",
"519 391 OFFCURVE",
"555 418 OFFCURVE",
"585 418 CURVE SMOOTH",
"615 418 OFFCURVE",
"631 394 OFFCURVE",
"630 363 CURVE SMOOTH",
"628 314 OFFCURVE",
"570 240 OFFCURVE",
"516 202 CURVE",
"444 179 OFFCURVE",
"361 140 OFFCURVE",
"361 84 CURVE SMOOTH",
"361 37 OFFCURVE",
"406 -16 OFFCURVE",
"453 -16 CURVE SMOOTH"
);
}
);
width = 1214;
}
);
leftKerningGroup = DA;
leftMetricsKey = "ka-khoj.alt";
note = kj_KA;
rightKerningGroup = HII;
rightMetricsKey = "ka_iiMatra-khoj";
script = khoj;
category = Letter;
},
{
color = 1;
glyphname = "ka_uMatra-khoj.alt";
lastChange = "2020-12-02 21:56:54 +0000";
layers = (
{
anchors = (
{
name = bottom;
position = "{520, -179}";
},
{
name = nukta;
position = "{454, 536}";
},
{
name = top;
position = "{659, 516}";
}
);
layerId = "0717401B-DDB5-4983-85F2-A81AFE530D5E";
paths = (
{
closed = 1;
nodes = (
"520 15 OFFCURVE",
"693 214 OFFCURVE",
"693 333 CURVE SMOOTH",
"693 409 OFFCURVE",
"629 509 OFFCURVE",
"535 509 CURVE SMOOTH",
"470 509 OFFCURVE",
"423 453 OFFCURVE",
"363 372 CURVE SMOOTH",
"304 292 OFFCURVE",
"267 237 OFFCURVE",
"208 237 CURVE SMOOTH",
"173 237 OFFCURVE",
"148 256 OFFCURVE",
"148 297 CURVE SMOOTH",
"148 352 OFFCURVE",
"192 405 OFFCURVE",
"250 405 CURVE SMOOTH",
"298 405 OFFCURVE",
"314 347 OFFCURVE",
"317 284 CURVE",
"356 316 LINE",
"351 410 OFFCURVE",
"306 486 OFFCURVE",
"217 486 CURVE SMOOTH",
"133 486 OFFCURVE",
"68 415 OFFCURVE",
"68 338 CURVE SMOOTH",
"68 252 OFFCURVE",
"151 166 OFFCURVE",
"244 166 CURVE SMOOTH",
"322 166 OFFCURVE",
"367 226 OFFCURVE",
"434 313 CURVE SMOOTH",
"488 383 OFFCURVE",
"526 433 OFFCURVE",
"573 433 CURVE SMOOTH",
"608 433 OFFCURVE",
"633 405 OFFCURVE",
"633 368 CURVE SMOOTH",
"633 306 OFFCURVE",
"565 234 OFFCURVE",
"507 193 CURVE",
"435 170 OFFCURVE",
"373 136 OFFCURVE",
"373 95 CURVE SMOOTH",
"373 60 OFFCURVE",
"411 15 OFFCURVE",
"446 15 CURVE SMOOTH"
);
},
{
closed = 1;
nodes = (
"670 -191 OFFCURVE",
"793 -111 OFFCURVE",
"793 17 CURVE SMOOTH",
"793 139 OFFCURVE",
"681 201 OFFCURVE",
"593 201 CURVE",
"580 129 LINE",
"596 136 OFFCURVE",
"612 140 OFFCURVE",
"628 140 CURVE SMOOTH",
"678 140 OFFCURVE",
"720 110 OFFCURVE",
"720 50 CURVE SMOOTH",
"720 -45 OFFCURVE",
"622 -108 OFFCURVE",
"490 -108 CURVE SMOOTH",
"327 -108 OFFCURVE",
"169 -5 OFFCURVE",
"60 146 CURVE",
"52 142 LINE",
"45 86 LINE",
"156 -76 OFFCURVE",
"340 -191 OFFCURVE",
"521 -191 CURVE SMOOTH"
);
}
);
width = 823;
},
{
anchors = (
{
name = bottom;
position = "{535, -189}";
},
{
name = nukta;
position = "{469, 536}";
},
{
name = top;
position = "{674, 516}";
}
);
layerId = "A430B39A-257A-41FC-BEA9-652C696FFEF7";
paths = (
{
closed = 1;
nodes = (
"559 -16 OFFCURVE",
"736 182 OFFCURVE",
"736 318 CURVE SMOOTH",
"736 422 OFFCURVE",
"651 528 OFFCURVE",
"550 528 CURVE SMOOTH",
"478 528 OFFCURVE",
"429 490 OFFCURVE",
"356 386 CURVE SMOOTH",
"284 283 OFFCURVE",
"250 244 OFFCURVE",
"200 244 CURVE SMOOTH",
"172 244 OFFCURVE",
"156 262 OFFCURVE",
"156 291 CURVE SMOOTH",
"156 344 OFFCURVE",
"205 392 OFFCURVE",
"252 392 CURVE SMOOTH",
"293 392 OFFCURVE",
"310 355 OFFCURVE",
"318 293 CURVE",
"374 338 LINE",
"360 439 OFFCURVE",
"314 511 OFFCURVE",
"216 511 CURVE SMOOTH",
"122 511 OFFCURVE",
"44 435 OFFCURVE",
"44 341 CURVE SMOOTH",
"44 240 OFFCURVE",
"141 145 OFFCURVE",
"248 145 CURVE SMOOTH",
"338 145 OFFCURVE",
"397 214 OFFCURVE",
"463 300 CURVE SMOOTH",
"533 391 OFFCURVE",
"569 418 OFFCURVE",
"599 418 CURVE SMOOTH",
"629 418 OFFCURVE",
"645 394 OFFCURVE",
"644 363 CURVE SMOOTH",
"642 314 OFFCURVE",
"584 240 OFFCURVE",
"530 202 CURVE",
"458 179 OFFCURVE",
"375 140 OFFCURVE",
"375 84 CURVE SMOOTH",
"375 37 OFFCURVE",
"420 -16 OFFCURVE",
"467 -16 CURVE SMOOTH"
);
},
{
closed = 1;
nodes = (
"737 -223 OFFCURVE",
"843 -127 OFFCURVE",
"843 3 CURVE SMOOTH",
"843 122 OFFCURVE",
"736 207 OFFCURVE",
"605 209 CURVE",
"594 71 LINE",
"619 93 OFFCURVE",
"646 105 OFFCURVE",
"680 105 CURVE SMOOTH",
"713 105 OFFCURVE",
"736 86 OFFCURVE",
"736 47 CURVE SMOOTH",
"736 -33 OFFCURVE",
"643 -98 OFFCURVE",
"505 -98 CURVE SMOOTH",
"339 -98 OFFCURVE",
"187 -16 OFFCURVE",
"58 155 CURVE",
"44 153 LINE",
"30 72 LINE",
"154 -110 OFFCURVE",
"340 -223 OFFCURVE",
"549 -223 CURVE SMOOTH"
);
}
);
width = 858;
}
);
leftKerningGroup = KU;
rightKerningGroup = KA;
rightMetricsKey = "ka_uMatra-khoj";
script = khoj;
},
{
color = 3;
glyphname = "k_ra_uMatra-khoj.alt";
lastChange = "2020-12-02 21:56:54 +0000";
layers = (
{
anchors = (
{
name = bottom;
position = "{571, -225}";
},
{
name = nukta;
position = "{455, 536}";
},
{
name = top;
position = "{660, 516}";
}
);
layerId = "0717401B-DDB5-4983-85F2-A81AFE530D5E";
paths = (
{
closed = 1;
nodes = (
"726 -228 OFFCURVE",
"844 -148 OFFCURVE",
"844 -3 CURVE SMOOTH",
"844 117 OFFCURVE",
"729 202 OFFCURVE",
"594 202 CURVE",
"581 130 LINE",
"602 135 OFFCURVE",
"623 138 OFFCURVE",
"642 138 CURVE SMOOTH",
"714 138 OFFCURVE",
"774 98 OFFCURVE",
"774 25 CURVE SMOOTH",
"774 -78 OFFCURVE",
"679 -144 OFFCURVE",
"543 -144 CURVE SMOOTH",
"352 -144 OFFCURVE",
"186 -22 OFFCURVE",
"60 146 CURVE",
"52 142 LINE",
"45 86 LINE",
"171 -91 OFFCURVE",
"360 -228 OFFCURVE",
"574 -228 CURVE SMOOTH"
);
},
{
closed = 1;
nodes = (
"520 15 OFFCURVE",
"693 214 OFFCURVE",
"693 333 CURVE SMOOTH",
"693 409 OFFCURVE",
"629 509 OFFCURVE",
"535 509 CURVE SMOOTH",
"470 509 OFFCURVE",
"423 453 OFFCURVE",
"363 372 CURVE SMOOTH",
"304 292 OFFCURVE",
"267 237 OFFCURVE",
"208 237 CURVE SMOOTH",
"173 237 OFFCURVE",
"148 256 OFFCURVE",
"148 297 CURVE SMOOTH",
"148 352 OFFCURVE",
"192 405 OFFCURVE",
"250 405 CURVE SMOOTH",
"298 405 OFFCURVE",
"314 347 OFFCURVE",
"317 284 CURVE",
"356 316 LINE",
"351 410 OFFCURVE",
"306 486 OFFCURVE",
"217 486 CURVE SMOOTH",
"133 486 OFFCURVE",
"68 415 OFFCURVE",
"68 338 CURVE SMOOTH",
"68 252 OFFCURVE",
"151 166 OFFCURVE",
"244 166 CURVE SMOOTH",
"322 166 OFFCURVE",
"367 226 OFFCURVE",
"434 313 CURVE SMOOTH",
"488 383 OFFCURVE",
"526 433 OFFCURVE",
"573 433 CURVE SMOOTH",
"608 433 OFFCURVE",
"633 405 OFFCURVE",
"633 368 CURVE SMOOTH",
"633 306 OFFCURVE",
"565 234 OFFCURVE",
"507 193 CURVE",
"435 170 OFFCURVE",
"373 136 OFFCURVE",
"373 95 CURVE SMOOTH",
"373 60 OFFCURVE",
"411 15 OFFCURVE",
"447 15 CURVE SMOOTH"
);
},
{
closed = 1;
nodes = (
"784 65 LINE",
"735 124 LINE",
"548 -13 LINE",
"548 -20 LINE",
"609 -73 LINE"
);
}
);
width = 874;
},
{
anchors = (
{
name = bottom;
position = "{593, -264}";
},
{
name = nukta;
position = "{465, 536}";
},
{
name = top;
position = "{670, 516}";
}
);
layerId = "A430B39A-257A-41FC-BEA9-652C696FFEF7";
paths = (
{
closed = 1;
nodes = (
"767 -277 OFFCURVE",
"891 -187 OFFCURVE",
"891 -38 CURVE SMOOTH",
"891 92 OFFCURVE",
"753 207 OFFCURVE",
"610 209 CURVE",
"599 71 LINE",
"624 93 OFFCURVE",
"651 105 OFFCURVE",
"685 105 CURVE SMOOTH",
"738 105 OFFCURVE",
"790 55 OFFCURVE",
"790 14 CURVE SMOOTH",
"790 -94 OFFCURVE",
"692 -152 OFFCURVE",
"562 -152 CURVE SMOOTH",
"363 -152 OFFCURVE",
"184 -33 OFFCURVE",
"67 136 CURVE",
"53 135 LINE",
"30 56 LINE",
"149 -133 OFFCURVE",
"371 -277 OFFCURVE",
"598 -277 CURVE SMOOTH"
);
},
{
closed = 1;
nodes = (
"555 -16 OFFCURVE",
"732 182 OFFCURVE",
"732 318 CURVE SMOOTH",
"732 422 OFFCURVE",
"647 528 OFFCURVE",
"546 528 CURVE SMOOTH",
"474 528 OFFCURVE",
"425 490 OFFCURVE",
"352 386 CURVE SMOOTH",
"280 283 OFFCURVE",
"246 244 OFFCURVE",
"196 244 CURVE SMOOTH",
"168 244 OFFCURVE",
"152 262 OFFCURVE",
"152 291 CURVE SMOOTH",
"152 344 OFFCURVE",
"201 392 OFFCURVE",
"248 392 CURVE SMOOTH",
"289 392 OFFCURVE",
"306 355 OFFCURVE",
"314 293 CURVE",
"370 338 LINE",
"356 439 OFFCURVE",
"310 511 OFFCURVE",
"212 511 CURVE SMOOTH",
"118 511 OFFCURVE",
"40 435 OFFCURVE",
"40 341 CURVE SMOOTH",
"40 240 OFFCURVE",
"137 145 OFFCURVE",
"244 145 CURVE SMOOTH",
"334 145 OFFCURVE",
"393 214 OFFCURVE",
"459 300 CURVE SMOOTH",
"529 391 OFFCURVE",
"565 418 OFFCURVE",
"595 418 CURVE SMOOTH",
"625 418 OFFCURVE",
"641 394 OFFCURVE",
"640 363 CURVE SMOOTH",
"638 314 OFFCURVE",
"580 240 OFFCURVE",
"526 202 CURVE",
"454 179 OFFCURVE",
"371 140 OFFCURVE",
"371 84 CURVE SMOOTH",
"371 37 OFFCURVE",
"416 -16 OFFCURVE",
"463 -16 CURVE SMOOTH"
);
},
{
closed = 1;
nodes = (
"823 43 LINE",
"759 118 LINE",
"553 -33 LINE",
"553 -50 LINE",
"638 -107 LINE"
);
}
);
width = 906;
}
);
leftKerningGroup = KU;
leftMetricsKey = "ka_uMatra-khoj.alt";
rightKerningGroup = KA;
rightMetricsKey = "ka_uMatra-khoj";
script = khoj;
category = Letter;
},
{
color = 0;
glyphname = "k_ssa-khoj";
lastChange = "2020-12-02 21:56:54 +0000";
layers = (
{
anchors = (
{
name = bottom;
position = "{684, 31}";
},
{
name = nukta;
position = "{378, 600}";
},
{
name = top;
position = "{588, 600}";
}
);
layerId = "0717401B-DDB5-4983-85F2-A81AFE530D5E";
paths = (
{
closed = 1;
nodes = (
"334 -18 OFFCURVE",
"391 21 OFFCURVE",
"391 60 CURVE SMOOTH",
"391 92 OFFCURVE",
"352 147 OFFCURVE",
"313 147 CURVE SMOOTH",
"275 147 OFFCURVE",
"254 95 OFFCURVE",
"234 46 CURVE",
"266 72 LINE",
"250 68 OFFCURVE",
"232 65 OFFCURVE",
"215 65 CURVE SMOOTH",
"165 65 OFFCURVE",
"119 87 OFFCURVE",
"119 141 CURVE SMOOTH",
"119 198 OFFCURVE",
"169 230 OFFCURVE",
"227 269 CURVE SMOOTH",
"301 319 OFFCURVE",
"368 367 OFFCURVE",
"368 445 CURVE SMOOTH",
"368 528 OFFCURVE",
"293 604 OFFCURVE",
"202 604 CURVE SMOOTH",
"131 604 OFFCURVE",
"81 558 OFFCURVE",
"81 489 CURVE SMOOTH",
"81 367 OFFCURVE",
"237 237 OFFCURVE",
"373 237 CURVE SMOOTH",
"430 237 OFFCURVE",
"509 265 OFFCURVE",
"556 300 CURVE",
"537 389 LINE",
"494 341 OFFCURVE",
"405 301 OFFCURVE",
"332 301 CURVE SMOOTH",
"237 301 OFFCURVE",
"161 364 OFFCURVE",
"161 451 CURVE SMOOTH",
"161 505 OFFCURVE",
"191 542 OFFCURVE",
"235 542 CURVE SMOOTH",
"274 542 OFFCURVE",
"299 514 OFFCURVE",
"299 477 CURVE SMOOTH",
"299 420 OFFCURVE",
"238 377 OFFCURVE",
"168 329 CURVE SMOOTH",
"86 272 OFFCURVE",
"45 236 OFFCURVE",
"45 177 CURVE SMOOTH",
"45 86 OFFCURVE",
"140 -20 OFFCURVE",
"261 -19 CURVE SMOOTH"
);
},
{
closed = 1;
nodes = (
"416 -240 OFFCURVE",
"468 -222 OFFCURVE",
"468 -189 CURVE SMOOTH",
"468 -174 OFFCURVE",
"460 -144 OFFCURVE",
"451 -127 CURVE",
"421 -144 OFFCURVE",
"383 -156 OFFCURVE",
"349 -156 CURVE SMOOTH",
"293 -156 OFFCURVE",
"273 -123 OFFCURVE",
"273 -76 CURVE SMOOTH",
"273 -42 OFFCURVE",
"284 -5 OFFCURVE",
"312 28 CURVE",
"237 45 LINE",
"226 9 OFFCURVE",
"222 -21 OFFCURVE",
"222 -49 CURVE SMOOTH",
"222 -162 OFFCURVE",
"286 -240 OFFCURVE",
"374 -240 CURVE SMOOTH"
);
},
{
closed = 1;
nodes = (
"582 0 LINE",
"604 84 OFFCURVE",
"616 192 OFFCURVE",
"616 293 CURVE SMOOTH",
"616 400 OFFCURVE",
"602 514 OFFCURVE",
"578 600 CURVE",
"502 600 LINE",
"522 516 OFFCURVE",
"534 430 OFFCURVE",
"534 340 CURVE SMOOTH",
"534 253 OFFCURVE",
"523 164 OFFCURVE",
"502 83 CURVE",
"505 70 OFFCURVE",
"544 4 OFFCURVE",
"558 -9 CURVE"
);
}
);
width = 701;
},
{
anchors = (
{
name = bottom;
position = "{770, 10}";
},
{
name = nukta;
position = "{389, 600}";
},
{
name = top;
position = "{642, 613}";
}
);
layerId = "A430B39A-257A-41FC-BEA9-652C696FFEF7";
paths = (
{
closed = 1;
nodes = (
"356 -49 OFFCURVE",
"424 -3 OFFCURVE",
"424 49 CURVE SMOOTH",
"424 100 OFFCURVE",
"372 164 OFFCURVE",
"325 164 CURVE SMOOTH",
"289 164 OFFCURVE",
"258 133 OFFCURVE",
"230 60 CURVE",
"265 88 LINE",
"247 80 OFFCURVE",
"227 76 OFFCURVE",
"208 76 CURVE SMOOTH",
"171 76 OFFCURVE",
"138 92 OFFCURVE",
"138 128 CURVE SMOOTH",
"138 177 OFFCURVE",
"190 214 OFFCURVE",
"248 254 CURVE SMOOTH",
"322 305 OFFCURVE",
"403 354 OFFCURVE",
"403 442 CURVE SMOOTH",
"403 541 OFFCURVE",
"314 628 OFFCURVE",
"203 628 CURVE SMOOTH",
"116 628 OFFCURVE",
"55 576 OFFCURVE",
"55 494 CURVE SMOOTH",
"55 356 OFFCURVE",
"238 207 OFFCURVE",
"396 207 CURVE SMOOTH",
"476 207 OFFCURVE",
"558 247 OFFCURVE",
"591 276 CURVE",
"570 414 LINE",
"513 342 OFFCURVE",
"405 306 OFFCURVE",
"332 306 CURVE SMOOTH",
"236 306 OFFCURVE",
"177 366 OFFCURVE",
"177 433 CURVE SMOOTH",
"177 488 OFFCURVE",
"216 527 OFFCURVE",
"256 527 CURVE SMOOTH",
"282 527 OFFCURVE",
"298 511 OFFCURVE",
"298 485 CURVE SMOOTH",
"298 448 OFFCURVE",
"262 411 OFFCURVE",
"167 347 CURVE SMOOTH",
"65 278 OFFCURVE",
"30 237 OFFCURVE",
"30 171 CURVE SMOOTH",
"30 63 OFFCURVE",
"148 -49 OFFCURVE",
"271 -49 CURVE SMOOTH"
);
},
{
closed = 1;
nodes = (
"447 -258 OFFCURVE",
"505 -235 OFFCURVE",
"505 -181 CURVE SMOOTH",
"505 -150 OFFCURVE",
"486 -115 OFFCURVE",
"464 -95 CURVE",
"432 -118 OFFCURVE",
"398 -131 OFFCURVE",
"353 -131 CURVE SMOOTH",
"310 -131 OFFCURVE",
"292 -115 OFFCURVE",
"292 -87 CURVE SMOOTH",
"292 -59 OFFCURVE",
"309 -31 OFFCURVE",
"328 -8 CURVE",
"225 26 LINE",
"216 -4 OFFCURVE",
"212 -33 OFFCURVE",
"212 -61 CURVE SMOOTH",
"212 -181 OFFCURVE",
"283 -258 OFFCURVE",
"385 -258 CURVE SMOOTH"
);
},
{
closed = 1;
nodes = (
"641 -13 LINE",
"663 87 OFFCURVE",
"672 202 OFFCURVE",
"672 292 CURVE SMOOTH",
"672 396 OFFCURVE",
"660 501 OFFCURVE",
"634 613 CURVE",
"523 613 LINE",
"542 525 OFFCURVE",
"550 438 OFFCURVE",
"550 360 CURVE SMOOTH",
"550 269 OFFCURVE",
"539 176 OFFCURVE",
"515 85 CURVE",
"533 54 OFFCURVE",
"586 -9 OFFCURVE",
"603 -22 CURVE"
);
}
);
width = 747;
}
);
leftKerningGroup = KSSA;
note = KSSA;
rightKerningGroup = AA;
rightMetricsKey = "aaMatra-khoj";
script = khoj;
category = Letter;
},
{
color = 1;
glyphname = "k_ssa_iMatra-khoj";
lastChange = "2020-12-02 21:56:54 +0000";
layers = (
{
anchors = (
{
name = bottom;
position = "{706, 31}";
},
{
name = nukta;
position = "{400, 600}";
},
{
name = top;
position = "{1067, 892}";
}
);
layerId = "0717401B-DDB5-4983-85F2-A81AFE530D5E";
paths = (
{
closed = 1;
nodes = (
"603 -1 LINE",
"688 294 OFFCURVE",
"779 589 OFFCURVE",
"858 717 CURVE SMOOTH",
"898 781 OFFCURVE",
"947 814 OFFCURVE",
"1008 814 CURVE SMOOTH",
"1069 814 OFFCURVE",
"1123 782 OFFCURVE",
"1164 736 CURVE",
"1173 738 LINE",
"1168 809 LINE",
"1122 859 OFFCURVE",
"1058 895 OFFCURVE",
"984 895 CURVE SMOOTH",
"906 895 OFFCURVE",
"845 858 OFFCURVE",
"800 792 CURVE SMOOTH",
"733 693 OFFCURVE",
"656 446 OFFCURVE",
"594 224 CURVE",
"606 208 LINE",
"608 237 OFFCURVE",
"610 265 OFFCURVE",
"610 303 CURVE SMOOTH",
"610 400 OFFCURVE",
"598 512 OFFCURVE",
"577 600 CURVE",
"502 600 LINE",
"528 496 OFFCURVE",
"538 391 OFFCURVE",
"538 280 CURVE SMOOTH",
"538 206 OFFCURVE",
"534 129 OFFCURVE",
"528 48 CURVE",
"590 -4 LINE"
);
},
{
closed = 1;
nodes = (
"416 -240 OFFCURVE",
"468 -222 OFFCURVE",
"468 -189 CURVE SMOOTH",
"468 -174 OFFCURVE",
"460 -144 OFFCURVE",
"451 -127 CURVE",
"421 -144 OFFCURVE",
"383 -156 OFFCURVE",
"349 -156 CURVE SMOOTH",
"293 -156 OFFCURVE",
"273 -123 OFFCURVE",
"273 -76 CURVE SMOOTH",
"273 -42 OFFCURVE",
"284 -5 OFFCURVE",
"312 28 CURVE",
"237 45 LINE",
"226 9 OFFCURVE",
"222 -21 OFFCURVE",
"222 -49 CURVE SMOOTH",
"222 -162 OFFCURVE",
"286 -240 OFFCURVE",
"374 -240 CURVE SMOOTH"
);
},
{
closed = 1;
nodes = (
"334 -18 OFFCURVE",
"391 21 OFFCURVE",
"391 60 CURVE SMOOTH",
"391 92 OFFCURVE",
"352 147 OFFCURVE",
"313 147 CURVE SMOOTH",
"275 147 OFFCURVE",
"254 95 OFFCURVE",
"234 46 CURVE",
"293 83 LINE",
"272 72 OFFCURVE",
"243 65 OFFCURVE",
"215 65 CURVE SMOOTH",
"165 65 OFFCURVE",
"119 87 OFFCURVE",
"119 141 CURVE SMOOTH",
"119 198 OFFCURVE",
"169 230 OFFCURVE",
"227 269 CURVE SMOOTH",
"301 319 OFFCURVE",
"368 367 OFFCURVE",
"368 445 CURVE SMOOTH",
"368 528 OFFCURVE",
"293 604 OFFCURVE",
"202 604 CURVE SMOOTH",
"131 604 OFFCURVE",
"81 558 OFFCURVE",
"81 489 CURVE SMOOTH",
"81 367 OFFCURVE",
"237 237 OFFCURVE",
"373 237 CURVE SMOOTH",
"444 237 OFFCURVE",
"518 272 OFFCURVE",
"556 300 CURVE",
"537 389 LINE",
"503 350 OFFCURVE",
"416 301 OFFCURVE",
"332 301 CURVE SMOOTH",
"237 301 OFFCURVE",
"161 364 OFFCURVE",
"161 451 CURVE SMOOTH",
"161 505 OFFCURVE",
"191 542 OFFCURVE",
"235 542 CURVE SMOOTH",
"274 542 OFFCURVE",
"299 514 OFFCURVE",
"299 477 CURVE SMOOTH",
"299 420 OFFCURVE",
"238 377 OFFCURVE",
"168 329 CURVE SMOOTH",
"83 270 OFFCURVE",
"45 236 OFFCURVE",
"45 178 CURVE SMOOTH",
"45 86 OFFCURVE",
"140 -21 OFFCURVE",
"261 -19 CURVE SMOOTH"
);
}
);
width = 853;
},
{
anchors = (
{
name = bottom;
position = "{759, 11}";
},
{
name = nukta;
position = "{389, 600}";
},
{
name = top;
position = "{1155, 918}";
}
);
layerId = "A430B39A-257A-41FC-BEA9-652C696FFEF7";
paths = (
{
closed = 1;
nodes = (
"659 -8 LINE",
"733 214 OFFCURVE",
"824 479 OFFCURVE",
"888 631 CURVE SMOOTH",
"944 764 OFFCURVE",
"1009 801 OFFCURVE",
"1084 801 CURVE SMOOTH",
"1142 801 OFFCURVE",
"1206 771 OFFCURVE",
"1248 727 CURVE",
"1261 732 LINE",
"1245 829 LINE",
"1180 888 OFFCURVE",
"1113 918 OFFCURVE",
"1038 918 CURVE SMOOTH",
"932 918 OFFCURVE",
"853 859 OFFCURVE",
"792 720 CURVE SMOOTH",
"744 610 OFFCURVE",
"691 439 OFFCURVE",
"628 219 CURVE",
"654 176 LINE",
"658 214 OFFCURVE",
"660 256 OFFCURVE",
"660 299 CURVE SMOOTH",
"660 404 OFFCURVE",
"651 520 OFFCURVE",
"632 613 CURVE",
"523 613 LINE",
"546 503 OFFCURVE",
"557 388 OFFCURVE",
"557 267 CURVE SMOOTH",
"557 197 OFFCURVE",
"554 126 OFFCURVE",
"547 53 CURVE",
"624 -17 LINE"
);
},
{
closed = 1;
nodes = (
"447 -258 OFFCURVE",
"505 -235 OFFCURVE",
"505 -181 CURVE SMOOTH",
"505 -150 OFFCURVE",
"486 -115 OFFCURVE",
"464 -95 CURVE",
"432 -118 OFFCURVE",
"398 -131 OFFCURVE",
"353 -131 CURVE SMOOTH",
"310 -131 OFFCURVE",
"292 -115 OFFCURVE",
"292 -87 CURVE SMOOTH",
"292 -59 OFFCURVE",
"309 -31 OFFCURVE",
"328 -8 CURVE",
"225 26 LINE",
"216 -4 OFFCURVE",
"212 -33 OFFCURVE",
"212 -61 CURVE SMOOTH",
"212 -181 OFFCURVE",
"283 -258 OFFCURVE",
"385 -258 CURVE SMOOTH"
);
},
{
closed = 1;
nodes = (
"356 -49 OFFCURVE",
"424 -3 OFFCURVE",
"424 49 CURVE SMOOTH",
"424 100 OFFCURVE",
"372 164 OFFCURVE",
"325 164 CURVE SMOOTH",
"289 164 OFFCURVE",
"258 133 OFFCURVE",
"230 60 CURVE",
"265 88 LINE",
"247 80 OFFCURVE",
"227 76 OFFCURVE",
"208 76 CURVE SMOOTH",
"171 76 OFFCURVE",
"138 92 OFFCURVE",
"138 128 CURVE SMOOTH",
"138 177 OFFCURVE",
"190 214 OFFCURVE",
"248 254 CURVE SMOOTH",
"322 305 OFFCURVE",
"403 354 OFFCURVE",
"403 442 CURVE SMOOTH",
"403 541 OFFCURVE",
"314 628 OFFCURVE",
"203 628 CURVE SMOOTH",
"116 628 OFFCURVE",
"55 576 OFFCURVE",
"55 494 CURVE SMOOTH",
"55 356 OFFCURVE",
"238 207 OFFCURVE",
"396 207 CURVE SMOOTH",
"476 207 OFFCURVE",
"558 247 OFFCURVE",
"591 276 CURVE",
"570 414 LINE",
"513 342 OFFCURVE",
"405 306 OFFCURVE",
"332 306 CURVE SMOOTH",
"236 306 OFFCURVE",
"177 366 OFFCURVE",
"177 433 CURVE SMOOTH",
"177 488 OFFCURVE",
"216 527 OFFCURVE",
"256 527 CURVE SMOOTH",
"282 527 OFFCURVE",
"298 511 OFFCURVE",
"298 485 CURVE SMOOTH",
"298 448 OFFCURVE",
"262 411 OFFCURVE",
"167 347 CURVE SMOOTH",
"65 278 OFFCURVE",
"30 237 OFFCURVE",
"30 171 CURVE SMOOTH",
"30 63 OFFCURVE",
"148 -49 OFFCURVE",
"271 -49 CURVE SMOOTH"
);
}
);
width = 921;
}
);
leftKerningGroup = KSSA;
leftMetricsKey = "k_ssa-khoj";
rightKerningGroup = LI;
rightMetricsKey = "gga_iMatra-khoj";
script = khoj;
},
{
color = 1;
glyphname = "k_ssa_iiMatra-khoj";
lastChange = "2020-12-02 21:56:54 +0000";
layers = (
{
anchors = (
{
name = bottom;
position = "{718, -92}";
},
{
name = nukta;
position = "{400, 600}";
},
{
name = top;
position = "{939, 656}";
}
);
layerId = "0717401B-DDB5-4983-85F2-A81AFE530D5E";
paths = (
{
closed = 1;
nodes = (
"1083 -240 OFFCURVE",
"1122 -221 OFFCURVE",
"1124 -187 CURVE SMOOTH",
"1126 -154 OFFCURVE",
"1094 -129 OFFCURVE",
"1062 -114 CURVE",
"1052 -138 OFFCURVE",
"1020 -158 OFFCURVE",
"983 -158 CURVE SMOOTH",
"939 -158 OFFCURVE",
"919 -127 OFFCURVE",
"919 -54 CURVE SMOOTH",
"919 98 OFFCURVE",
"962 237 OFFCURVE",
"962 395 CURVE SMOOTH",
"962 519 OFFCURVE",
"908 661 OFFCURVE",
"823 661 CURVE SMOOTH",
"785 661 OFFCURVE",
"749 628 OFFCURVE",
"713 549 CURVE SMOOTH",
"675 465 OFFCURVE",
"630 332 OFFCURVE",
"592 209 CURVE",
"606 208 LINE",
"608 237 OFFCURVE",
"610 267 OFFCURVE",
"610 298 CURVE SMOOTH",
"610 401 OFFCURVE",
"598 512 OFFCURVE",
"577 600 CURVE",
"502 600 LINE",
"528 496 OFFCURVE",
"538 391 OFFCURVE",
"538 280 CURVE SMOOTH",
"538 206 OFFCURVE",
"534 129 OFFCURVE",
"528 48 CURVE",
"590 -4 LINE",
"603 -1 LINE",
"641 128 OFFCURVE",
"724 364 OFFCURVE",
"771 472 CURVE SMOOTH",
"800 539 OFFCURVE",
"828 578 OFFCURVE",
"852 578 CURVE SMOOTH",
"878 578 OFFCURVE",
"884 526 OFFCURVE",
"884 482 CURVE SMOOTH",
"884 352 OFFCURVE",
"837 145 OFFCURVE",
"837 27 CURVE SMOOTH",
"837 -107 OFFCURVE",
"906 -240 OFFCURVE",
"1043 -240 CURVE SMOOTH"
);
},
{
closed = 1;
nodes = (
"416 -240 OFFCURVE",
"468 -222 OFFCURVE",
"468 -189 CURVE SMOOTH",
"468 -174 OFFCURVE",
"460 -144 OFFCURVE",
"451 -127 CURVE",
"421 -144 OFFCURVE",
"383 -156 OFFCURVE",
"349 -156 CURVE SMOOTH",
"293 -156 OFFCURVE",
"273 -123 OFFCURVE",
"273 -76 CURVE SMOOTH",
"273 -42 OFFCURVE",
"284 -5 OFFCURVE",
"312 28 CURVE",
"237 45 LINE",
"226 9 OFFCURVE",
"222 -21 OFFCURVE",
"222 -49 CURVE SMOOTH",
"222 -162 OFFCURVE",
"286 -240 OFFCURVE",
"374 -240 CURVE SMOOTH"
);
},
{
closed = 1;
nodes = (
"334 -18 OFFCURVE",
"391 21 OFFCURVE",
"391 60 CURVE SMOOTH",
"391 92 OFFCURVE",
"352 147 OFFCURVE",
"313 147 CURVE SMOOTH",
"275 147 OFFCURVE",
"254 95 OFFCURVE",
"234 46 CURVE",
"293 83 LINE",
"272 72 OFFCURVE",
"243 65 OFFCURVE",
"215 65 CURVE SMOOTH",
"165 65 OFFCURVE",
"119 87 OFFCURVE",
"119 141 CURVE SMOOTH",
"119 198 OFFCURVE",
"169 230 OFFCURVE",
"227 269 CURVE SMOOTH",
"301 319 OFFCURVE",
"368 367 OFFCURVE",
"368 445 CURVE SMOOTH",
"368 528 OFFCURVE",
"293 604 OFFCURVE",
"202 604 CURVE SMOOTH",
"131 604 OFFCURVE",
"81 558 OFFCURVE",
"81 489 CURVE SMOOTH",
"81 367 OFFCURVE",
"237 237 OFFCURVE",
"373 237 CURVE SMOOTH",
"444 237 OFFCURVE",
"518 272 OFFCURVE",
"556 300 CURVE",
"537 389 LINE",
"503 350 OFFCURVE",
"416 301 OFFCURVE",
"332 301 CURVE SMOOTH",
"237 301 OFFCURVE",
"161 364 OFFCURVE",
"161 451 CURVE SMOOTH",
"161 505 OFFCURVE",
"191 542 OFFCURVE",
"235 542 CURVE SMOOTH",
"274 542 OFFCURVE",
"299 514 OFFCURVE",
"299 477 CURVE SMOOTH",
"299 420 OFFCURVE",
"238 377 OFFCURVE",
"168 329 CURVE SMOOTH",
"83 270 OFFCURVE",
"45 236 OFFCURVE",
"45 178 CURVE SMOOTH",
"45 86 OFFCURVE",
"140 -21 OFFCURVE",
"261 -19 CURVE SMOOTH"
);
}
);
width = 1054;
},
{
anchors = (
{
name = bottom;
position = "{752, -142}";
},
{
name = nukta;
position = "{389, 600}";
},
{
name = top;
position = "{1005, 683}";
}
);
layerId = "A430B39A-257A-41FC-BEA9-652C696FFEF7";
paths = (
{
closed = 1;
nodes = (
"1174 -262 OFFCURVE",
"1218 -234 OFFCURVE",
"1219 -189 CURVE SMOOTH",
"1220 -152 OFFCURVE",
"1186 -122 OFFCURVE",
"1147 -101 CURVE",
"1130 -135 OFFCURVE",
"1097 -157 OFFCURVE",
"1060 -157 CURVE SMOOTH",
"1022 -157 OFFCURVE",
"1001 -136 OFFCURVE",
"1001 -69 CURVE SMOOTH",
"1001 61 OFFCURVE",
"1048 245 OFFCURVE",
"1048 374 CURVE SMOOTH",
"1048 539 OFFCURVE",
"961 683 OFFCURVE",
"874 683 CURVE SMOOTH",
"826 683 OFFCURVE",
"786 646 OFFCURVE",
"748 557 CURVE SMOOTH",
"711 471 OFFCURVE",
"672 364 OFFCURVE",
"626 197 CURVE",
"654 176 LINE",
"658 214 OFFCURVE",
"660 256 OFFCURVE",
"660 299 CURVE SMOOTH",
"660 404 OFFCURVE",
"651 520 OFFCURVE",
"632 613 CURVE",
"523 613 LINE",
"546 503 OFFCURVE",
"557 388 OFFCURVE",
"557 267 CURVE SMOOTH",
"557 197 OFFCURVE",
"554 126 OFFCURVE",
"547 53 CURVE",
"624 -17 LINE",
"658 -8 LINE",
"712 148 OFFCURVE",
"793 350 OFFCURVE",
"834 449 CURVE SMOOTH",
"861 515 OFFCURVE",
"882 556 OFFCURVE",
"903 556 CURVE SMOOTH",
"916 556 OFFCURVE",
"925 537 OFFCURVE",
"925 496 CURVE SMOOTH",
"925 369 OFFCURVE",
"878 144 OFFCURVE",
"878 33 CURVE SMOOTH",
"878 -119 OFFCURVE",
"971 -262 OFFCURVE",
"1117 -262 CURVE SMOOTH"
);
},
{
closed = 1;
nodes = (
"447 -258 OFFCURVE",
"505 -235 OFFCURVE",
"505 -181 CURVE SMOOTH",
"505 -150 OFFCURVE",
"486 -115 OFFCURVE",
"464 -95 CURVE",
"432 -118 OFFCURVE",
"398 -131 OFFCURVE",
"353 -131 CURVE SMOOTH",
"310 -131 OFFCURVE",
"292 -115 OFFCURVE",
"292 -87 CURVE SMOOTH",
"292 -59 OFFCURVE",
"309 -31 OFFCURVE",
"328 -8 CURVE",
"225 26 LINE",
"216 -4 OFFCURVE",
"212 -33 OFFCURVE",
"212 -61 CURVE SMOOTH",
"212 -181 OFFCURVE",
"283 -258 OFFCURVE",
"385 -258 CURVE SMOOTH"
);
},
{
closed = 1;
nodes = (
"356 -49 OFFCURVE",
"424 -3 OFFCURVE",
"424 49 CURVE SMOOTH",
"424 100 OFFCURVE",
"372 164 OFFCURVE",
"325 164 CURVE SMOOTH",
"289 164 OFFCURVE",
"258 133 OFFCURVE",
"230 60 CURVE",
"265 88 LINE",
"247 80 OFFCURVE",
"227 76 OFFCURVE",
"208 76 CURVE SMOOTH",
"171 76 OFFCURVE",
"138 92 OFFCURVE",
"138 128 CURVE SMOOTH",
"138 177 OFFCURVE",
"190 214 OFFCURVE",
"248 254 CURVE SMOOTH",
"322 305 OFFCURVE",
"403 354 OFFCURVE",
"403 442 CURVE SMOOTH",
"403 541 OFFCURVE",
"314 628 OFFCURVE",
"203 628 CURVE SMOOTH",
"116 628 OFFCURVE",
"55 576 OFFCURVE",
"55 494 CURVE SMOOTH",
"55 356 OFFCURVE",
"238 207 OFFCURVE",
"396 207 CURVE SMOOTH",
"476 207 OFFCURVE",
"558 247 OFFCURVE",
"591 276 CURVE",
"570 414 LINE",
"513 342 OFFCURVE",
"405 306 OFFCURVE",
"332 306 CURVE SMOOTH",
"236 306 OFFCURVE",
"177 366 OFFCURVE",
"177 433 CURVE SMOOTH",
"177 488 OFFCURVE",
"216 527 OFFCURVE",
"256 527 CURVE SMOOTH",
"282 527 OFFCURVE",
"298 511 OFFCURVE",
"298 485 CURVE SMOOTH",
"298 448 OFFCURVE",
"262 411 OFFCURVE",
"167 347 CURVE SMOOTH",
"65 278 OFFCURVE",
"30 237 OFFCURVE",
"30 171 CURVE SMOOTH",
"30 63 OFFCURVE",
"148 -49 OFFCURVE",
"271 -49 CURVE SMOOTH"
);
}
);
width = 1133;
}
);
leftKerningGroup = KSSA;
leftMetricsKey = "k_ssa-khoj";
rightKerningGroup = LII;
rightMetricsKey = "gga_iiMatra-khoj";
script = khoj;
},
{
color = 1;
glyphname = "k_ssa_uMatra-khoj";
lastChange = "2020-12-02 21:56:54 +0000";
layers = (
{
anchors = (
{
name = bottom;
position = "{501, -329}";
},
{
name = nukta;
position = "{408, 600}";
},
{
name = top;
position = "{634, 600}";
}
);
layerId = "0717401B-DDB5-4983-85F2-A81AFE530D5E";
paths = (
{
closed = 1;
nodes = (
"348 28 OFFCURVE",
"405 67 OFFCURVE",
"405 106 CURVE SMOOTH",
"405 138 OFFCURVE",
"366 193 OFFCURVE",
"327 193 CURVE SMOOTH",
"289 193 OFFCURVE",
"266 141 OFFCURVE",
"246 92 CURVE",
"307 129 LINE",
"283 116 OFFCURVE",
"254 109 OFFCURVE",
"227 109 CURVE SMOOTH",
"181 109 OFFCURVE",
"140 129 OFFCURVE",
"140 176 CURVE SMOOTH",
"140 220 OFFCURVE",
"179 239 OFFCURVE",
"247 274 CURVE SMOOTH",
"329 316 OFFCURVE",
"388 374 OFFCURVE",
"388 446 CURVE SMOOTH",
"388 527 OFFCURVE",
"313 604 OFFCURVE",
"222 604 CURVE SMOOTH",
"151 604 OFFCURVE",
"101 558 OFFCURVE",
"101 489 CURVE SMOOTH",
"101 366 OFFCURVE",
"258 247 OFFCURVE",
"391 247 CURVE SMOOTH",
"464 247 OFFCURVE",
"558 284 OFFCURVE",
"606 312 CURVE",
"585 399 LINE",
"541 360 OFFCURVE",
"437 311 OFFCURVE",
"349 311 CURVE SMOOTH",
"258 311 OFFCURVE",
"181 364 OFFCURVE",
"181 451 CURVE SMOOTH",
"181 505 OFFCURVE",
"211 542 OFFCURVE",
"255 542 CURVE SMOOTH",
"294 542 OFFCURVE",
"319 514 OFFCURVE",
"319 477 CURVE SMOOTH",
"319 409 OFFCURVE",
"234 360 OFFCURVE",
"187 335 CURVE SMOOTH",
"127 303 OFFCURVE",
"65 271 OFFCURVE",
"65 202 CURVE SMOOTH",
"65 115 OFFCURVE",
"165 25 OFFCURVE",
"275 27 CURVE SMOOTH"
);
},
{
closed = 1;
nodes = (
"653 -341 OFFCURVE",
"780 -272 OFFCURVE",
"780 -155 CURVE SMOOTH",
"780 -57 OFFCURVE",
"690 21 OFFCURVE",
"606 21 CURVE SMOOTH",
"566 21 OFFCURVE",
"528 3 OFFCURVE",
"492 -31 CURVE",
"506 -50 OFFCURVE",
"536 -72 OFFCURVE",
"565 -89 CURVE",
"600 -63 OFFCURVE",
"627 -49 OFFCURVE",
"653 -49 CURVE SMOOTH",
"690 -49 OFFCURVE",
"710 -77 OFFCURVE",
"710 -114 CURVE SMOOTH",
"710 -208 OFFCURVE",
"581 -254 OFFCURVE",
"459 -254 CURVE SMOOTH",
"269 -254 OFFCURVE",
"115 -143 OFFCURVE",
"20 15 CURVE",
"11 12 LINE",
"0 -43 LINE",
"98 -219 OFFCURVE",
"297 -341 OFFCURVE",
"500 -341 CURVE SMOOTH"
);
},
{
closed = 1;
nodes = (
"416 -164 OFFCURVE",
"462 -149 OFFCURVE",
"462 -115 CURVE SMOOTH",
"462 -100 OFFCURVE",
"453 -70 OFFCURVE",
"442 -53 CURVE",
"414 -70 OFFCURVE",
"381 -80 OFFCURVE",
"350 -80 CURVE SMOOTH",
"303 -80 OFFCURVE",
"286 -58 OFFCURVE",
"286 -18 CURVE SMOOTH",
"286 3 OFFCURVE",
"291 27 OFFCURVE",
"303 50 CURVE",
"240 59 LINE",
"236 40 OFFCURVE",
"235 21 OFFCURVE",
"235 7 CURVE SMOOTH",
"235 -84 OFFCURVE",
"281 -164 OFFCURVE",
"375 -164 CURVE SMOOTH"
);
},
{
closed = 1;
nodes = (
"648 -18 LINE",
"657 66 OFFCURVE",
"663 159 OFFCURVE",
"663 253 CURVE SMOOTH",
"663 367 OFFCURVE",
"653 491 OFFCURVE",
"626 600 CURVE",
"550 600 LINE",
"573 505 OFFCURVE",
"584 381 OFFCURVE",
"584 259 CURVE SMOOTH",
"584 160 OFFCURVE",
"577 62 OFFCURVE",
"564 -19 CURVE"
);
}
);
width = 760;
},
{
anchors = (
{
name = bottom;
position = "{564, -390}";
},
{
name = nukta;
position = "{463, 600}";
},
{
name = top;
position = "{716, 613}";
}
);
layerId = "A430B39A-257A-41FC-BEA9-652C696FFEF7";
paths = (
{
closed = 1;
nodes = (
"389 -19 OFFCURVE",
"457 27 OFFCURVE",
"457 79 CURVE SMOOTH",
"457 130 OFFCURVE",
"405 194 OFFCURVE",
"358 194 CURVE SMOOTH",
"322 194 OFFCURVE",
"291 163 OFFCURVE",
"263 90 CURVE",
"298 118 LINE",
"280 110 OFFCURVE",
"260 106 OFFCURVE",
"241 106 CURVE SMOOTH",
"204 106 OFFCURVE",
"171 122 OFFCURVE",
"171 158 CURVE SMOOTH",
"171 205 OFFCURVE",
"224 231 OFFCURVE",
"283 265 CURVE SMOOTH",
"355 307 OFFCURVE",
"436 354 OFFCURVE",
"436 442 CURVE SMOOTH",
"436 541 OFFCURVE",
"347 628 OFFCURVE",
"236 628 CURVE SMOOTH",
"149 628 OFFCURVE",
"88 576 OFFCURVE",
"88 494 CURVE SMOOTH",
"88 356 OFFCURVE",
"271 220 OFFCURVE",
"429 220 CURVE SMOOTH",
"509 220 OFFCURVE",
"611 247 OFFCURVE",
"644 276 CURVE",
"633 417 LINE",
"576 345 OFFCURVE",
"438 319 OFFCURVE",
"365 319 CURVE SMOOTH",
"269 319 OFFCURVE",
"210 366 OFFCURVE",
"210 433 CURVE SMOOTH",
"210 488 OFFCURVE",
"249 527 OFFCURVE",
"289 527 CURVE SMOOTH",
"315 527 OFFCURVE",
"331 511 OFFCURVE",
"331 485 CURVE SMOOTH",
"331 435 OFFCURVE",
"276 401 OFFCURVE",
"216 364 CURVE SMOOTH",
"143 319 OFFCURVE",
"63 275 OFFCURVE",
"63 187 CURVE SMOOTH",
"63 86 OFFCURVE",
"181 -19 OFFCURVE",
"304 -19 CURVE SMOOTH"
);
},
{
closed = 1;
nodes = (
"756 -393 OFFCURVE",
"873 -289 OFFCURVE",
"873 -167 CURVE SMOOTH",
"873 -61 OFFCURVE",
"779 43 OFFCURVE",
"670 43 CURVE SMOOTH",
"621 43 OFFCURVE",
"571 18 OFFCURVE",
"521 -28 CURVE",
"541 -54 OFFCURVE",
"588 -93 OFFCURVE",
"631 -115 CURVE",
"667 -83 OFFCURVE",
"703 -64 OFFCURVE",
"728 -64 CURVE SMOOTH",
"753 -64 OFFCURVE",
"769 -82 OFFCURVE",
"769 -113 CURVE SMOOTH",
"769 -188 OFFCURVE",
"678 -264 OFFCURVE",
"496 -264 CURVE SMOOTH",
"273 -264 OFFCURVE",
"127 -152 OFFCURVE",
"16 28 CURVE",
"0 24 LINE",
"-15 -57 LINE",
"89 -241 OFFCURVE",
"298 -393 OFFCURVE",
"543 -393 CURVE SMOOTH"
);
},
{
closed = 1;
nodes = (
"462 -204 OFFCURVE",
"516 -183 OFFCURVE",
"516 -133 CURVE SMOOTH",
"516 -104 OFFCURVE",
"499 -71 OFFCURVE",
"478 -52 CURVE",
"448 -74 OFFCURVE",
"416 -86 OFFCURVE",
"378 -86 CURVE SMOOTH",
"338 -86 OFFCURVE",
"323 -71 OFFCURVE",
"323 -45 CURVE SMOOTH",
"323 -19 OFFCURVE",
"339 8 OFFCURVE",
"357 29 CURVE",
"260 61 LINE",
"252 33 OFFCURVE",
"248 6 OFFCURVE",
"248 -20 CURVE SMOOTH",
"248 -133 OFFCURVE",
"311 -204 OFFCURVE",
"405 -204 CURVE SMOOTH"
);
},
{
closed = 1;
nodes = (
"737 -9 LINE",
"746 77 OFFCURVE",
"750 163 OFFCURVE",
"750 244 CURVE SMOOTH",
"750 373 OFFCURVE",
"736 500 OFFCURVE",
"708 613 CURVE",
"586 613 LINE",
"612 523 OFFCURVE",
"627 391 OFFCURVE",
"627 250 CURVE SMOOTH",
"627 165 OFFCURVE",
"622 81 OFFCURVE",
"612 -9 CURVE"
);
}
);
width = 863;
}
);
leftKerningGroup = LU;
rightKerningGroup = KHU;
script = khoj;
},
{
color = 9;
glyphname = "k_ssa_ra-khoj";
lastChange = "2020-12-02 21:56:54 +0000";
layers = (
{
anchors = (
{
name = bottom;
position = "{713, 41}";
},
{
name = nukta;
position = "{390, 572}";
},
{
name = top;
position = "{666, 600}";
}
);
layerId = "0717401B-DDB5-4983-85F2-A81AFE530D5E";
paths = (
{
closed = 1;
nodes = (
"334 -18 OFFCURVE",
"391 21 OFFCURVE",
"391 60 CURVE SMOOTH",
"391 92 OFFCURVE",
"352 147 OFFCURVE",
"313 147 CURVE SMOOTH",
"275 147 OFFCURVE",
"254 95 OFFCURVE",
"234 46 CURVE",
"293 83 LINE",
"272 72 OFFCURVE",
"243 65 OFFCURVE",
"215 65 CURVE SMOOTH",
"165 65 OFFCURVE",
"119 87 OFFCURVE",
"119 141 CURVE SMOOTH",
"119 198 OFFCURVE",
"169 230 OFFCURVE",
"227 269 CURVE SMOOTH",
"304 321 OFFCURVE",
"368 368 OFFCURVE",
"368 445 CURVE SMOOTH",
"368 528 OFFCURVE",
"293 604 OFFCURVE",
"202 604 CURVE SMOOTH",
"131 604 OFFCURVE",
"81 558 OFFCURVE",
"81 489 CURVE SMOOTH",
"81 368 OFFCURVE",
"234 257 OFFCURVE",
"372 257 CURVE SMOOTH",
"471 257 OFFCURVE",
"571 315 OFFCURVE",
"636 385 CURVE",
"615 483 LINE",
"541 389 OFFCURVE",
"440 321 OFFCURVE",
"328 321 CURVE SMOOTH",
"239 321 OFFCURVE",
"161 364 OFFCURVE",
"161 451 CURVE SMOOTH",
"161 505 OFFCURVE",
"191 542 OFFCURVE",
"235 542 CURVE SMOOTH",
"274 542 OFFCURVE",
"299 514 OFFCURVE",
"299 477 CURVE SMOOTH",
"299 420 OFFCURVE",
"238 377 OFFCURVE",
"168 329 CURVE SMOOTH",
"86 272 OFFCURVE",
"45 236 OFFCURVE",
"45 176 CURVE SMOOTH",
"45 85 OFFCURVE",
"141 -20 OFFCURVE",
"261 -19 CURVE SMOOTH"
);
},
{
closed = 1;
nodes = (
"416 -240 OFFCURVE",
"468 -222 OFFCURVE",
"468 -189 CURVE SMOOTH",
"468 -174 OFFCURVE",
"460 -144 OFFCURVE",
"451 -127 CURVE",
"421 -144 OFFCURVE",
"383 -156 OFFCURVE",
"349 -156 CURVE SMOOTH",
"293 -156 OFFCURVE",
"273 -123 OFFCURVE",
"273 -76 CURVE SMOOTH",
"273 -42 OFFCURVE",
"284 -5 OFFCURVE",
"312 28 CURVE",
"237 45 LINE",
"226 9 OFFCURVE",
"222 -21 OFFCURVE",
"222 -49 CURVE SMOOTH",
"222 -162 OFFCURVE",
"286 -240 OFFCURVE",
"374 -240 CURVE SMOOTH"
);
},
{
closed = 1;
nodes = (
"646 211 LINE",
"653 309 LINE",
"392 160 LINE",
"391 153 LINE",
"452 95 LINE"
);
},
{
closed = 1;
nodes = (
"660 0 LINE",
"682 84 OFFCURVE",
"694 192 OFFCURVE",
"694 293 CURVE SMOOTH",
"694 400 OFFCURVE",
"680 514 OFFCURVE",
"656 600 CURVE",
"580 600 LINE",
"600 516 OFFCURVE",
"612 430 OFFCURVE",
"612 340 CURVE SMOOTH",
"612 253 OFFCURVE",
"601 164 OFFCURVE",
"580 83 CURVE",
"583 70 OFFCURVE",
"622 4 OFFCURVE",
"636 -9 CURVE"
);
}
);
width = 779;
},
{
anchors = (
{
name = bottom;
position = "{712, 23}";
},
{
name = nukta;
position = "{419, 600}";
},
{
name = top;
position = "{736, 613}";
}
);
layerId = "A430B39A-257A-41FC-BEA9-652C696FFEF7";
paths = (
{
closed = 1;
nodes = (
"356 -49 OFFCURVE",
"424 -3 OFFCURVE",
"424 49 CURVE SMOOTH",
"424 100 OFFCURVE",
"372 164 OFFCURVE",
"325 164 CURVE SMOOTH",
"289 164 OFFCURVE",
"258 133 OFFCURVE",
"230 60 CURVE",
"265 88 LINE",
"247 80 OFFCURVE",
"227 76 OFFCURVE",
"208 76 CURVE SMOOTH",
"171 76 OFFCURVE",
"138 92 OFFCURVE",
"138 128 CURVE SMOOTH",
"138 177 OFFCURVE",
"190 214 OFFCURVE",
"248 254 CURVE SMOOTH",
"322 305 OFFCURVE",
"403 354 OFFCURVE",
"403 442 CURVE SMOOTH",
"403 541 OFFCURVE",
"314 628 OFFCURVE",
"203 628 CURVE SMOOTH",
"116 628 OFFCURVE",
"55 576 OFFCURVE",
"55 494 CURVE SMOOTH",
"55 359 OFFCURVE",
"236 239 OFFCURVE",
"393 239 CURVE SMOOTH",
"495 239 OFFCURVE",
"615 308 OFFCURVE",
"688 390 CURVE",
"658 535 LINE",
"595 434 OFFCURVE",
"453 331 OFFCURVE",
"333 331 CURVE SMOOTH",
"233 331 OFFCURVE",
"177 369 OFFCURVE",
"177 433 CURVE SMOOTH",
"177 488 OFFCURVE",
"216 527 OFFCURVE",
"256 527 CURVE SMOOTH",
"282 527 OFFCURVE",
"298 511 OFFCURVE",
"298 485 CURVE SMOOTH",
"298 448 OFFCURVE",
"262 411 OFFCURVE",
"167 347 CURVE SMOOTH",
"65 278 OFFCURVE",
"30 237 OFFCURVE",
"30 171 CURVE SMOOTH",
"30 63 OFFCURVE",
"148 -49 OFFCURVE",
"271 -49 CURVE SMOOTH"
);
},
{
closed = 1;
nodes = (
"447 -258 OFFCURVE",
"505 -235 OFFCURVE",
"505 -181 CURVE SMOOTH",
"505 -150 OFFCURVE",
"486 -115 OFFCURVE",
"464 -95 CURVE",
"432 -118 OFFCURVE",
"398 -131 OFFCURVE",
"353 -131 CURVE SMOOTH",
"310 -131 OFFCURVE",
"292 -115 OFFCURVE",
"292 -87 CURVE SMOOTH",
"292 -59 OFFCURVE",
"309 -31 OFFCURVE",
"328 -8 CURVE",
"225 26 LINE",
"216 -4 OFFCURVE",
"212 -33 OFFCURVE",
"212 -61 CURVE SMOOTH",
"212 -181 OFFCURVE",
"283 -258 OFFCURVE",
"385 -258 CURVE SMOOTH"
);
},
{
closed = 1;
nodes = (
"709 206 LINE",
"716 344 LINE",
"410 162 LINE",
"410 143 LINE",
"491 72 LINE"
);
},
{
closed = 1;
nodes = (
"735 -13 LINE",
"757 87 OFFCURVE",
"766 202 OFFCURVE",
"766 292 CURVE SMOOTH",
"766 396 OFFCURVE",
"754 501 OFFCURVE",
"728 613 CURVE",
"617 613 LINE",
"636 525 OFFCURVE",
"644 438 OFFCURVE",
"644 360 CURVE SMOOTH",
"644 269 OFFCURVE",
"635 176 OFFCURVE",
"612 75 CURVE",
"629 49 OFFCURVE",
"680 -9 OFFCURVE",
"697 -22 CURVE"
);
}
);
width = 841;
}
);
leftKerningGroup = KSSA;
leftMetricsKey = "k_ssa-khoj";
rightKerningGroup = AA;
rightMetricsKey = "k_ssa-khoj";
script = khoj;
},
{
color = 3;
glyphname = "k_ssa_ra_iMatra-khoj";
lastChange = "2020-12-02 21:56:54 +0000";
layers = (
{
anchors = (
{
name = bottom;
position = "{713, 41}";
},
{
name = nukta;
position = "{378, 600}";
},
{
name = top;
position = "{1145, 892}";
}
);
layerId = "0717401B-DDB5-4983-85F2-A81AFE530D5E";
paths = (
{
closed = 1;
nodes = (
"681 -1 LINE",
"766 294 OFFCURVE",
"857 589 OFFCURVE",
"936 717 CURVE SMOOTH",
"976 781 OFFCURVE",
"1025 814 OFFCURVE",
"1086 814 CURVE SMOOTH",
"1147 814 OFFCURVE",
"1201 782 OFFCURVE",
"1242 736 CURVE",
"1251 738 LINE",
"1246 809 LINE",
"1200 859 OFFCURVE",
"1136 895 OFFCURVE",
"1062 895 CURVE SMOOTH",
"984 895 OFFCURVE",
"923 858 OFFCURVE",
"878 792 CURVE SMOOTH",
"811 693 OFFCURVE",
"734 446 OFFCURVE",
"672 224 CURVE",
"684 208 LINE",
"686 237 OFFCURVE",
"688 265 OFFCURVE",
"688 303 CURVE SMOOTH",
"688 400 OFFCURVE",
"676 512 OFFCURVE",
"655 600 CURVE",
"580 600 LINE",
"606 496 OFFCURVE",
"616 391 OFFCURVE",
"616 280 CURVE SMOOTH",
"616 206 OFFCURVE",
"612 129 OFFCURVE",
"606 48 CURVE",
"668 -4 LINE"
);
},
{
closed = 1;
nodes = (
"416 -240 OFFCURVE",
"468 -222 OFFCURVE",
"468 -189 CURVE SMOOTH",
"468 -174 OFFCURVE",
"460 -144 OFFCURVE",
"451 -127 CURVE",
"421 -144 OFFCURVE",
"383 -156 OFFCURVE",
"349 -156 CURVE SMOOTH",
"293 -156 OFFCURVE",
"273 -123 OFFCURVE",
"273 -76 CURVE SMOOTH",
"273 -42 OFFCURVE",
"284 -5 OFFCURVE",
"312 28 CURVE",
"237 45 LINE",
"226 9 OFFCURVE",
"222 -21 OFFCURVE",
"222 -49 CURVE SMOOTH",
"222 -162 OFFCURVE",
"286 -240 OFFCURVE",
"374 -240 CURVE SMOOTH"
);
},
{
closed = 1;
nodes = (
"334 -18 OFFCURVE",
"391 21 OFFCURVE",
"391 60 CURVE SMOOTH",
"391 92 OFFCURVE",
"352 147 OFFCURVE",
"313 147 CURVE SMOOTH",
"275 147 OFFCURVE",
"254 95 OFFCURVE",
"234 46 CURVE",
"293 83 LINE",
"272 72 OFFCURVE",
"243 65 OFFCURVE",
"215 65 CURVE SMOOTH",
"165 65 OFFCURVE",
"119 87 OFFCURVE",
"119 141 CURVE SMOOTH",
"119 198 OFFCURVE",
"169 230 OFFCURVE",
"227 269 CURVE SMOOTH",
"304 321 OFFCURVE",
"368 368 OFFCURVE",
"368 445 CURVE SMOOTH",
"368 528 OFFCURVE",
"293 604 OFFCURVE",
"202 604 CURVE SMOOTH",
"131 604 OFFCURVE",
"81 558 OFFCURVE",
"81 489 CURVE SMOOTH",
"81 368 OFFCURVE",
"234 257 OFFCURVE",
"372 257 CURVE SMOOTH",
"471 257 OFFCURVE",
"571 315 OFFCURVE",
"636 385 CURVE",
"615 483 LINE",
"541 389 OFFCURVE",
"440 321 OFFCURVE",
"328 321 CURVE SMOOTH",
"239 321 OFFCURVE",
"161 364 OFFCURVE",
"161 451 CURVE SMOOTH",
"161 505 OFFCURVE",
"191 542 OFFCURVE",
"235 542 CURVE SMOOTH",
"274 542 OFFCURVE",
"299 514 OFFCURVE",
"299 477 CURVE SMOOTH",
"299 420 OFFCURVE",
"238 377 OFFCURVE",
"168 329 CURVE SMOOTH",
"86 272 OFFCURVE",
"45 236 OFFCURVE",
"45 176 CURVE SMOOTH",
"45 85 OFFCURVE",
"141 -20 OFFCURVE",
"261 -19 CURVE SMOOTH"
);
},
{
closed = 1;
nodes = (
"646 201 LINE",
"653 299 LINE",
"392 150 LINE",
"391 143 LINE",
"452 85 LINE"
);
}
);
width = 931;
},
{
anchors = (
{
name = bottom;
position = "{853, 11}";
},
{
name = nukta;
position = "{419, 600}";
},
{
name = top;
position = "{1249, 918}";
}
);
layerId = "A430B39A-257A-41FC-BEA9-652C696FFEF7";
paths = (
{
closed = 1;
nodes = (
"753 -8 LINE",
"827 214 OFFCURVE",
"918 479 OFFCURVE",
"982 631 CURVE SMOOTH",
"1038 764 OFFCURVE",
"1103 801 OFFCURVE",
"1178 801 CURVE SMOOTH",
"1236 801 OFFCURVE",
"1300 771 OFFCURVE",
"1342 727 CURVE",
"1355 732 LINE",
"1339 829 LINE",
"1274 888 OFFCURVE",
"1207 918 OFFCURVE",
"1132 918 CURVE SMOOTH",
"1026 918 OFFCURVE",
"947 859 OFFCURVE",
"886 720 CURVE SMOOTH",
"838 610 OFFCURVE",
"785 439 OFFCURVE",
"722 219 CURVE",
"748 176 LINE",
"752 214 OFFCURVE",
"754 256 OFFCURVE",
"754 299 CURVE SMOOTH",
"754 404 OFFCURVE",
"745 520 OFFCURVE",
"726 613 CURVE",
"617 613 LINE",
"640 503 OFFCURVE",
"651 388 OFFCURVE",
"651 267 CURVE SMOOTH",
"651 197 OFFCURVE",
"648 126 OFFCURVE",
"641 53 CURVE",
"718 -17 LINE"
);
},
{
closed = 1;
nodes = (
"447 -258 OFFCURVE",
"505 -235 OFFCURVE",
"505 -181 CURVE SMOOTH",
"505 -150 OFFCURVE",
"486 -115 OFFCURVE",
"464 -95 CURVE",
"432 -118 OFFCURVE",
"398 -131 OFFCURVE",
"353 -131 CURVE SMOOTH",
"310 -131 OFFCURVE",
"292 -115 OFFCURVE",
"292 -87 CURVE SMOOTH",
"292 -59 OFFCURVE",
"309 -31 OFFCURVE",
"328 -8 CURVE",
"225 26 LINE",
"216 -4 OFFCURVE",
"212 -33 OFFCURVE",
"212 -61 CURVE SMOOTH",
"212 -181 OFFCURVE",
"283 -258 OFFCURVE",
"385 -258 CURVE SMOOTH"
);
},
{
closed = 1;
nodes = (
"356 -49 OFFCURVE",
"424 -3 OFFCURVE",
"424 49 CURVE SMOOTH",
"424 100 OFFCURVE",
"372 164 OFFCURVE",
"325 164 CURVE SMOOTH",
"289 164 OFFCURVE",
"258 133 OFFCURVE",
"230 60 CURVE",
"265 88 LINE",
"247 80 OFFCURVE",
"227 76 OFFCURVE",
"208 76 CURVE SMOOTH",
"171 76 OFFCURVE",
"138 92 OFFCURVE",
"138 128 CURVE SMOOTH",
"138 177 OFFCURVE",
"190 214 OFFCURVE",
"248 254 CURVE SMOOTH",
"322 305 OFFCURVE",
"403 354 OFFCURVE",
"403 442 CURVE SMOOTH",
"403 541 OFFCURVE",
"314 628 OFFCURVE",
"203 628 CURVE SMOOTH",
"116 628 OFFCURVE",
"55 576 OFFCURVE",
"55 494 CURVE SMOOTH",
"55 359 OFFCURVE",
"236 239 OFFCURVE",
"393 239 CURVE SMOOTH",
"495 239 OFFCURVE",
"615 308 OFFCURVE",
"688 390 CURVE",
"658 535 LINE",
"595 434 OFFCURVE",
"453 331 OFFCURVE",
"333 331 CURVE SMOOTH",
"233 331 OFFCURVE",
"177 369 OFFCURVE",
"177 433 CURVE SMOOTH",
"177 488 OFFCURVE",
"216 527 OFFCURVE",
"256 527 CURVE SMOOTH",
"282 527 OFFCURVE",
"298 511 OFFCURVE",
"298 485 CURVE SMOOTH",
"298 448 OFFCURVE",
"262 411 OFFCURVE",
"167 347 CURVE SMOOTH",
"65 278 OFFCURVE",
"30 237 OFFCURVE",
"30 171 CURVE SMOOTH",
"30 63 OFFCURVE",
"148 -49 OFFCURVE",
"271 -49 CURVE SMOOTH"
);
},
{
closed = 1;
nodes = (
"717 191 LINE",
"724 329 LINE",
"418 147 LINE",
"418 128 LINE",
"499 57 LINE"
);
}
);
width = 1015;
}
);
leftKerningGroup = KSSA;
leftMetricsKey = "k_ssa-khoj";
rightKerningGroup = LI;
rightMetricsKey = "k_ssa_iMatra-khoj";
script = khoj;
},
{
color = 3;
glyphname = "k_ssa_ra_iiMatra-khoj";
lastChange = "2020-12-02 21:56:54 +0000";
layers = (
{
anchors = (
{
name = bottom;
position = "{796, -92}";
},
{
name = nukta;
position = "{378, 600}";
},
{
name = top;
position = "{1017, 656}";
}
);
layerId = "0717401B-DDB5-4983-85F2-A81AFE530D5E";
paths = (
{
closed = 1;
nodes = (
"1163 -240 OFFCURVE",
"1200 -221 OFFCURVE",
"1202 -187 CURVE SMOOTH",
"1204 -154 OFFCURVE",
"1172 -129 OFFCURVE",
"1140 -114 CURVE",
"1130 -138 OFFCURVE",
"1098 -158 OFFCURVE",
"1061 -158 CURVE SMOOTH",
"1015 -158 OFFCURVE",
"997 -127 OFFCURVE",
"997 -45 CURVE SMOOTH",
"997 83 OFFCURVE",
"1040 253 OFFCURVE",
"1040 385 CURVE SMOOTH",
"1040 548 OFFCURVE",
"974 661 OFFCURVE",
"901 661 CURVE SMOOTH",
"863 661 OFFCURVE",
"827 628 OFFCURVE",
"791 549 CURVE SMOOTH",
"756 472 OFFCURVE",
"711 341 OFFCURVE",
"670 209 CURVE",
"684 208 LINE",
"686 237 OFFCURVE",
"688 265 OFFCURVE",
"688 303 CURVE SMOOTH",
"688 400 OFFCURVE",
"676 512 OFFCURVE",
"655 600 CURVE",
"580 600 LINE",
"606 496 OFFCURVE",
"616 391 OFFCURVE",
"616 280 CURVE SMOOTH",
"616 206 OFFCURVE",
"612 129 OFFCURVE",
"606 48 CURVE",
"668 -4 LINE",
"681 -1 LINE",
"721 135 OFFCURVE",
"807 376 OFFCURVE",
"849 472 CURVE SMOOTH",
"878 539 OFFCURVE",
"906 578 OFFCURVE",
"929 578 CURVE SMOOTH",
"956 578 OFFCURVE",
"962 527 OFFCURVE",
"962 482 CURVE SMOOTH",
"962 353 OFFCURVE",
"915 144 OFFCURVE",
"915 28 CURVE SMOOTH",
"915 -131 OFFCURVE",
"1003 -240 OFFCURVE",
"1116 -240 CURVE SMOOTH"
);
},
{
closed = 1;
nodes = (
"416 -240 OFFCURVE",
"468 -222 OFFCURVE",
"468 -189 CURVE SMOOTH",
"468 -174 OFFCURVE",
"460 -144 OFFCURVE",
"451 -127 CURVE",
"421 -144 OFFCURVE",
"383 -156 OFFCURVE",
"349 -156 CURVE SMOOTH",
"293 -156 OFFCURVE",
"273 -123 OFFCURVE",
"273 -76 CURVE SMOOTH",
"273 -42 OFFCURVE",
"284 -5 OFFCURVE",
"312 28 CURVE",
"237 45 LINE",
"226 9 OFFCURVE",
"222 -21 OFFCURVE",
"222 -49 CURVE SMOOTH",
"222 -162 OFFCURVE",
"286 -240 OFFCURVE",
"374 -240 CURVE SMOOTH"
);
},
{
closed = 1;
nodes = (
"334 -18 OFFCURVE",
"391 21 OFFCURVE",
"391 60 CURVE SMOOTH",
"391 92 OFFCURVE",
"352 147 OFFCURVE",
"313 147 CURVE SMOOTH",
"275 147 OFFCURVE",
"254 95 OFFCURVE",
"234 46 CURVE",
"293 83 LINE",
"272 72 OFFCURVE",
"243 65 OFFCURVE",
"215 65 CURVE SMOOTH",
"165 65 OFFCURVE",
"119 87 OFFCURVE",
"119 141 CURVE SMOOTH",
"119 198 OFFCURVE",
"169 230 OFFCURVE",
"227 269 CURVE SMOOTH",
"304 321 OFFCURVE",
"368 368 OFFCURVE",
"368 445 CURVE SMOOTH",
"368 528 OFFCURVE",
"293 604 OFFCURVE",
"202 604 CURVE SMOOTH",
"131 604 OFFCURVE",
"81 558 OFFCURVE",
"81 489 CURVE SMOOTH",
"81 368 OFFCURVE",
"234 257 OFFCURVE",
"372 257 CURVE SMOOTH",
"471 257 OFFCURVE",
"571 315 OFFCURVE",
"636 385 CURVE",
"615 483 LINE",
"541 389 OFFCURVE",
"440 321 OFFCURVE",
"328 321 CURVE SMOOTH",
"239 321 OFFCURVE",
"161 364 OFFCURVE",
"161 451 CURVE SMOOTH",
"161 505 OFFCURVE",
"191 542 OFFCURVE",
"235 542 CURVE SMOOTH",
"274 542 OFFCURVE",
"299 514 OFFCURVE",
"299 477 CURVE SMOOTH",
"299 420 OFFCURVE",
"238 377 OFFCURVE",
"168 329 CURVE SMOOTH",
"86 272 OFFCURVE",
"45 236 OFFCURVE",
"45 176 CURVE SMOOTH",
"45 85 OFFCURVE",
"141 -20 OFFCURVE",
"261 -19 CURVE SMOOTH"
);
},
{
closed = 1;
nodes = (
"646 201 LINE",
"653 299 LINE",
"392 150 LINE",
"391 143 LINE",
"452 85 LINE"
);
}
);
width = 1132;
},
{
anchors = (
{
name = bottom;
position = "{846, -142}";
},
{
name = nukta;
position = "{419, 600}";
},
{
name = top;
position = "{1099, 683}";
}
);
layerId = "A430B39A-257A-41FC-BEA9-652C696FFEF7";
paths = (
{
closed = 1;
nodes = (
"1268 -262 OFFCURVE",
"1312 -234 OFFCURVE",
"1313 -189 CURVE SMOOTH",
"1314 -152 OFFCURVE",
"1280 -122 OFFCURVE",
"1241 -101 CURVE",
"1224 -135 OFFCURVE",
"1191 -157 OFFCURVE",
"1154 -157 CURVE SMOOTH",
"1116 -157 OFFCURVE",
"1095 -136 OFFCURVE",
"1095 -69 CURVE SMOOTH",
"1095 61 OFFCURVE",
"1142 245 OFFCURVE",
"1142 374 CURVE SMOOTH",
"1142 539 OFFCURVE",
"1055 683 OFFCURVE",
"968 683 CURVE SMOOTH",
"920 683 OFFCURVE",
"880 646 OFFCURVE",
"842 557 CURVE SMOOTH",
"805 471 OFFCURVE",
"766 364 OFFCURVE",
"720 197 CURVE",
"748 176 LINE",
"752 214 OFFCURVE",
"754 256 OFFCURVE",
"754 299 CURVE SMOOTH",
"754 404 OFFCURVE",
"745 520 OFFCURVE",
"726 613 CURVE",
"617 613 LINE",
"640 503 OFFCURVE",
"651 388 OFFCURVE",
"651 267 CURVE SMOOTH",
"651 197 OFFCURVE",
"648 126 OFFCURVE",
"641 53 CURVE",
"718 -17 LINE",
"752 -8 LINE",
"806 148 OFFCURVE",
"887 350 OFFCURVE",
"928 449 CURVE SMOOTH",
"955 515 OFFCURVE",
"976 556 OFFCURVE",
"997 556 CURVE SMOOTH",
"1010 556 OFFCURVE",
"1019 537 OFFCURVE",
"1019 496 CURVE SMOOTH",
"1019 369 OFFCURVE",
"972 144 OFFCURVE",
"972 33 CURVE SMOOTH",
"972 -119 OFFCURVE",
"1065 -262 OFFCURVE",
"1211 -262 CURVE SMOOTH"
);
},
{
closed = 1;
nodes = (
"447 -258 OFFCURVE",
"505 -235 OFFCURVE",
"505 -181 CURVE SMOOTH",
"505 -150 OFFCURVE",
"486 -115 OFFCURVE",
"464 -95 CURVE",
"432 -118 OFFCURVE",
"398 -131 OFFCURVE",
"353 -131 CURVE SMOOTH",
"310 -131 OFFCURVE",
"292 -115 OFFCURVE",
"292 -87 CURVE SMOOTH",
"292 -59 OFFCURVE",
"309 -31 OFFCURVE",
"328 -8 CURVE",
"225 26 LINE",
"216 -4 OFFCURVE",
"212 -33 OFFCURVE",
"212 -61 CURVE SMOOTH",
"212 -181 OFFCURVE",
"283 -258 OFFCURVE",
"385 -258 CURVE SMOOTH"
);
},
{
closed = 1;
nodes = (
"356 -49 OFFCURVE",
"424 -3 OFFCURVE",
"424 49 CURVE SMOOTH",
"424 100 OFFCURVE",
"372 164 OFFCURVE",
"325 164 CURVE SMOOTH",
"289 164 OFFCURVE",
"258 133 OFFCURVE",
"230 60 CURVE",
"265 88 LINE",
"247 80 OFFCURVE",
"227 76 OFFCURVE",
"208 76 CURVE SMOOTH",
"171 76 OFFCURVE",
"138 92 OFFCURVE",
"138 128 CURVE SMOOTH",
"138 177 OFFCURVE",
"190 214 OFFCURVE",
"248 254 CURVE SMOOTH",
"322 305 OFFCURVE",
"403 354 OFFCURVE",
"403 442 CURVE SMOOTH",
"403 541 OFFCURVE",
"314 628 OFFCURVE",
"203 628 CURVE SMOOTH",
"116 628 OFFCURVE",
"55 576 OFFCURVE",
"55 494 CURVE SMOOTH",
"55 359 OFFCURVE",
"236 239 OFFCURVE",
"393 239 CURVE SMOOTH",
"495 239 OFFCURVE",
"615 308 OFFCURVE",
"688 390 CURVE",
"658 535 LINE",
"595 434 OFFCURVE",
"453 331 OFFCURVE",
"333 331 CURVE SMOOTH",
"233 331 OFFCURVE",
"177 369 OFFCURVE",
"177 433 CURVE SMOOTH",
"177 488 OFFCURVE",
"216 527 OFFCURVE",
"256 527 CURVE SMOOTH",
"282 527 OFFCURVE",
"298 511 OFFCURVE",
"298 485 CURVE SMOOTH",
"298 448 OFFCURVE",
"262 411 OFFCURVE",
"167 347 CURVE SMOOTH",
"65 278 OFFCURVE",
"30 237 OFFCURVE",
"30 171 CURVE SMOOTH",
"30 63 OFFCURVE",
"148 -49 OFFCURVE",
"271 -49 CURVE SMOOTH"
);
},
{
closed = 1;
nodes = (
"720 191 LINE",
"727 329 LINE",
"421 147 LINE",
"421 128 LINE",
"502 57 LINE"
);
}
);
width = 1227;
}
);
leftKerningGroup = KSSA;
leftMetricsKey = "k_ssa-khoj";
rightKerningGroup = LII;
rightMetricsKey = "k_ssa_iiMatra-khoj";
script = khoj;
},
{
color = 3;
glyphname = "k_ssa_ra_uMatra-khoj";
lastChange = "2020-12-02 21:56:54 +0000";
layers = (
{
anchors = (
{
name = bottom;
position = "{531, -329}";
},
{
name = nukta;
position = "{412, 600}";
},
{
name = top;
position = "{700, 600}";
}
);
layerId = "0717401B-DDB5-4983-85F2-A81AFE530D5E";
paths = (
{
closed = 1;
nodes = (
"361 28 OFFCURVE",
"418 67 OFFCURVE",
"418 106 CURVE SMOOTH",
"418 138 OFFCURVE",
"379 193 OFFCURVE",
"340 193 CURVE SMOOTH",
"302 193 OFFCURVE",
"281 141 OFFCURVE",
"261 92 CURVE",
"320 129 LINE",
"296 116 OFFCURVE",
"267 109 OFFCURVE",
"240 109 CURVE SMOOTH",
"194 109 OFFCURVE",
"153 129 OFFCURVE",
"153 176 CURVE SMOOTH",
"153 220 OFFCURVE",
"192 239 OFFCURVE",
"260 274 CURVE SMOOTH",
"342 316 OFFCURVE",
"401 374 OFFCURVE",
"401 446 CURVE SMOOTH",
"401 527 OFFCURVE",
"326 604 OFFCURVE",
"235 604 CURVE SMOOTH",
"164 604 OFFCURVE",
"114 558 OFFCURVE",
"114 489 CURVE SMOOTH",
"114 368 OFFCURVE",
"267 257 OFFCURVE",
"405 257 CURVE SMOOTH",
"504 257 OFFCURVE",
"604 315 OFFCURVE",
"669 385 CURVE",
"648 483 LINE",
"574 389 OFFCURVE",
"473 321 OFFCURVE",
"361 321 CURVE SMOOTH",
"272 321 OFFCURVE",
"194 364 OFFCURVE",
"194 451 CURVE SMOOTH",
"194 505 OFFCURVE",
"224 542 OFFCURVE",
"268 542 CURVE SMOOTH",
"307 542 OFFCURVE",
"332 514 OFFCURVE",
"332 477 CURVE SMOOTH",
"332 412 OFFCURVE",
"256 365 OFFCURVE",
"200 335 CURVE SMOOTH",
"140 303 OFFCURVE",
"78 271 OFFCURVE",
"78 202 CURVE SMOOTH",
"78 115 OFFCURVE",
"178 26 OFFCURVE",
"288 27 CURVE SMOOTH"
);
},
{
closed = 1;
nodes = (
"709 -341 OFFCURVE",
"840 -269 OFFCURVE",
"840 -155 CURVE SMOOTH",
"840 -58 OFFCURVE",
"745 21 OFFCURVE",
"666 21 CURVE SMOOTH",
"621 21 OFFCURVE",
"576 -4 OFFCURVE",
"539 -41 CURVE",
"553 -60 OFFCURVE",
"583 -82 OFFCURVE",
"612 -99 CURVE",
"651 -67 OFFCURVE",
"684 -49 OFFCURVE",
"713 -49 CURVE SMOOTH",
"750 -49 OFFCURVE",
"770 -77 OFFCURVE",
"770 -113 CURVE SMOOTH",
"770 -208 OFFCURVE",
"635 -254 OFFCURVE",
"505 -254 CURVE SMOOTH",
"311 -254 OFFCURVE",
"140 -151 OFFCURVE",
"20 15 CURVE",
"11 12 LINE",
"0 -43 LINE",
"121 -223 OFFCURVE",
"340 -341 OFFCURVE",
"548 -341 CURVE SMOOTH"
);
},
{
closed = 1;
nodes = (
"434 -164 OFFCURVE",
"484 -146 OFFCURVE",
"484 -112 CURVE SMOOTH",
"484 -98 OFFCURVE",
"476 -68 OFFCURVE",
"467 -51 CURVE",
"437 -68 OFFCURVE",
"400 -80 OFFCURVE",
"366 -80 CURVE SMOOTH",
"319 -80 OFFCURVE",
"302 -58 OFFCURVE",
"302 -18 CURVE SMOOTH",
"302 3 OFFCURVE",
"307 27 OFFCURVE",
"319 50 CURVE",
"256 59 LINE",
"252 40 OFFCURVE",
"251 20 OFFCURVE",
"251 7 CURVE SMOOTH",
"251 -82 OFFCURVE",
"298 -164 OFFCURVE",
"391 -164 CURVE SMOOTH"
);
},
{
closed = 1;
nodes = (
"689 181 LINE",
"696 279 LINE",
"435 130 LINE",
"434 123 LINE",
"495 65 LINE"
);
},
{
closed = 1;
nodes = (
"711 -18 LINE",
"720 66 OFFCURVE",
"726 159 OFFCURVE",
"726 253 CURVE SMOOTH",
"726 367 OFFCURVE",
"716 491 OFFCURVE",
"689 600 CURVE",
"613 600 LINE",
"636 505 OFFCURVE",
"647 381 OFFCURVE",
"647 259 CURVE SMOOTH",
"647 160 OFFCURVE",
"640 62 OFFCURVE",
"627 -19 CURVE"
);
}
);
width = 820;
},
{
anchors = (
{
name = bottom;
position = "{585, -390}";
},
{
name = nukta;
position = "{436, 600}";
},
{
name = top;
position = "{789, 613}";
}
);
layerId = "A430B39A-257A-41FC-BEA9-652C696FFEF7";
paths = (
{
closed = 1;
nodes = (
"406 -19 OFFCURVE",
"474 27 OFFCURVE",
"474 79 CURVE SMOOTH",
"474 130 OFFCURVE",
"422 194 OFFCURVE",
"375 194 CURVE SMOOTH",
"339 194 OFFCURVE",
"308 163 OFFCURVE",
"280 90 CURVE",
"315 118 LINE",
"297 110 OFFCURVE",
"277 106 OFFCURVE",
"258 106 CURVE SMOOTH",
"221 106 OFFCURVE",
"188 122 OFFCURVE",
"188 158 CURVE SMOOTH",
"188 205 OFFCURVE",
"241 231 OFFCURVE",
"300 265 CURVE SMOOTH",
"372 307 OFFCURVE",
"453 354 OFFCURVE",
"453 442 CURVE SMOOTH",
"453 541 OFFCURVE",
"364 628 OFFCURVE",
"253 628 CURVE SMOOTH",
"166 628 OFFCURVE",
"105 576 OFFCURVE",
"105 494 CURVE SMOOTH",
"105 359 OFFCURVE",
"286 239 OFFCURVE",
"443 239 CURVE SMOOTH",
"545 239 OFFCURVE",
"665 308 OFFCURVE",
"738 390 CURVE",
"708 535 LINE",
"645 434 OFFCURVE",
"503 331 OFFCURVE",
"383 331 CURVE SMOOTH",
"283 331 OFFCURVE",
"227 369 OFFCURVE",
"227 433 CURVE SMOOTH",
"227 488 OFFCURVE",
"266 527 OFFCURVE",
"306 527 CURVE SMOOTH",
"332 527 OFFCURVE",
"348 511 OFFCURVE",
"348 485 CURVE SMOOTH",
"348 435 OFFCURVE",
"293 401 OFFCURVE",
"233 364 CURVE SMOOTH",
"160 319 OFFCURVE",
"80 275 OFFCURVE",
"80 187 CURVE SMOOTH",
"80 86 OFFCURVE",
"198 -19 OFFCURVE",
"321 -19 CURVE SMOOTH"
);
},
{
closed = 1;
nodes = (
"785 -398 OFFCURVE",
"953 -323 OFFCURVE",
"953 -173 CURVE SMOOTH",
"953 -69 OFFCURVE",
"844 38 OFFCURVE",
"733 38 CURVE SMOOTH",
"677 38 OFFCURVE",
"621 13 OFFCURVE",
"561 -38 CURVE",
"581 -64 OFFCURVE",
"638 -105 OFFCURVE",
"679 -125 CURVE",
"717 -92 OFFCURVE",
"756 -69 OFFCURVE",
"791 -69 CURVE SMOOTH",
"820 -69 OFFCURVE",
"849 -92 OFFCURVE",
"849 -127 CURVE SMOOTH",
"849 -219 OFFCURVE",
"704 -274 OFFCURVE",
"559 -274 CURVE SMOOTH",
"344 -274 OFFCURVE",
"147 -166 OFFCURVE",
"16 23 CURVE",
"0 19 LINE",
"-15 -62 LINE",
"114 -264 OFFCURVE",
"363 -398 OFFCURVE",
"606 -398 CURVE SMOOTH"
);
},
{
closed = 1;
nodes = (
"470 -204 OFFCURVE",
"524 -183 OFFCURVE",
"524 -133 CURVE SMOOTH",
"524 -104 OFFCURVE",
"507 -71 OFFCURVE",
"486 -52 CURVE",
"456 -74 OFFCURVE",
"424 -86 OFFCURVE",
"395 -86 CURVE SMOOTH",
"355 -86 OFFCURVE",
"340 -71 OFFCURVE",
"340 -45 CURVE SMOOTH",
"340 -19 OFFCURVE",
"356 8 OFFCURVE",
"374 29 CURVE",
"277 61 LINE",
"269 33 OFFCURVE",
"265 6 OFFCURVE",
"265 -20 CURVE SMOOTH",
"265 -133 OFFCURVE",
"328 -204 OFFCURVE",
"418 -204 CURVE SMOOTH"
);
},
{
closed = 1;
nodes = (
"781 173 LINE",
"788 311 LINE",
"482 142 LINE",
"482 123 LINE",
"565 49 LINE"
);
},
{
closed = 1;
nodes = (
"810 -9 LINE",
"819 77 OFFCURVE",
"823 163 OFFCURVE",
"823 244 CURVE SMOOTH",
"823 373 OFFCURVE",
"809 500 OFFCURVE",
"781 613 CURVE",
"659 613 LINE",
"685 523 OFFCURVE",
"702 391 OFFCURVE",
"702 250 CURVE SMOOTH",
"702 165 OFFCURVE",
"697 81 OFFCURVE",
"687 -9 CURVE"
);
}
);
width = 943;
}
);
leftKerningGroup = LU;
leftMetricsKey = "k_ssa_uMatra-khoj";
rightKerningGroup = KHU;
rightMetricsKey = "k_ssa_uMatra-khoj";
script = khoj;
category = Letter;
},
{
color = 0;
glyphname = "kha-khoj";
lastChange = "2020-12-02 21:56:54 +0000";
layers = (
{
anchors = (
{
name = bottom;
position = "{614, 81}";
},
{
name = nukta;
position = "{436, 585}";
},
{
name = top;
position = "{744, 536}";
}
);
layerId = "0717401B-DDB5-4983-85F2-A81AFE530D5E";
paths = (
{
closed = 1;
nodes = (
"641 68 LINE",
"700 184 OFFCURVE",
"745 315 OFFCURVE",
"747 450 CURVE",
"727 485 OFFCURVE",
"692 522 OFFCURVE",
"655 541 CURVE",
"582 410 OFFCURVE",
"439 265 OFFCURVE",
"333 265 CURVE SMOOTH",
"285 265 OFFCURVE",
"276 295 OFFCURVE",
"270 338 CURVE SMOOTH",
"261 400 OFFCURVE",
"255 456 OFFCURVE",
"183 509 CURVE SMOOTH",
"155 530 OFFCURVE",
"121 546 OFFCURVE",
"80 546 CURVE SMOOTH",
"36 546 OFFCURVE",
"0 528 OFFCURVE",
"0 491 CURVE SMOOTH",
"0 470 OFFCURVE",
"14 446 OFFCURVE",
"38 428 CURVE",
"55 451 OFFCURVE",
"82 484 OFFCURVE",
"112 484 CURVE SMOOTH",
"138 484 OFFCURVE",
"148 458 OFFCURVE",
"155 413 CURVE SMOOTH",
"163 365 OFFCURVE",
"164 318 OFFCURVE",
"215 268 CURVE SMOOTH",
"256 227 OFFCURVE",
"319 195 OFFCURVE",
"380 195 CURVE SMOOTH",
"496 195 OFFCURVE",
"624 311 OFFCURVE",
"713 461 CURVE",
"690 462 LINE",
"676 335 OFFCURVE",
"629 237 OFFCURVE",
"545 140 CURVE",
"559 112 OFFCURVE",
"590 72 OFFCURVE",
"608 59 CURVE"
);
},
{
closed = 1;
nodes = (
"537 356 LINE",
"484 558 OFFCURVE",
"440 603 OFFCURVE",
"374 603 CURVE SMOOTH",
"332 603 OFFCURVE",
"308 582 OFFCURVE",
"308 554 CURVE SMOOTH",
"308 533 OFFCURVE",
"320 508 OFFCURVE",
"334 490 CURVE",
"355 502 OFFCURVE",
"376 512 OFFCURVE",
"399 512 CURVE SMOOTH",
"431 512 OFFCURVE",
"452 498 OFFCURVE",
"504 314 CURVE"
);
}
);
width = 797;
},
{
anchors = (
{
name = bottom;
position = "{637, 81}";
},
{
name = nukta;
position = "{461, 600}";
},
{
name = top;
position = "{809, 543}";
}
);
layerId = "A430B39A-257A-41FC-BEA9-652C696FFEF7";
paths = (
{
closed = 1;
nodes = (
"701 48 LINE",
"758 169 OFFCURVE",
"799 299 OFFCURVE",
"801 450 CURVE",
"771 498 OFFCURVE",
"719 548 OFFCURVE",
"673 570 CURVE",
"594 415 OFFCURVE",
"441 267 OFFCURVE",
"360 267 CURVE SMOOTH",
"322 267 OFFCURVE",
"316 289 OFFCURVE",
"308 342 CURVE SMOOTH",
"301 391 OFFCURVE",
"292 452 OFFCURVE",
"225 506 CURVE SMOOTH",
"179 543 OFFCURVE",
"126 561 OFFCURVE",
"80 561 CURVE SMOOTH",
"16 561 OFFCURVE",
"-20 532 OFFCURVE",
"-20 486 CURVE SMOOTH",
"-20 453 OFFCURVE",
"0 421 OFFCURVE",
"45 403 CURVE",
"67 440 OFFCURVE",
"96 471 OFFCURVE",
"117 471 CURVE SMOOTH",
"142 471 OFFCURVE",
"145 437 OFFCURVE",
"151 391 CURVE SMOOTH",
"159 331 OFFCURVE",
"172 296 OFFCURVE",
"212 255 CURVE SMOOTH",
"256 209 OFFCURVE",
"331 172 OFFCURVE",
"404 172 CURVE SMOOTH",
"504 172 OFFCURVE",
"614 245 OFFCURVE",
"727 422 CURVE",
"719 428 LINE",
"705 318 OFFCURVE",
"646 225 OFFCURVE",
"567 147 CURVE",
"583 110 OFFCURVE",
"623 62 OFFCURVE",
"652 39 CURVE"
);
},
{
closed = 1;
nodes = (
"570 389 LINE",
"523 556 OFFCURVE",
"479 621 OFFCURVE",
"403 621 CURVE SMOOTH",
"352 621 OFFCURVE",
"319 600 OFFCURVE",
"319 556 CURVE SMOOTH",
"319 529 OFFCURVE",
"335 492 OFFCURVE",
"356 468 CURVE",
"383 484 OFFCURVE",
"413 495 OFFCURVE",
"436 495 CURVE SMOOTH",
"467 495 OFFCURVE",
"485 482 OFFCURVE",
"523 352 CURVE"
);
}
);
width = 841;
}
);
leftKerningGroup = A;
note = kj_KHA;
rightKerningGroup = NNA;
rightMetricsKey = "a-khoj";
unicode = 11209;
script = khoj;
category = Letter;
},
{
color = 1;
glyphname = "kha_iMatra-khoj";
lastChange = "2020-12-02 21:56:54 +0000";
layers = (
{
anchors = (
{
name = bottom;
position = "{694, 81}";
},
{
name = nukta;
position = "{438, 600}";
},
{
name = top;
position = "{1111, 892}";
}
);
layerId = "0717401B-DDB5-4983-85F2-A81AFE530D5E";
paths = (
{
closed = 1;
nodes = (
"711 68 LINE",
"780 338 OFFCURVE",
"847 617 OFFCURVE",
"904 717 CURVE SMOOTH",
"940 781 OFFCURVE",
"990 814 OFFCURVE",
"1052 814 CURVE SMOOTH",
"1113 814 OFFCURVE",
"1167 782 OFFCURVE",
"1208 736 CURVE",
"1217 738 LINE",
"1212 809 LINE",
"1166 859 OFFCURVE",
"1103 895 OFFCURVE",
"1028 895 CURVE SMOOTH",
"951 895 OFFCURVE",
"885 858 OFFCURVE",
"840 784 CURVE SMOOTH",
"794 708 OFFCURVE",
"762 588 OFFCURVE",
"722 442 CURVE",
"747 450 LINE",
"727 485 OFFCURVE",
"692 522 OFFCURVE",
"655 541 CURVE",
"582 410 OFFCURVE",
"439 265 OFFCURVE",
"333 265 CURVE SMOOTH",
"285 265 OFFCURVE",
"276 295 OFFCURVE",
"270 338 CURVE SMOOTH",
"261 400 OFFCURVE",
"255 456 OFFCURVE",
"183 509 CURVE SMOOTH",
"155 530 OFFCURVE",
"121 546 OFFCURVE",
"80 546 CURVE SMOOTH",
"36 546 OFFCURVE",
"0 528 OFFCURVE",
"0 491 CURVE SMOOTH",
"0 470 OFFCURVE",
"14 446 OFFCURVE",
"38 428 CURVE",
"55 451 OFFCURVE",
"82 484 OFFCURVE",
"111 484 CURVE SMOOTH",
"139 484 OFFCURVE",
"148 458 OFFCURVE",
"155 412 CURVE SMOOTH",
"162 365 OFFCURVE",
"166 315 OFFCURVE",
"215 268 CURVE SMOOTH",
"256 227 OFFCURVE",
"319 195 OFFCURVE",
"380 195 CURVE SMOOTH",
"496 195 OFFCURVE",
"624 311 OFFCURVE",
"713 461 CURVE",
"688 467 LINE",
"690 452 OFFCURVE",
"691 436 OFFCURVE",
"691 418 CURVE SMOOTH",
"691 333 OFFCURVE",
"665 221 OFFCURVE",
"638 114 CURVE",
"697 66 LINE"
);
},
{
closed = 1;
nodes = (
"537 356 LINE",
"484 558 OFFCURVE",
"440 603 OFFCURVE",
"374 603 CURVE SMOOTH",
"332 603 OFFCURVE",
"308 582 OFFCURVE",
"308 554 CURVE SMOOTH",
"308 533 OFFCURVE",
"320 508 OFFCURVE",
"334 490 CURVE",
"355 502 OFFCURVE",
"376 512 OFFCURVE",
"399 512 CURVE SMOOTH",
"431 512 OFFCURVE",
"452 498 OFFCURVE",
"504 314 CURVE"
);
}
);
width = 897;
},
{
anchors = (
{
name = bottom;
position = "{698, 81}";
},
{
name = nukta;
position = "{461, 600}";
},
{
name = top;
position = "{1178, 918}";
}
);
layerId = "A430B39A-257A-41FC-BEA9-652C696FFEF7";
paths = (
{
closed = 1;
nodes = (
"754 55 LINE",
"834 381 OFFCURVE",
"880 563 OFFCURVE",
"943 691 CURVE SMOOTH",
"981 768 OFFCURVE",
"1034 801 OFFCURVE",
"1102 801 CURVE SMOOTH",
"1168 801 OFFCURVE",
"1231 771 OFFCURVE",
"1273 727 CURVE",
"1286 732 LINE",
"1270 829 LINE",
"1205 888 OFFCURVE",
"1137 918 OFFCURVE",
"1061 918 CURVE SMOOTH",
"982 918 OFFCURVE",
"913 883 OFFCURVE",
"865 810 CURVE SMOOTH",
"815 734 OFFCURVE",
"780 607 OFFCURVE",
"740 450 CURVE",
"780 476 LINE",
"737 528 OFFCURVE",
"704 555 OFFCURVE",
"673 570 CURVE",
"594 415 OFFCURVE",
"441 267 OFFCURVE",
"360 267 CURVE SMOOTH",
"322 267 OFFCURVE",
"316 289 OFFCURVE",
"308 342 CURVE SMOOTH",
"301 391 OFFCURVE",
"292 452 OFFCURVE",
"225 506 CURVE SMOOTH",
"179 543 OFFCURVE",
"126 561 OFFCURVE",
"80 561 CURVE SMOOTH",
"16 561 OFFCURVE",
"-20 532 OFFCURVE",
"-20 486 CURVE SMOOTH",
"-20 453 OFFCURVE",
"0 421 OFFCURVE",
"45 403 CURVE",
"67 440 OFFCURVE",
"96 471 OFFCURVE",
"117 471 CURVE SMOOTH",
"142 471 OFFCURVE",
"145 437 OFFCURVE",
"151 391 CURVE SMOOTH",
"159 331 OFFCURVE",
"172 296 OFFCURVE",
"212 255 CURVE SMOOTH",
"256 209 OFFCURVE",
"331 172 OFFCURVE",
"404 172 CURVE SMOOTH",
"497 172 OFFCURVE",
"602 232 OFFCURVE",
"725 420 CURVE",
"698 442 LINE",
"700 430 OFFCURVE",
"700 415 OFFCURVE",
"700 401 CURVE SMOOTH",
"700 328 OFFCURVE",
"679 220 OFFCURVE",
"654 117 CURVE",
"729 50 LINE"
);
},
{
closed = 1;
nodes = (
"570 389 LINE",
"523 556 OFFCURVE",
"479 621 OFFCURVE",
"403 621 CURVE SMOOTH",
"352 621 OFFCURVE",
"319 600 OFFCURVE",
"319 556 CURVE SMOOTH",
"319 529 OFFCURVE",
"335 492 OFFCURVE",
"356 468 CURVE",
"383 484 OFFCURVE",
"413 495 OFFCURVE",
"436 495 CURVE SMOOTH",
"467 495 OFFCURVE",
"485 482 OFFCURVE",
"523 352 CURVE"
);
}
);
width = 946;
}
);
leftKerningGroup = A;
leftMetricsKey = "kha-khoj";
note = kj_KHA;
rightKerningGroup = LI;
rightMetricsKey = "la_iMatra-khoj";
script = khoj;
category = Letter;
},
{
color = 1;
glyphname = "kha_iiMatra-khoj";
lastChange = "2020-12-02 21:56:54 +0000";
layers = (
{
anchors = (
{
name = bottom;
position = "{694, 81}";
},
{
name = nukta;
position = "{438, 600}";
},
{
name = top;
position = "{1001, 656}";
}
);
layerId = "0717401B-DDB5-4983-85F2-A81AFE530D5E";
paths = (
{
closed = 1;
nodes = (
"1144 -240 OFFCURVE",
"1181 -221 OFFCURVE",
"1183 -187 CURVE SMOOTH",
"1185 -154 OFFCURVE",
"1153 -129 OFFCURVE",
"1121 -114 CURVE",
"1111 -138 OFFCURVE",
"1079 -158 OFFCURVE",
"1042 -158 CURVE SMOOTH",
"996 -158 OFFCURVE",
"978 -127 OFFCURVE",
"978 -46 CURVE SMOOTH",
"978 85 OFFCURVE",
"1026 252 OFFCURVE",
"1026 385 CURVE SMOOTH",
"1026 545 OFFCURVE",
"957 661 OFFCURVE",
"885 661 CURVE SMOOTH",
"847 661 OFFCURVE",
"815 628 OFFCURVE",
"788 579 CURVE SMOOTH",
"764 536 OFFCURVE",
"743 482 OFFCURVE",
"726 428 CURVE",
"747 450 LINE",
"727 485 OFFCURVE",
"692 522 OFFCURVE",
"655 541 CURVE",
"582 410 OFFCURVE",
"439 265 OFFCURVE",
"333 265 CURVE SMOOTH",
"285 265 OFFCURVE",
"276 295 OFFCURVE",
"270 338 CURVE SMOOTH",
"261 400 OFFCURVE",
"255 456 OFFCURVE",
"183 509 CURVE SMOOTH",
"155 530 OFFCURVE",
"121 546 OFFCURVE",
"80 546 CURVE SMOOTH",
"36 546 OFFCURVE",
"0 528 OFFCURVE",
"0 491 CURVE SMOOTH",
"0 470 OFFCURVE",
"14 446 OFFCURVE",
"38 428 CURVE",
"55 451 OFFCURVE",
"82 484 OFFCURVE",
"111 484 CURVE SMOOTH",
"139 484 OFFCURVE",
"148 458 OFFCURVE",
"155 412 CURVE SMOOTH",
"162 365 OFFCURVE",
"166 315 OFFCURVE",
"215 268 CURVE SMOOTH",
"256 227 OFFCURVE",
"319 195 OFFCURVE",
"380 195 CURVE SMOOTH",
"496 195 OFFCURVE",
"624 311 OFFCURVE",
"713 461 CURVE",
"676 459 LINE",
"686 447 OFFCURVE",
"691 432 OFFCURVE",
"691 405 CURVE SMOOTH",
"691 340 OFFCURVE",
"665 220 OFFCURVE",
"638 114 CURVE",
"697 66 LINE",
"711 68 LINE",
"730 144 OFFCURVE",
"764 283 OFFCURVE",
"796 380 CURVE SMOOTH",
"839 511 OFFCURVE",
"880 578 OFFCURVE",
"913 578 CURVE SMOOTH",
"941 578 OFFCURVE",
"949 527 OFFCURVE",
"949 479 CURVE SMOOTH",
"949 354 OFFCURVE",
"896 145 OFFCURVE",
"896 26 CURVE SMOOTH",
"896 -124 OFFCURVE",
"980 -240 OFFCURVE",
"1097 -240 CURVE SMOOTH"
);
},
{
closed = 1;
nodes = (
"537 356 LINE",
"484 558 OFFCURVE",
"440 603 OFFCURVE",
"374 603 CURVE SMOOTH",
"332 603 OFFCURVE",
"308 582 OFFCURVE",
"308 554 CURVE SMOOTH",
"308 533 OFFCURVE",
"320 508 OFFCURVE",
"334 490 CURVE",
"355 502 OFFCURVE",
"376 512 OFFCURVE",
"399 512 CURVE SMOOTH",
"431 512 OFFCURVE",
"452 498 OFFCURVE",
"504 314 CURVE"
);
}
);
width = 1113;
},
{
anchors = (
{
name = bottom;
position = "{698, 81}";
},
{
name = nukta;
position = "{461, 600}";
},
{
name = top;
position = "{1038, 683}";
}
);
layerId = "A430B39A-257A-41FC-BEA9-652C696FFEF7";
paths = (
{
closed = 1;
nodes = (
"1208 -262 OFFCURVE",
"1252 -234 OFFCURVE",
"1253 -189 CURVE SMOOTH",
"1254 -152 OFFCURVE",
"1220 -122 OFFCURVE",
"1181 -101 CURVE",
"1164 -135 OFFCURVE",
"1131 -157 OFFCURVE",
"1094 -157 CURVE SMOOTH",
"1056 -157 OFFCURVE",
"1035 -136 OFFCURVE",
"1035 -69 CURVE SMOOTH",
"1035 61 OFFCURVE",
"1082 245 OFFCURVE",
"1082 374 CURVE SMOOTH",
"1082 539 OFFCURVE",
"995 683 OFFCURVE",
"907 683 CURVE SMOOTH",
"867 683 OFFCURVE",
"835 651 OFFCURVE",
"806 598 CURVE SMOOTH",
"786 561 OFFCURVE",
"770 526 OFFCURVE",
"746 457 CURVE",
"776 472 LINE",
"738 525 OFFCURVE",
"705 554 OFFCURVE",
"673 570 CURVE",
"594 415 OFFCURVE",
"441 267 OFFCURVE",
"360 267 CURVE SMOOTH",
"322 267 OFFCURVE",
"316 289 OFFCURVE",
"308 342 CURVE SMOOTH",
"301 391 OFFCURVE",
"292 452 OFFCURVE",
"225 506 CURVE SMOOTH",
"179 543 OFFCURVE",
"126 561 OFFCURVE",
"80 561 CURVE SMOOTH",
"16 561 OFFCURVE",
"-20 532 OFFCURVE",
"-20 486 CURVE SMOOTH",
"-20 453 OFFCURVE",
"0 421 OFFCURVE",
"45 403 CURVE",
"67 440 OFFCURVE",
"96 471 OFFCURVE",
"117 471 CURVE SMOOTH",
"142 471 OFFCURVE",
"145 437 OFFCURVE",
"151 391 CURVE SMOOTH",
"159 331 OFFCURVE",
"172 296 OFFCURVE",
"212 255 CURVE SMOOTH",
"256 209 OFFCURVE",
"331 172 OFFCURVE",
"404 172 CURVE SMOOTH",
"497 172 OFFCURVE",
"602 232 OFFCURVE",
"725 420 CURVE",
"698 442 LINE",
"700 430 OFFCURVE",
"700 415 OFFCURVE",
"700 401 CURVE SMOOTH",
"700 328 OFFCURVE",
"679 220 OFFCURVE",
"654 117 CURVE",
"729 50 LINE",
"754 55 LINE",
"770 120 OFFCURVE",
"806 271 OFFCURVE",
"840 373 CURVE SMOOTH",
"878 486 OFFCURVE",
"914 556 OFFCURVE",
"937 556 CURVE SMOOTH",
"952 556 OFFCURVE",
"959 537 OFFCURVE",
"959 496 CURVE SMOOTH",
"959 369 OFFCURVE",
"912 144 OFFCURVE",
"912 33 CURVE SMOOTH",
"912 -119 OFFCURVE",
"1005 -262 OFFCURVE",
"1151 -262 CURVE SMOOTH"
);
},
{
closed = 1;
nodes = (
"570 389 LINE",
"523 556 OFFCURVE",
"479 621 OFFCURVE",
"403 621 CURVE SMOOTH",
"352 621 OFFCURVE",
"319 600 OFFCURVE",
"319 556 CURVE SMOOTH",
"319 529 OFFCURVE",
"335 492 OFFCURVE",
"356 468 CURVE",
"383 484 OFFCURVE",
"413 495 OFFCURVE",
"436 495 CURVE SMOOTH",
"467 495 OFFCURVE",
"485 482 OFFCURVE",
"523 352 CURVE"
);
}
);
width = 1168;
}
);
leftKerningGroup = A;
leftMetricsKey = "kha-khoj";
note = kj_KHA;
rightKerningGroup = LII;
script = khoj;
category = Letter;
},
{
color = 1;
glyphname = "kha_uMatra-khoj";
lastChange = "2020-12-02 21:56:54 +0000";
layers = (
{
anchors = (
{
name = bottom;
position = "{574, -139}";
},
{
name = nukta;
position = "{463, 600}";
},
{
name = top;
position = "{769, 536}";
}
);
layerId = "0717401B-DDB5-4983-85F2-A81AFE530D5E";
paths = (
{
closed = 1;
nodes = (
"743 -139 OFFCURVE",
"841 -53 OFFCURVE",
"841 41 CURVE SMOOTH",
"841 120 OFFCURVE",
"772 182 OFFCURVE",
"696 199 CURVE",
"712 171 LINE",
"747 259 OFFCURVE",
"770 353 OFFCURVE",
"772 450 CURVE",
"752 485 OFFCURVE",
"717 522 OFFCURVE",
"680 541 CURVE",
"607 410 OFFCURVE",
"464 265 OFFCURVE",
"358 265 CURVE SMOOTH",
"310 265 OFFCURVE",
"301 295 OFFCURVE",
"295 338 CURVE SMOOTH",
"286 400 OFFCURVE",
"280 456 OFFCURVE",
"208 509 CURVE SMOOTH",
"180 530 OFFCURVE",
"146 546 OFFCURVE",
"105 546 CURVE SMOOTH",
"61 546 OFFCURVE",
"25 528 OFFCURVE",
"25 491 CURVE SMOOTH",
"25 470 OFFCURVE",
"39 446 OFFCURVE",
"63 428 CURVE",
"80 451 OFFCURVE",
"107 484 OFFCURVE",
"136 484 CURVE SMOOTH",
"164 484 OFFCURVE",
"173 458 OFFCURVE",
"180 412 CURVE SMOOTH",
"187 365 OFFCURVE",
"191 315 OFFCURVE",
"240 268 CURVE SMOOTH",
"281 227 OFFCURVE",
"344 195 OFFCURVE",
"405 195 CURVE SMOOTH",
"521 195 OFFCURVE",
"649 311 OFFCURVE",
"738 461 CURVE",
"715 462 LINE",
"701 335 OFFCURVE",
"654 232 OFFCURVE",
"559 150 CURVE",
"574 115 OFFCURVE",
"606 77 OFFCURVE",
"623 66 CURVE",
"670 106 OFFCURVE",
"705 134 OFFCURVE",
"733 134 CURVE SMOOTH",
"756 134 OFFCURVE",
"772 114 OFFCURVE",
"772 82 CURVE SMOOTH",
"772 3 OFFCURVE",
"677 -52 OFFCURVE",
"553 -52 CURVE SMOOTH",
"360 -52 OFFCURVE",
"198 83 OFFCURVE",
"109 230 CURVE",
"100 227 LINE",
"89 172 LINE",
"180 16 OFFCURVE",
"364 -139 OFFCURVE",
"581 -139 CURVE SMOOTH"
);
},
{
closed = 1;
nodes = (
"562 356 LINE",
"509 558 OFFCURVE",
"465 603 OFFCURVE",
"399 603 CURVE SMOOTH",
"357 603 OFFCURVE",
"333 582 OFFCURVE",
"333 554 CURVE SMOOTH",
"333 533 OFFCURVE",
"345 508 OFFCURVE",
"359 490 CURVE",
"380 502 OFFCURVE",
"401 512 OFFCURVE",
"424 512 CURVE SMOOTH",
"456 512 OFFCURVE",
"477 498 OFFCURVE",
"529 314 CURVE"
);
}
);
width = 861;
},
{
anchors = (
{
name = bottom;
position = "{624, -169}";
},
{
name = nukta;
position = "{491, 600}";
},
{
name = top;
position = "{839, 543}";
}
);
layerId = "A430B39A-257A-41FC-BEA9-652C696FFEF7";
paths = (
{
closed = 1;
nodes = (
"791 -171 OFFCURVE",
"906 -89 OFFCURVE",
"906 27 CURVE SMOOTH",
"906 96 OFFCURVE",
"857 164 OFFCURVE",
"761 202 CURVE",
"781 170 LINE",
"811 256 OFFCURVE",
"830 348 OFFCURVE",
"831 450 CURVE",
"801 498 OFFCURVE",
"749 548 OFFCURVE",
"703 570 CURVE",
"624 415 OFFCURVE",
"471 267 OFFCURVE",
"390 267 CURVE SMOOTH",
"352 267 OFFCURVE",
"346 289 OFFCURVE",
"338 342 CURVE SMOOTH",
"331 391 OFFCURVE",
"322 452 OFFCURVE",
"255 506 CURVE SMOOTH",
"209 543 OFFCURVE",
"156 561 OFFCURVE",
"110 561 CURVE SMOOTH",
"46 561 OFFCURVE",
"10 532 OFFCURVE",
"10 486 CURVE SMOOTH",
"10 453 OFFCURVE",
"30 421 OFFCURVE",
"75 403 CURVE",
"97 440 OFFCURVE",
"126 471 OFFCURVE",
"147 471 CURVE SMOOTH",
"172 471 OFFCURVE",
"175 437 OFFCURVE",
"181 391 CURVE SMOOTH",
"189 331 OFFCURVE",
"202 296 OFFCURVE",
"242 255 CURVE SMOOTH",
"286 209 OFFCURVE",
"361 172 OFFCURVE",
"434 172 CURVE SMOOTH",
"534 172 OFFCURVE",
"644 245 OFFCURVE",
"757 422 CURVE",
"749 428 LINE",
"735 318 OFFCURVE",
"679 215 OFFCURVE",
"594 148 CURVE",
"613 101 OFFCURVE",
"659 53 OFFCURVE",
"685 40 CURVE",
"720 78 OFFCURVE",
"755 104 OFFCURVE",
"781 104 CURVE SMOOTH",
"796 104 OFFCURVE",
"807 95 OFFCURVE",
"807 74 CURVE SMOOTH",
"807 11 OFFCURVE",
"719 -44 OFFCURVE",
"576 -44 CURVE SMOOTH",
"408 -44 OFFCURVE",
"237 35 OFFCURVE",
"110 238 CURVE",
"93 234 LINE",
"78 156 LINE",
"188 -31 OFFCURVE",
"399 -171 OFFCURVE",
"618 -171 CURVE SMOOTH"
);
},
{
closed = 1;
nodes = (
"600 389 LINE",
"553 556 OFFCURVE",
"509 621 OFFCURVE",
"433 621 CURVE SMOOTH",
"382 621 OFFCURVE",
"349 600 OFFCURVE",
"349 556 CURVE SMOOTH",
"349 529 OFFCURVE",
"365 492 OFFCURVE",
"386 468 CURVE",
"413 484 OFFCURVE",
"443 495 OFFCURVE",
"466 495 CURVE SMOOTH",
"497 495 OFFCURVE",
"515 482 OFFCURVE",
"553 352 CURVE"
);
}
);
width = 911;
}
);
leftKerningGroup = KU;
rightKerningGroup = KHU;
script = khoj;
category = Letter;
},
{
color = 9;
glyphname = "kh_ra-khoj";
lastChange = "2020-12-02 21:56:54 +0000";
layers = (
{
anchors = (
{
name = bottom;
position = "{704, 11}";
},
{
name = nukta;
position = "{438, 600}";
},
{
name = top;
position = "{792, 536}";
}
);
layerId = "0717401B-DDB5-4983-85F2-A81AFE530D5E";
paths = (
{
closed = 1;
nodes = (
"719 0 LINE",
"762 105 OFFCURVE",
"796 260 OFFCURVE",
"796 409 CURVE SMOOTH",
"796 423 OFFCURVE",
"796 436 OFFCURVE",
"795 450 CURVE",
"770 491 OFFCURVE",
"728 527 OFFCURVE",
"691 544 CURVE",
"616 409 OFFCURVE",
"436 265 OFFCURVE",
"333 265 CURVE SMOOTH",
"285 265 OFFCURVE",
"276 295 OFFCURVE",
"270 338 CURVE SMOOTH",
"261 400 OFFCURVE",
"255 456 OFFCURVE",
"183 509 CURVE SMOOTH",
"155 530 OFFCURVE",
"121 546 OFFCURVE",
"80 546 CURVE SMOOTH",
"36 546 OFFCURVE",
"0 528 OFFCURVE",
"0 491 CURVE SMOOTH",
"0 470 OFFCURVE",
"14 446 OFFCURVE",
"38 428 CURVE",
"55 451 OFFCURVE",
"82 484 OFFCURVE",
"112 484 CURVE SMOOTH",
"138 484 OFFCURVE",
"148 458 OFFCURVE",
"155 413 CURVE SMOOTH",
"163 365 OFFCURVE",
"164 318 OFFCURVE",
"215 268 CURVE SMOOTH",
"256 227 OFFCURVE",
"319 195 OFFCURVE",
"380 195 CURVE SMOOTH",
"504 195 OFFCURVE",
"667 325 OFFCURVE",
"749 464 CURVE",
"734 465 LINE",
"734 334 OFFCURVE",
"704 196 OFFCURVE",
"640 73 CURVE",
"643 60 OFFCURVE",
"680 4 OFFCURVE",
"694 -9 CURVE"
);
},
{
closed = 1;
nodes = (
"729 203 LINE",
"752 310 LINE",
"404 104 LINE",
"404 97 LINE",
"476 42 LINE"
);
},
{
closed = 1;
nodes = (
"537 356 LINE",
"484 558 OFFCURVE",
"440 603 OFFCURVE",
"374 603 CURVE SMOOTH",
"332 603 OFFCURVE",
"308 582 OFFCURVE",
"308 554 CURVE SMOOTH",
"308 533 OFFCURVE",
"320 508 OFFCURVE",
"334 490 CURVE",
"355 502 OFFCURVE",
"376 512 OFFCURVE",
"399 512 CURVE SMOOTH",
"431 512 OFFCURVE",
"452 498 OFFCURVE",
"504 314 CURVE"
);
}
);
width = 861;
},
{
anchors = (
{
name = bottom;
position = "{780, -28}";
},
{
name = nukta;
position = "{461, 600}";
},
{
name = top;
position = "{882, 543}";
}
);
layerId = "A430B39A-257A-41FC-BEA9-652C696FFEF7";
paths = (
{
closed = 1;
nodes = (
"805 -45 LINE",
"851 80 OFFCURVE",
"880 238 OFFCURVE",
"880 375 CURVE SMOOTH",
"880 405 OFFCURVE",
"879 431 OFFCURVE",
"877 449 CURVE",
"850 494 OFFCURVE",
"788 550 OFFCURVE",
"742 572 CURVE",
"648 430 OFFCURVE",
"477 267 OFFCURVE",
"360 267 CURVE SMOOTH",
"322 267 OFFCURVE",
"316 289 OFFCURVE",
"308 342 CURVE SMOOTH",
"301 391 OFFCURVE",
"292 452 OFFCURVE",
"225 506 CURVE SMOOTH",
"179 543 OFFCURVE",
"126 561 OFFCURVE",
"80 561 CURVE SMOOTH",
"16 561 OFFCURVE",
"-20 532 OFFCURVE",
"-20 486 CURVE SMOOTH",
"-20 453 OFFCURVE",
"0 421 OFFCURVE",
"45 403 CURVE",
"67 440 OFFCURVE",
"96 471 OFFCURVE",
"117 471 CURVE SMOOTH",
"142 471 OFFCURVE",
"145 437 OFFCURVE",
"151 391 CURVE SMOOTH",
"159 331 OFFCURVE",
"172 296 OFFCURVE",
"212 255 CURVE SMOOTH",
"256 209 OFFCURVE",
"331 172 OFFCURVE",
"404 172 CURVE SMOOTH",
"560 172 OFFCURVE",
"716 302 OFFCURVE",
"820 446 CURVE",
"797 455 LINE",
"797 310 OFFCURVE",
"753 160 OFFCURVE",
"694 56 CURVE",
"710 21 OFFCURVE",
"744 -22 OFFCURVE",
"772 -54 CURVE"
);
},
{
closed = 1;
nodes = (
"811 192 LINE",
"834 334 LINE",
"434 94 LINE",
"434 76 LINE",
"523 8 LINE"
);
},
{
closed = 1;
nodes = (
"582 346 LINE",
"523 556 OFFCURVE",
"479 621 OFFCURVE",
"403 621 CURVE SMOOTH",
"352 621 OFFCURVE",
"319 600 OFFCURVE",
"319 556 CURVE SMOOTH",
"319 529 OFFCURVE",
"335 492 OFFCURVE",
"356 468 CURVE",
"383 484 OFFCURVE",
"413 495 OFFCURVE",
"436 495 CURVE SMOOTH",
"467 495 OFFCURVE",
"485 482 OFFCURVE",
"535 309 CURVE"
);
}
);
width = 930;
}
);
leftKerningGroup = A;
leftMetricsKey = "kha-khoj";
rightKerningGroup = JA;
rightMetricsKey = "ja-khoj";
script = khoj;
},
{
color = 3;
glyphname = "kh_ra_iMatra-khoj";
lastChange = "2020-12-02 21:56:54 +0000";
layers = (
{
anchors = (
{
name = bottom;
position = "{717, 13}";
},
{
name = nukta;
position = "{438, 600}";
},
{
name = top;
position = "{1156, 892}";
}
);
layerId = "0717401B-DDB5-4983-85F2-A81AFE530D5E";
paths = (
{
closed = 1;
nodes = (
"734 0 LINE",
"825 368 OFFCURVE",
"892 617 OFFCURVE",
"949 717 CURVE SMOOTH",
"986 782 OFFCURVE",
"1035 814 OFFCURVE",
"1098 814 CURVE SMOOTH",
"1158 814 OFFCURVE",
"1212 782 OFFCURVE",
"1253 736 CURVE",
"1262 738 LINE",
"1257 809 LINE",
"1211 859 OFFCURVE",
"1148 895 OFFCURVE",
"1073 895 CURVE SMOOTH",
"996 895 OFFCURVE",
"930 858 OFFCURVE",
"885 784 CURVE SMOOTH",
"839 709 OFFCURVE",
"804 578 OFFCURVE",
"766 442 CURVE",
"793 444 LINE",
"773 480 OFFCURVE",
"732 521 OFFCURVE",
"691 544 CURVE",
"616 409 OFFCURVE",
"436 265 OFFCURVE",
"333 265 CURVE SMOOTH",
"285 265 OFFCURVE",
"276 295 OFFCURVE",
"270 338 CURVE SMOOTH",
"261 400 OFFCURVE",
"255 456 OFFCURVE",
"183 509 CURVE SMOOTH",
"155 530 OFFCURVE",
"121 546 OFFCURVE",
"80 546 CURVE SMOOTH",
"36 546 OFFCURVE",
"0 528 OFFCURVE",
"0 491 CURVE SMOOTH",
"0 470 OFFCURVE",
"14 446 OFFCURVE",
"38 428 CURVE",
"55 451 OFFCURVE",
"82 484 OFFCURVE",
"112 484 CURVE SMOOTH",
"138 484 OFFCURVE",
"148 458 OFFCURVE",
"155 413 CURVE SMOOTH",
"163 365 OFFCURVE",
"164 318 OFFCURVE",
"215 268 CURVE SMOOTH",
"256 227 OFFCURVE",
"319 195 OFFCURVE",
"380 195 CURVE SMOOTH",
"504 195 OFFCURVE",
"667 325 OFFCURVE",
"749 464 CURVE",
"717 459 LINE",
"727 447 OFFCURVE",
"732 433 OFFCURVE",
"732 407 CURVE SMOOTH",
"732 339 OFFCURVE",
"697 189 OFFCURVE",
"661 46 CURVE",
"720 -2 LINE"
);
},
{
closed = 1;
nodes = (
"729 203 LINE",
"752 310 LINE",
"404 104 LINE",
"404 97 LINE",
"476 42 LINE"
);
},
{
closed = 1;
nodes = (
"537 356 LINE",
"484 558 OFFCURVE",
"440 603 OFFCURVE",
"374 603 CURVE SMOOTH",
"332 603 OFFCURVE",
"308 582 OFFCURVE",
"308 554 CURVE SMOOTH",
"308 533 OFFCURVE",
"320 508 OFFCURVE",
"334 490 CURVE",
"355 502 OFFCURVE",
"376 512 OFFCURVE",
"399 512 CURVE SMOOTH",
"431 512 OFFCURVE",
"452 498 OFFCURVE",
"504 314 CURVE"
);
}
);
width = 942;
},
{
anchors = (
{
name = bottom;
position = "{767, -20}";
},
{
name = nukta;
position = "{461, 600}";
},
{
name = top;
position = "{1268, 918}";
}
);
layerId = "A430B39A-257A-41FC-BEA9-652C696FFEF7";
paths = (
{
closed = 1;
nodes = (
"823 -46 LINE",
"901 280 OFFCURVE",
"970 563 OFFCURVE",
"1033 691 CURVE SMOOTH",
"1071 768 OFFCURVE",
"1124 801 OFFCURVE",
"1192 801 CURVE SMOOTH",
"1258 801 OFFCURVE",
"1321 771 OFFCURVE",
"1363 727 CURVE",
"1376 732 LINE",
"1360 829 LINE",
"1295 888 OFFCURVE",
"1227 918 OFFCURVE",
"1151 918 CURVE SMOOTH",
"1072 918 OFFCURVE",
"1003 883 OFFCURVE",
"955 810 CURVE SMOOTH",
"905 734 OFFCURVE",
"870 607 OFFCURVE",
"830 450 CURVE",
"877 449 LINE",
"850 494 OFFCURVE",
"788 550 OFFCURVE",
"742 572 CURVE",
"648 430 OFFCURVE",
"477 267 OFFCURVE",
"360 267 CURVE SMOOTH",
"322 267 OFFCURVE",
"316 289 OFFCURVE",
"308 342 CURVE SMOOTH",
"301 391 OFFCURVE",
"292 452 OFFCURVE",
"225 506 CURVE SMOOTH",
"179 543 OFFCURVE",
"126 561 OFFCURVE",
"80 561 CURVE SMOOTH",
"16 561 OFFCURVE",
"-20 532 OFFCURVE",
"-20 486 CURVE SMOOTH",
"-20 453 OFFCURVE",
"0 421 OFFCURVE",
"45 403 CURVE",
"67 440 OFFCURVE",
"96 471 OFFCURVE",
"117 471 CURVE SMOOTH",
"142 471 OFFCURVE",
"145 437 OFFCURVE",
"151 391 CURVE SMOOTH",
"159 331 OFFCURVE",
"172 296 OFFCURVE",
"212 255 CURVE SMOOTH",
"256 209 OFFCURVE",
"331 172 OFFCURVE",
"404 172 CURVE SMOOTH",
"560 172 OFFCURVE",
"716 302 OFFCURVE",
"820 446 CURVE",
"790 444 LINE",
"792 428 OFFCURVE",
"793 412 OFFCURVE",
"793 393 CURVE SMOOTH",
"793 302 OFFCURVE",
"761 151 OFFCURVE",
"727 16 CURVE",
"798 -51 LINE"
);
},
{
closed = 1;
nodes = (
"811 192 LINE",
"834 334 LINE",
"434 94 LINE",
"434 76 LINE",
"523 8 LINE"
);
},
{
closed = 1;
nodes = (
"582 346 LINE",
"523 556 OFFCURVE",
"479 621 OFFCURVE",
"403 621 CURVE SMOOTH",
"352 621 OFFCURVE",
"319 600 OFFCURVE",
"319 556 CURVE SMOOTH",
"319 529 OFFCURVE",
"335 492 OFFCURVE",
"356 468 CURVE",
"383 484 OFFCURVE",
"413 495 OFFCURVE",
"436 495 CURVE SMOOTH",
"467 495 OFFCURVE",
"485 482 OFFCURVE",
"535 309 CURVE"
);
}
);
width = 1036;
}
);
leftKerningGroup = A;
leftMetricsKey = "kh_ra-khoj";
rightKerningGroup = LI;
rightMetricsKey = "kha_iMatra-khoj";
script = khoj;
},
{
color = 3;
glyphname = "kh_ra_iiMatra-khoj";
lastChange = "2020-12-02 21:56:54 +0000";
layers = (
{
anchors = (
{
name = bottom;
position = "{717, 13}";
},
{
name = nukta;
position = "{438, 600}";
},
{
name = top;
position = "{1040, 656}";
}
);
layerId = "0717401B-DDB5-4983-85F2-A81AFE530D5E";
paths = (
{
closed = 1;
nodes = (
"1183 -240 OFFCURVE",
"1220 -221 OFFCURVE",
"1222 -187 CURVE SMOOTH",
"1224 -154 OFFCURVE",
"1192 -129 OFFCURVE",
"1160 -114 CURVE",
"1150 -138 OFFCURVE",
"1118 -158 OFFCURVE",
"1081 -158 CURVE SMOOTH",
"1035 -158 OFFCURVE",
"1017 -127 OFFCURVE",
"1017 -46 CURVE SMOOTH",
"1017 85 OFFCURVE",
"1065 252 OFFCURVE",
"1065 385 CURVE SMOOTH",
"1065 545 OFFCURVE",
"996 661 OFFCURVE",
"924 661 CURVE SMOOTH",
"886 661 OFFCURVE",
"854 628 OFFCURVE",
"827 579 CURVE SMOOTH",
"803 536 OFFCURVE",
"782 482 OFFCURVE",
"764 428 CURVE",
"793 444 LINE",
"773 480 OFFCURVE",
"732 521 OFFCURVE",
"691 544 CURVE",
"616 409 OFFCURVE",
"436 265 OFFCURVE",
"333 265 CURVE SMOOTH",
"285 265 OFFCURVE",
"276 295 OFFCURVE",
"270 338 CURVE SMOOTH",
"261 400 OFFCURVE",
"255 456 OFFCURVE",
"183 509 CURVE SMOOTH",
"155 530 OFFCURVE",
"121 546 OFFCURVE",
"80 546 CURVE SMOOTH",
"36 546 OFFCURVE",
"0 528 OFFCURVE",
"0 491 CURVE SMOOTH",
"0 470 OFFCURVE",
"14 446 OFFCURVE",
"38 428 CURVE",
"55 451 OFFCURVE",
"82 484 OFFCURVE",
"111 484 CURVE SMOOTH",
"139 484 OFFCURVE",
"148 458 OFFCURVE",
"155 412 CURVE SMOOTH",
"162 365 OFFCURVE",
"166 315 OFFCURVE",
"215 268 CURVE SMOOTH",
"256 227 OFFCURVE",
"319 195 OFFCURVE",
"380 195 CURVE SMOOTH",
"504 195 OFFCURVE",
"667 325 OFFCURVE",
"749 464 CURVE",
"717 459 LINE",
"727 447 OFFCURVE",
"732 433 OFFCURVE",
"732 407 CURVE SMOOTH",
"732 339 OFFCURVE",
"697 189 OFFCURVE",
"661 46 CURVE",
"720 -2 LINE",
"734 0 LINE",
"777 177 OFFCURVE",
"802 282 OFFCURVE",
"836 387 CURVE SMOOTH",
"872 497 OFFCURVE",
"911 578 OFFCURVE",
"950 578 CURVE SMOOTH",
"981 578 OFFCURVE",
"988 526 OFFCURVE",
"988 480 CURVE SMOOTH",
"988 353 OFFCURVE",
"935 145 OFFCURVE",
"935 26 CURVE SMOOTH",
"935 -124 OFFCURVE",
"1019 -240 OFFCURVE",
"1136 -240 CURVE SMOOTH"
);
},
{
closed = 1;
nodes = (
"729 203 LINE",
"752 310 LINE",
"404 104 LINE",
"404 97 LINE",
"476 42 LINE"
);
},
{
closed = 1;
nodes = (
"537 356 LINE",
"484 558 OFFCURVE",
"440 603 OFFCURVE",
"374 603 CURVE SMOOTH",
"332 603 OFFCURVE",
"308 582 OFFCURVE",
"308 554 CURVE SMOOTH",
"308 533 OFFCURVE",
"320 508 OFFCURVE",
"334 490 CURVE",
"355 502 OFFCURVE",
"376 512 OFFCURVE",
"399 512 CURVE SMOOTH",
"431 512 OFFCURVE",
"452 498 OFFCURVE",
"504 314 CURVE"
);
}
);
width = 1152;
},
{
anchors = (
{
name = bottom;
position = "{767, -20}";
},
{
name = nukta;
position = "{461, 600}";
},
{
name = top;
position = "{1130, 683}";
}
);
layerId = "A430B39A-257A-41FC-BEA9-652C696FFEF7";
paths = (
{
closed = 1;
nodes = (
"1300 -262 OFFCURVE",
"1344 -234 OFFCURVE",
"1345 -189 CURVE SMOOTH",
"1346 -152 OFFCURVE",
"1312 -122 OFFCURVE",
"1273 -101 CURVE",
"1256 -135 OFFCURVE",
"1223 -157 OFFCURVE",
"1186 -157 CURVE SMOOTH",
"1148 -157 OFFCURVE",
"1127 -136 OFFCURVE",
"1127 -69 CURVE SMOOTH",
"1127 61 OFFCURVE",
"1174 245 OFFCURVE",
"1174 374 CURVE SMOOTH",
"1174 539 OFFCURVE",
"1087 683 OFFCURVE",
"999 683 CURVE SMOOTH",
"959 683 OFFCURVE",
"927 651 OFFCURVE",
"898 598 CURVE SMOOTH",
"878 561 OFFCURVE",
"862 526 OFFCURVE",
"838 457 CURVE",
"877 449 LINE",
"850 494 OFFCURVE",
"788 550 OFFCURVE",
"742 572 CURVE",
"648 430 OFFCURVE",
"477 267 OFFCURVE",
"360 267 CURVE SMOOTH",
"322 267 OFFCURVE",
"316 289 OFFCURVE",
"308 342 CURVE SMOOTH",
"301 391 OFFCURVE",
"292 452 OFFCURVE",
"225 506 CURVE SMOOTH",
"179 543 OFFCURVE",
"126 561 OFFCURVE",
"80 561 CURVE SMOOTH",
"16 561 OFFCURVE",
"-20 532 OFFCURVE",
"-20 486 CURVE SMOOTH",
"-20 453 OFFCURVE",
"0 421 OFFCURVE",
"45 403 CURVE",
"67 440 OFFCURVE",
"96 471 OFFCURVE",
"117 471 CURVE SMOOTH",
"142 471 OFFCURVE",
"145 437 OFFCURVE",
"151 391 CURVE SMOOTH",
"159 331 OFFCURVE",
"172 296 OFFCURVE",
"212 255 CURVE SMOOTH",
"256 209 OFFCURVE",
"331 172 OFFCURVE",
"404 172 CURVE SMOOTH",
"560 172 OFFCURVE",
"716 302 OFFCURVE",
"820 446 CURVE",
"790 444 LINE",
"792 428 OFFCURVE",
"793 412 OFFCURVE",
"793 393 CURVE SMOOTH",
"793 302 OFFCURVE",
"761 151 OFFCURVE",
"727 16 CURVE",
"798 -51 LINE",
"823 -46 LINE",
"862 122 OFFCURVE",
"898 271 OFFCURVE",
"932 373 CURVE SMOOTH",
"970 486 OFFCURVE",
"1006 556 OFFCURVE",
"1029 556 CURVE SMOOTH",
"1044 556 OFFCURVE",
"1051 537 OFFCURVE",
"1051 496 CURVE SMOOTH",
"1051 369 OFFCURVE",
"1004 144 OFFCURVE",
"1004 33 CURVE SMOOTH",
"1004 -119 OFFCURVE",
"1097 -262 OFFCURVE",
"1243 -262 CURVE SMOOTH"
);
},
{
closed = 1;
nodes = (
"811 192 LINE",
"834 334 LINE",
"434 94 LINE",
"434 76 LINE",
"523 8 LINE"
);
},
{
closed = 1;
nodes = (
"582 346 LINE",
"523 556 OFFCURVE",
"479 621 OFFCURVE",
"403 621 CURVE SMOOTH",
"352 621 OFFCURVE",
"319 600 OFFCURVE",
"319 556 CURVE SMOOTH",
"319 529 OFFCURVE",
"335 492 OFFCURVE",
"356 468 CURVE",
"383 484 OFFCURVE",
"413 495 OFFCURVE",
"436 495 CURVE SMOOTH",
"467 495 OFFCURVE",
"485 482 OFFCURVE",
"535 309 CURVE"
);
}
);
width = 1260;
}
);
leftKerningGroup = A;
leftMetricsKey = "kh_ra-khoj";
rightKerningGroup = LII;
rightMetricsKey = "kha_iiMatra-khoj";
script = khoj;
},
{
color = 3;
glyphname = "kh_ra_uMatra-khoj";
lastChange = "2020-12-02 21:56:54 +0000";
layers = (
{
anchors = (
{
name = bottom;
position = "{654, -201}";
},
{
name = nukta;
position = "{463, 600}";
},
{
name = top;
position = "{817, 536}";
}
);
layerId = "0717401B-DDB5-4983-85F2-A81AFE530D5E";
paths = (
{
closed = 1;
nodes = (
"824 -201 OFFCURVE",
"904 -123 OFFCURVE",
"904 -38 CURVE SMOOTH",
"904 40 OFFCURVE",
"835 100 OFFCURVE",
"759 117 CURVE",
"771 76 LINE",
"800 172 OFFCURVE",
"821 291 OFFCURVE",
"821 407 CURVE SMOOTH",
"821 421 OFFCURVE",
"821 436 OFFCURVE",
"820 450 CURVE",
"795 491 OFFCURVE",
"753 527 OFFCURVE",
"716 544 CURVE",
"641 409 OFFCURVE",
"461 265 OFFCURVE",
"358 265 CURVE SMOOTH",
"310 265 OFFCURVE",
"301 295 OFFCURVE",
"295 338 CURVE SMOOTH",
"286 400 OFFCURVE",
"280 456 OFFCURVE",
"208 509 CURVE SMOOTH",
"180 530 OFFCURVE",
"146 546 OFFCURVE",
"105 546 CURVE SMOOTH",
"61 546 OFFCURVE",
"25 528 OFFCURVE",
"25 491 CURVE SMOOTH",
"25 470 OFFCURVE",
"39 446 OFFCURVE",
"63 428 CURVE",
"80 451 OFFCURVE",
"107 484 OFFCURVE",
"136 484 CURVE SMOOTH",
"164 484 OFFCURVE",
"173 458 OFFCURVE",
"180 412 CURVE SMOOTH",
"187 365 OFFCURVE",
"191 315 OFFCURVE",
"240 268 CURVE SMOOTH",
"281 227 OFFCURVE",
"344 195 OFFCURVE",
"405 195 CURVE SMOOTH",
"529 195 OFFCURVE",
"692 325 OFFCURVE",
"774 464 CURVE",
"759 465 LINE",
"754 300 OFFCURVE",
"738 163 OFFCURVE",
"635 43 CURVE",
"652 19 OFFCURVE",
"688 -8 OFFCURVE",
"706 -16 CURVE",
"740 27 OFFCURVE",
"769 51 OFFCURVE",
"797 51 CURVE SMOOTH",
"819 51 OFFCURVE",
"835 34 OFFCURVE",
"835 3 CURVE SMOOTH",
"835 -67 OFFCURVE",
"759 -114 OFFCURVE",
"636 -114 CURVE SMOOTH",
"426 -114 OFFCURVE",
"250 23 OFFCURVE",
"152 168 CURVE",
"143 165 LINE",
"132 110 LINE",
"229 -41 OFFCURVE",
"434 -201 OFFCURVE",
"664 -201 CURVE SMOOTH"
);
},
{
closed = 1;
nodes = (
"754 203 LINE",
"777 310 LINE",
"429 104 LINE",
"429 97 LINE",
"501 42 LINE"
);
},
{
closed = 1;
nodes = (
"562 356 LINE",
"509 558 OFFCURVE",
"465 603 OFFCURVE",
"399 603 CURVE SMOOTH",
"357 603 OFFCURVE",
"333 582 OFFCURVE",
"333 554 CURVE SMOOTH",
"333 533 OFFCURVE",
"345 508 OFFCURVE",
"359 490 CURVE",
"380 502 OFFCURVE",
"401 512 OFFCURVE",
"424 512 CURVE SMOOTH",
"456 512 OFFCURVE",
"477 498 OFFCURVE",
"529 314 CURVE"
);
}
);
width = 924;
},
{
anchors = (
{
name = bottom;
position = "{734, -262}";
},
{
name = nukta;
position = "{491, 600}";
},
{
name = top;
position = "{912, 543}";
}
);
layerId = "A430B39A-257A-41FC-BEA9-652C696FFEF7";
paths = (
{
closed = 1;
nodes = (
"907 -264 OFFCURVE",
"1017 -198 OFFCURVE",
"1016 -83 CURVE SMOOTH",
"1015 -4 OFFCURVE",
"943 66 OFFCURVE",
"847 94 CURVE",
"867 58 LINE",
"894 161 OFFCURVE",
"910 274 OFFCURVE",
"910 375 CURVE SMOOTH",
"910 405 OFFCURVE",
"909 431 OFFCURVE",
"907 449 CURVE",
"880 494 OFFCURVE",
"818 550 OFFCURVE",
"772 572 CURVE",
"678 430 OFFCURVE",
"507 267 OFFCURVE",
"390 267 CURVE SMOOTH",
"352 267 OFFCURVE",
"346 289 OFFCURVE",
"338 342 CURVE SMOOTH",
"331 391 OFFCURVE",
"322 452 OFFCURVE",
"255 506 CURVE SMOOTH",
"209 543 OFFCURVE",
"156 561 OFFCURVE",
"110 561 CURVE SMOOTH",
"46 561 OFFCURVE",
"10 532 OFFCURVE",
"10 486 CURVE SMOOTH",
"10 453 OFFCURVE",
"30 421 OFFCURVE",
"75 403 CURVE",
"97 440 OFFCURVE",
"126 471 OFFCURVE",
"147 471 CURVE SMOOTH",
"172 471 OFFCURVE",
"175 437 OFFCURVE",
"181 391 CURVE SMOOTH",
"189 331 OFFCURVE",
"202 296 OFFCURVE",
"242 255 CURVE SMOOTH",
"286 209 OFFCURVE",
"361 172 OFFCURVE",
"434 172 CURVE SMOOTH",
"590 172 OFFCURVE",
"746 302 OFFCURVE",
"850 446 CURVE",
"827 455 LINE",
"827 310 OFFCURVE",
"804 140 OFFCURVE",
"695 0 CURVE",
"719 -28 OFFCURVE",
"769 -57 OFFCURVE",
"795 -66 CURVE",
"825 -32 OFFCURVE",
"858 -7 OFFCURVE",
"887 -7 CURVE SMOOTH",
"904 -7 OFFCURVE",
"917 -18 OFFCURVE",
"917 -40 CURVE SMOOTH",
"917 -99 OFFCURVE",
"838 -137 OFFCURVE",
"701 -137 CURVE SMOOTH",
"520 -137 OFFCURVE",
"317 -58 OFFCURVE",
"170 145 CURVE",
"153 141 LINE",
"138 63 LINE",
"268 -124 OFFCURVE",
"505 -264 OFFCURVE",
"739 -264 CURVE SMOOTH"
);
},
{
closed = 1;
nodes = (
"841 192 LINE",
"864 334 LINE",
"464 94 LINE",
"464 76 LINE",
"553 8 LINE"
);
},
{
closed = 1;
nodes = (
"612 346 LINE",
"553 556 OFFCURVE",
"509 621 OFFCURVE",
"433 621 CURVE SMOOTH",
"382 621 OFFCURVE",
"349 600 OFFCURVE",
"349 556 CURVE SMOOTH",
"349 529 OFFCURVE",
"365 492 OFFCURVE",
"386 468 CURVE",
"413 484 OFFCURVE",
"443 495 OFFCURVE",
"466 495 CURVE SMOOTH",
"497 495 OFFCURVE",
"515 482 OFFCURVE",
"565 309 CURVE"
);
}
);
width = 1021;
}
);
leftKerningGroup = KU;
leftMetricsKey = "kha_uMatra-khoj";
rightKerningGroup = KHU;
rightMetricsKey = "kha_uMatra-khoj";
script = khoj;
category = "";
},
{
color = 0;
glyphname = "ga-khoj";
lastChange = "2020-12-02 21:56:54 +0000";
layers = (
{
anchors = (
{
name = bottom;
position = "{536, 11}";
},
{
name = nukta;
position = "{301, 580}";
},
{
name = top;
position = "{583, 600}";
}
);
layerId = "0717401B-DDB5-4983-85F2-A81AFE530D5E";
paths = (
{
closed = 1;
nodes = (
"554 0 LINE",
"580 86 OFFCURVE",
"608 249 OFFCURVE",
"608 339 CURVE SMOOTH",
"608 497 OFFCURVE",
"518 600 OFFCURVE",
"426 600 CURVE SMOOTH",
"397 600 OFFCURVE",
"359 588 OFFCURVE",
"337 575 CURVE",
"336 569 LINE",
"352 547 OFFCURVE",
"381 515 OFFCURVE",
"401 498 CURVE",
"424 505 OFFCURVE",
"445 509 OFFCURVE",
"464 509 CURVE SMOOTH",
"520 509 OFFCURVE",
"540 474 OFFCURVE",
"540 404 CURVE SMOOTH",
"540 306 OFFCURVE",
"502 178 OFFCURVE",
"467 86 CURVE",
"470 73 OFFCURVE",
"515 4 OFFCURVE",
"529 -9 CURVE"
);
},
{
closed = 1;
nodes = (
"333 122 OFFCURVE",
"400 201 OFFCURVE",
"400 291 CURVE SMOOTH",
"400 415 OFFCURVE",
"276 501 OFFCURVE",
"210 501 CURVE SMOOTH",
"180 501 OFFCURVE",
"110 483 OFFCURVE",
"93 483 CURVE SMOOTH",
"83 483 OFFCURVE",
"78 488 OFFCURVE",
"74 496 CURVE SMOOTH",
"61 520 LINE",
"30 510 LINE",
"81 409 LINE SMOOTH",
"85 402 OFFCURVE",
"89 389 OFFCURVE",
"107 389 CURVE SMOOTH",
"131 389 OFFCURVE",
"210 412 OFFCURVE",
"251 412 CURVE SMOOTH",
"309 412 OFFCURVE",
"333 368 OFFCURVE",
"333 328 CURVE SMOOTH",
"333 268 OFFCURVE",
"279 218 OFFCURVE",
"213 218 CURVE SMOOTH",
"168 218 OFFCURVE",
"130 240 OFFCURVE",
"80 303 CURVE",
"58 278 LINE",
"100 179 OFFCURVE",
"165 122 OFFCURVE",
"243 122 CURVE SMOOTH"
);
}
);
width = 673;
},
{
anchors = (
{
name = bottom;
position = "{555, 11}";
},
{
name = nukta;
position = "{323, 589}";
},
{
name = top;
position = "{635, 613}";
}
);
layerId = "A430B39A-257A-41FC-BEA9-652C696FFEF7";
paths = (
{
closed = 1;
nodes = (
"602 -13 LINE",
"628 75 OFFCURVE",
"656 231 OFFCURVE",
"656 318 CURVE SMOOTH",
"656 490 OFFCURVE",
"557 612 OFFCURVE",
"452 612 CURVE SMOOTH",
"419 612 OFFCURVE",
"378 601 OFFCURVE",
"348 584 CURVE",
"344 568 LINE",
"363 540 OFFCURVE",
"402 492 OFFCURVE",
"424 472 CURVE",
"452 483 OFFCURVE",
"477 489 OFFCURVE",
"496 489 CURVE SMOOTH",
"539 489 OFFCURVE",
"554 455 OFFCURVE",
"554 410 CURVE SMOOTH",
"554 315 OFFCURVE",
"505 171 OFFCURVE",
"468 95 CURVE",
"486 60 OFFCURVE",
"546 -8 OFFCURVE",
"564 -22 CURVE"
);
},
{
closed = 1;
nodes = (
"358 90 OFFCURVE",
"436 160 OFFCURVE",
"436 278 CURVE SMOOTH",
"436 417 OFFCURVE",
"296 522 OFFCURVE",
"225 522 CURVE SMOOTH",
"194 522 OFFCURVE",
"118 502 OFFCURVE",
"104 502 CURVE SMOOTH",
"99 502 OFFCURVE",
"92 504 OFFCURVE",
"88 512 CURVE SMOOTH",
"73 539 LINE",
"25 524 LINE",
"86 393 LINE SMOOTH",
"93 379 OFFCURVE",
"101 365 OFFCURVE",
"123 365 CURVE SMOOTH",
"151 365 OFFCURVE",
"233 390 OFFCURVE",
"279 390 CURVE SMOOTH",
"320 390 OFFCURVE",
"342 359 OFFCURVE",
"342 321 CURVE SMOOTH",
"342 265 OFFCURVE",
"288 224 OFFCURVE",
"221 224 CURVE SMOOTH",
"167 224 OFFCURVE",
"131 247 OFFCURVE",
"84 304 CURVE",
"46 262 LINE",
"100 150 OFFCURVE",
"172 90 OFFCURVE",
"261 90 CURVE SMOOTH"
);
}
);
width = 711;
}
);
leftKerningGroup = GA;
note = kj_GA;
rightKerningGroup = YA;
rightMetricsKey = "ya-khoj";
unicode = 1120A;
script = khoj;
category = Letter;
},
{
color = 1;
glyphname = "ga_iMatra-khoj";
lastChange = "2020-12-02 21:56:54 +0000";
layers = (
{
anchors = (
{
name = bottom;
position = "{531, 11}";
},
{
name = nukta;
position = "{296, 580}";
},
{
name = top;
position = "{1056, 892}";
}
);
layerId = "0717401B-DDB5-4983-85F2-A81AFE530D5E";
paths = (
{
closed = 1;
nodes = (
"592 -1 LINE",
"677 294 OFFCURVE",
"768 589 OFFCURVE",
"847 717 CURVE SMOOTH",
"887 781 OFFCURVE",
"936 814 OFFCURVE",
"997 814 CURVE SMOOTH",
"1058 814 OFFCURVE",
"1112 782 OFFCURVE",
"1153 736 CURVE",
"1162 738 LINE",
"1157 809 LINE",
"1111 859 OFFCURVE",
"1047 895 OFFCURVE",
"973 895 CURVE SMOOTH",
"895 895 OFFCURVE",
"834 858 OFFCURVE",
"789 792 CURVE SMOOTH",
"722 693 OFFCURVE",
"645 446 OFFCURVE",
"583 224 CURVE",
"595 218 LINE",
"602 297 OFFCURVE",
"599 397 OFFCURVE",
"585 449 CURVE SMOOTH",
"562 538 OFFCURVE",
"491 600 OFFCURVE",
"422 600 CURVE SMOOTH",
"392 600 OFFCURVE",
"354 588 OFFCURVE",
"332 575 CURVE",
"331 569 LINE",
"347 547 OFFCURVE",
"376 515 OFFCURVE",
"396 498 CURVE",
"419 505 OFFCURVE",
"440 509 OFFCURVE",
"458 509 CURVE SMOOTH",
"529 509 OFFCURVE",
"539 449 OFFCURVE",
"539 359 CURVE SMOOTH",
"539 254 OFFCURVE",
"525 133 OFFCURVE",
"515 49 CURVE",
"579 -4 LINE"
);
},
{
closed = 1;
nodes = (
"333 122 OFFCURVE",
"400 201 OFFCURVE",
"400 291 CURVE SMOOTH",
"400 415 OFFCURVE",
"276 501 OFFCURVE",
"210 501 CURVE SMOOTH",
"180 501 OFFCURVE",
"110 483 OFFCURVE",
"93 483 CURVE SMOOTH",
"83 483 OFFCURVE",
"78 488 OFFCURVE",
"74 496 CURVE SMOOTH",
"61 520 LINE",
"30 510 LINE",
"81 409 LINE SMOOTH",
"85 402 OFFCURVE",
"89 389 OFFCURVE",
"107 389 CURVE SMOOTH",
"131 389 OFFCURVE",
"210 412 OFFCURVE",
"251 412 CURVE SMOOTH",
"309 412 OFFCURVE",
"333 368 OFFCURVE",
"333 328 CURVE SMOOTH",
"333 268 OFFCURVE",
"279 218 OFFCURVE",
"213 218 CURVE SMOOTH",
"168 218 OFFCURVE",
"130 240 OFFCURVE",
"80 303 CURVE",
"58 278 LINE",
"100 179 OFFCURVE",
"165 122 OFFCURVE",
"243 122 CURVE SMOOTH"
);
}
);
width = 842;
},
{
anchors = (
{
name = bottom;
position = "{555, 11}";
},
{
name = nukta;
position = "{323, 589}";
},
{
name = top;
position = "{1127, 918}";
}
);
layerId = "A430B39A-257A-41FC-BEA9-652C696FFEF7";
paths = (
{
closed = 1;
nodes = (
"640 -8 LINE",
"710 214 OFFCURVE",
"796 479 OFFCURVE",
"860 631 CURVE SMOOTH",
"916 764 OFFCURVE",
"981 801 OFFCURVE",
"1056 801 CURVE SMOOTH",
"1114 801 OFFCURVE",
"1178 771 OFFCURVE",
"1220 727 CURVE",
"1233 732 LINE",
"1217 829 LINE",
"1152 888 OFFCURVE",
"1085 918 OFFCURVE",
"1010 918 CURVE SMOOTH",
"904 918 OFFCURVE",
"825 859 OFFCURVE",
"764 720 CURVE SMOOTH",
"718 616 OFFCURVE",
"669 458 OFFCURVE",
"611 256 CURVE",
"651 246 LINE",
"653 339 OFFCURVE",
"648 425 OFFCURVE",
"621 483 CURVE SMOOTH",
"584 563 OFFCURVE",
"519 612 OFFCURVE",
"452 612 CURVE SMOOTH",
"419 612 OFFCURVE",
"378 601 OFFCURVE",
"348 584 CURVE",
"344 568 LINE",
"363 540 OFFCURVE",
"402 492 OFFCURVE",
"424 472 CURVE",
"452 483 OFFCURVE",
"477 489 OFFCURVE",
"496 489 CURVE SMOOTH",
"544 489 OFFCURVE",
"559 452 OFFCURVE",
"559 372 CURVE SMOOTH",
"559 246 OFFCURVE",
"545 153 OFFCURVE",
"528 53 CURVE",
"605 -17 LINE"
);
},
{
closed = 1;
nodes = (
"358 90 OFFCURVE",
"436 160 OFFCURVE",
"436 278 CURVE SMOOTH",
"436 417 OFFCURVE",
"296 522 OFFCURVE",
"225 522 CURVE SMOOTH",
"194 522 OFFCURVE",
"118 502 OFFCURVE",
"104 502 CURVE SMOOTH",
"99 502 OFFCURVE",
"92 504 OFFCURVE",
"88 512 CURVE SMOOTH",
"73 539 LINE",
"25 524 LINE",
"86 393 LINE SMOOTH",
"93 379 OFFCURVE",
"101 365 OFFCURVE",
"123 365 CURVE SMOOTH",
"151 365 OFFCURVE",
"233 390 OFFCURVE",
"279 390 CURVE SMOOTH",
"320 390 OFFCURVE",
"342 359 OFFCURVE",
"342 321 CURVE SMOOTH",
"342 265 OFFCURVE",
"288 224 OFFCURVE",
"221 224 CURVE SMOOTH",
"167 224 OFFCURVE",
"131 247 OFFCURVE",
"84 304 CURVE",
"46 262 LINE",
"100 150 OFFCURVE",
"172 90 OFFCURVE",
"261 90 CURVE SMOOTH"
);
}
);
width = 893;
}
);
leftKerningGroup = GA;
leftMetricsKey = "ga-khoj";
rightKerningGroup = LI;
rightMetricsKey = "la_iMatra-khoj";
script = khoj;
},
{
color = 1;
glyphname = "ga_iiMatra-khoj";
lastChange = "2020-12-02 21:56:54 +0000";
layers = (
{
anchors = (
{
name = bottom;
position = "{531, 11}";
},
{
name = nukta;
position = "{296, 580}";
},
{
name = top;
position = "{926, 656}";
}
);
layerId = "0717401B-DDB5-4983-85F2-A81AFE530D5E";
paths = (
{
closed = 1;
nodes = (
"1074 -240 OFFCURVE",
"1111 -221 OFFCURVE",
"1113 -187 CURVE SMOOTH",
"1115 -154 OFFCURVE",
"1083 -129 OFFCURVE",
"1051 -114 CURVE",
"1041 -138 OFFCURVE",
"1009 -158 OFFCURVE",
"972 -158 CURVE SMOOTH",
"926 -158 OFFCURVE",
"908 -127 OFFCURVE",
"908 -45 CURVE SMOOTH",
"908 83 OFFCURVE",
"951 253 OFFCURVE",
"951 385 CURVE SMOOTH",
"951 548 OFFCURVE",
"885 661 OFFCURVE",
"812 661 CURVE SMOOTH",
"774 661 OFFCURVE",
"738 628 OFFCURVE",
"702 549 CURVE SMOOTH",
"667 472 OFFCURVE",
"622 341 OFFCURVE",
"581 209 CURVE",
"595 218 LINE",
"602 297 OFFCURVE",
"599 397 OFFCURVE",
"585 449 CURVE SMOOTH",
"562 538 OFFCURVE",
"491 600 OFFCURVE",
"422 600 CURVE SMOOTH",
"392 600 OFFCURVE",
"354 588 OFFCURVE",
"332 575 CURVE",
"331 569 LINE",
"347 547 OFFCURVE",
"376 515 OFFCURVE",
"396 498 CURVE",
"419 505 OFFCURVE",
"440 509 OFFCURVE",
"458 509 CURVE SMOOTH",
"529 509 OFFCURVE",
"539 449 OFFCURVE",
"539 359 CURVE SMOOTH",
"539 254 OFFCURVE",
"525 133 OFFCURVE",
"515 49 CURVE",
"579 -4 LINE",
"592 -1 LINE",
"632 135 OFFCURVE",
"718 376 OFFCURVE",
"760 472 CURVE SMOOTH",
"789 539 OFFCURVE",
"817 578 OFFCURVE",
"840 578 CURVE SMOOTH",
"867 578 OFFCURVE",
"873 527 OFFCURVE",
"873 482 CURVE SMOOTH",
"873 353 OFFCURVE",
"826 144 OFFCURVE",
"826 28 CURVE SMOOTH",
"826 -131 OFFCURVE",
"914 -240 OFFCURVE",
"1027 -240 CURVE SMOOTH"
);
},
{
closed = 1;
nodes = (
"333 122 OFFCURVE",
"400 201 OFFCURVE",
"400 291 CURVE SMOOTH",
"400 415 OFFCURVE",
"276 501 OFFCURVE",
"210 501 CURVE SMOOTH",
"180 501 OFFCURVE",
"110 483 OFFCURVE",
"93 483 CURVE SMOOTH",
"83 483 OFFCURVE",
"78 488 OFFCURVE",
"74 496 CURVE SMOOTH",
"61 520 LINE",
"30 510 LINE",
"81 409 LINE SMOOTH",
"85 402 OFFCURVE",
"89 389 OFFCURVE",
"107 389 CURVE SMOOTH",
"131 389 OFFCURVE",
"210 412 OFFCURVE",
"251 412 CURVE SMOOTH",
"309 412 OFFCURVE",
"333 368 OFFCURVE",
"333 328 CURVE SMOOTH",
"333 268 OFFCURVE",
"279 218 OFFCURVE",
"213 218 CURVE SMOOTH",
"168 218 OFFCURVE",
"130 240 OFFCURVE",
"80 303 CURVE",
"58 278 LINE",
"100 179 OFFCURVE",
"165 122 OFFCURVE",
"243 122 CURVE SMOOTH"
);
}
);
width = 1043;
},
{
anchors = (
{
name = bottom;
position = "{555, 11}";
},
{
name = nukta;
position = "{323, 589}";
},
{
name = top;
position = "{980, 683}";
}
);
layerId = "A430B39A-257A-41FC-BEA9-652C696FFEF7";
paths = (
{
closed = 1;
nodes = (
"1149 -262 OFFCURVE",
"1193 -234 OFFCURVE",
"1194 -189 CURVE SMOOTH",
"1195 -152 OFFCURVE",
"1161 -122 OFFCURVE",
"1122 -101 CURVE",
"1105 -135 OFFCURVE",
"1072 -157 OFFCURVE",
"1035 -157 CURVE SMOOTH",
"997 -157 OFFCURVE",
"976 -136 OFFCURVE",
"976 -69 CURVE SMOOTH",
"976 61 OFFCURVE",
"1023 245 OFFCURVE",
"1023 374 CURVE SMOOTH",
"1023 539 OFFCURVE",
"936 683 OFFCURVE",
"849 683 CURVE SMOOTH",
"801 683 OFFCURVE",
"761 646 OFFCURVE",
"723 557 CURVE SMOOTH",
"691 483 OFFCURVE",
"657 393 OFFCURVE",
"619 258 CURVE",
"651 262 LINE",
"652 349 OFFCURVE",
"646 428 OFFCURVE",
"621 483 CURVE SMOOTH",
"584 564 OFFCURVE",
"519 612 OFFCURVE",
"452 612 CURVE SMOOTH",
"419 612 OFFCURVE",
"378 601 OFFCURVE",
"348 584 CURVE",
"344 568 LINE",
"363 540 OFFCURVE",
"402 492 OFFCURVE",
"424 472 CURVE",
"452 483 OFFCURVE",
"477 489 OFFCURVE",
"496 489 CURVE SMOOTH",
"544 489 OFFCURVE",
"559 452 OFFCURVE",
"559 372 CURVE SMOOTH",
"559 246 OFFCURVE",
"545 153 OFFCURVE",
"528 53 CURVE",
"605 -17 LINE",
"640 -8 LINE",
"690 148 OFFCURVE",
"768 350 OFFCURVE",
"809 449 CURVE SMOOTH",
"836 515 OFFCURVE",
"857 556 OFFCURVE",
"878 556 CURVE SMOOTH",
"891 556 OFFCURVE",
"900 537 OFFCURVE",
"900 496 CURVE SMOOTH",
"900 369 OFFCURVE",
"853 144 OFFCURVE",
"853 33 CURVE SMOOTH",
"853 -119 OFFCURVE",
"946 -262 OFFCURVE",
"1092 -262 CURVE SMOOTH"
);
},
{
closed = 1;
nodes = (
"358 90 OFFCURVE",
"436 160 OFFCURVE",
"436 278 CURVE SMOOTH",
"436 417 OFFCURVE",
"296 522 OFFCURVE",
"225 522 CURVE SMOOTH",
"194 522 OFFCURVE",
"118 502 OFFCURVE",
"104 502 CURVE SMOOTH",
"99 502 OFFCURVE",
"92 504 OFFCURVE",
"88 512 CURVE SMOOTH",
"73 539 LINE",
"25 524 LINE",
"86 393 LINE SMOOTH",
"93 379 OFFCURVE",
"101 365 OFFCURVE",
"123 365 CURVE SMOOTH",
"151 365 OFFCURVE",
"233 390 OFFCURVE",
"279 390 CURVE SMOOTH",
"320 390 OFFCURVE",
"342 359 OFFCURVE",
"342 321 CURVE SMOOTH",
"342 265 OFFCURVE",
"288 224 OFFCURVE",
"221 224 CURVE SMOOTH",
"167 224 OFFCURVE",
"131 247 OFFCURVE",
"84 304 CURVE",
"46 262 LINE",
"100 150 OFFCURVE",
"172 90 OFFCURVE",
"261 90 CURVE SMOOTH"
);
}
);
width = 1108;
}
);
leftKerningGroup = GA;
leftMetricsKey = "ga-khoj";
rightKerningGroup = LII;
rightMetricsKey = "la_iiMatra-khoj";
script = khoj;
},
{
color = 1;
glyphname = "ga_uMatra-khoj";
lastChange = "2020-12-02 21:56:54 +0000";
layers = (
{
anchors = (
{
name = bottom;
position = "{418, -121}";
},
{
name = nukta;
position = "{349, 580}";
},
{
name = top;
position = "{610, 600}";
}
);
layerId = "0717401B-DDB5-4983-85F2-A81AFE530D5E";
paths = (
{
closed = 1;
nodes = (
"544 -123 OFFCURVE",
"655 96 OFFCURVE",
"655 306 CURVE SMOOTH",
"655 392 OFFCURVE",
"638 458 OFFCURVE",
"609 507 CURVE SMOOTH",
"574 566 OFFCURVE",
"522 600 OFFCURVE",
"469 600 CURVE SMOOTH",
"440 600 OFFCURVE",
"402 588 OFFCURVE",
"380 575 CURVE",
"379 569 LINE",
"395 547 OFFCURVE",
"424 515 OFFCURVE",
"444 498 CURVE",
"467 505 OFFCURVE",
"490 509 OFFCURVE",
"508 509 CURVE SMOOTH",
"577 509 OFFCURVE",
"590 446 OFFCURVE",
"590 369 CURVE SMOOTH",
"590 139 OFFCURVE",
"464 -37 OFFCURVE",
"301 -37 CURVE SMOOTH",
"202 -37 OFFCURVE",
"105 25 OFFCURVE",
"42 120 CURVE",
"36 118 LINE",
"30 61 LINE",
"91 -39 OFFCURVE",
"207 -123 OFFCURVE",
"338 -123 CURVE SMOOTH"
);
},
{
closed = 1;
nodes = (
"376 122 OFFCURVE",
"443 201 OFFCURVE",
"443 291 CURVE SMOOTH",
"443 415 OFFCURVE",
"319 501 OFFCURVE",
"253 501 CURVE SMOOTH",
"223 501 OFFCURVE",
"153 483 OFFCURVE",
"136 483 CURVE SMOOTH",
"126 483 OFFCURVE",
"121 488 OFFCURVE",
"117 496 CURVE SMOOTH",
"104 520 LINE",
"73 510 LINE",
"124 409 LINE SMOOTH",
"128 402 OFFCURVE",
"132 389 OFFCURVE",
"150 389 CURVE SMOOTH",
"174 389 OFFCURVE",
"253 412 OFFCURVE",
"294 412 CURVE SMOOTH",
"352 412 OFFCURVE",
"376 368 OFFCURVE",
"376 328 CURVE SMOOTH",
"376 268 OFFCURVE",
"322 218 OFFCURVE",
"256 218 CURVE SMOOTH",
"211 218 OFFCURVE",
"173 240 OFFCURVE",
"123 303 CURVE",
"101 278 LINE",
"143 179 OFFCURVE",
"208 122 OFFCURVE",
"286 122 CURVE SMOOTH"
);
}
);
width = 720;
},
{
anchors = (
{
name = bottom;
position = "{451, -147}";
},
{
name = nukta;
position = "{363, 589}";
},
{
name = top;
position = "{675, 613}";
}
);
layerId = "A430B39A-257A-41FC-BEA9-652C696FFEF7";
paths = (
{
closed = 1;
nodes = (
"557 -154 OFFCURVE",
"702 41 OFFCURVE",
"702 287 CURVE SMOOTH",
"702 372 OFFCURVE",
"681 451 OFFCURVE",
"650 504 CURVE SMOOTH",
"610 573 OFFCURVE",
"551 612 OFFCURVE",
"492 612 CURVE SMOOTH",
"459 612 OFFCURVE",
"418 601 OFFCURVE",
"388 584 CURVE",
"384 568 LINE",
"403 540 OFFCURVE",
"442 492 OFFCURVE",
"464 472 CURVE",
"492 483 OFFCURVE",
"517 489 OFFCURVE",
"536 489 CURVE SMOOTH",
"579 489 OFFCURVE",
"605 457 OFFCURVE",
"605 381 CURVE SMOOTH",
"605 150 OFFCURVE",
"477 -29 OFFCURVE",
"298 -29 CURVE SMOOTH",
"206 -29 OFFCURVE",
"110 20 OFFCURVE",
"38 125 CURVE",
"24 122 LINE",
"15 46 LINE",
"89 -76 OFFCURVE",
"217 -154 OFFCURVE",
"349 -154 CURVE SMOOTH"
);
},
{
closed = 1;
nodes = (
"398 90 OFFCURVE",
"476 160 OFFCURVE",
"476 278 CURVE SMOOTH",
"476 417 OFFCURVE",
"336 522 OFFCURVE",
"265 522 CURVE SMOOTH",
"234 522 OFFCURVE",
"158 502 OFFCURVE",
"144 502 CURVE SMOOTH",
"139 502 OFFCURVE",
"132 504 OFFCURVE",
"128 512 CURVE SMOOTH",
"113 539 LINE",
"65 524 LINE",
"126 393 LINE SMOOTH",
"133 379 OFFCURVE",
"141 365 OFFCURVE",
"163 365 CURVE SMOOTH",
"191 365 OFFCURVE",
"273 390 OFFCURVE",
"319 390 CURVE SMOOTH",
"360 390 OFFCURVE",
"382 359 OFFCURVE",
"382 321 CURVE SMOOTH",
"382 265 OFFCURVE",
"328 224 OFFCURVE",
"261 224 CURVE SMOOTH",
"207 224 OFFCURVE",
"171 247 OFFCURVE",
"124 304 CURVE",
"86 262 LINE",
"140 150 OFFCURVE",
"212 90 OFFCURVE",
"301 90 CURVE SMOOTH"
);
}
);
width = 757;
}
);
leftKerningGroup = YU;
note = GU;
rightKerningGroup = YA;
rightMetricsKey = "ga-khoj";
script = khoj;
category = Letter;
},
